<svg xmlns="http://www.w3.org/2000/svg" width="3572" height="1686" viewBox="0 0 3572 1686">
  <rect width="100%" height="100%" fill="#ffffff"/>
  <line x1="165" y1="554.5" x2="112" y2="836" stroke="#666666" stroke-width="2" marker-end="url(#arrowhead)"/>
  <line x1="165" y1="554.5" x2="362" y2="836" stroke="#666666" stroke-width="2" marker-end="url(#arrowhead)"/>
  <line x1="165" y1="554.5" x2="612" y2="776" stroke="#666666" stroke-width="2" marker-end="url(#arrowhead)"/>
  <line x1="165" y1="554.5" x2="112" y2="836" stroke="#666666" stroke-width="2" marker-end="url(#arrowhead)"/>
  <line x1="3222" y1="107.5" x2="2972" y2="273" stroke="#666666" stroke-width="2" marker-end="url(#arrowhead)"/>
  <line x1="3222" y1="107.5" x2="3222" y2="333" stroke="#666666" stroke-width="2" marker-end="url(#arrowhead)"/>
  <line x1="3222" y1="107.5" x2="3472" y2="273" stroke="#666666" stroke-width="2" marker-end="url(#arrowhead)"/>
  <line x1="2788" y1="489.5" x2="2052" y2="646" stroke="#666666" stroke-width="2" marker-end="url(#arrowhead)"/>
  <line x1="2788" y1="489.5" x2="2302" y2="766" stroke="#666666" stroke-width="2" marker-end="url(#arrowhead)"/>
  <line x1="2788" y1="489.5" x2="2552" y2="756" stroke="#666666" stroke-width="2" marker-end="url(#arrowhead)"/>
  <line x1="2788" y1="489.5" x2="2802" y2="706" stroke="#666666" stroke-width="2" marker-end="url(#arrowhead)"/>
  <line x1="2788" y1="489.5" x2="3023" y2="656" stroke="#666666" stroke-width="2" marker-end="url(#arrowhead)"/>
  <line x1="2788" y1="489.5" x2="2802" y2="886" stroke="#666666" stroke-width="2" marker-end="url(#arrowhead)"/>
  <line x1="2302" y1="766" x2="2802" y2="886" stroke="#666666" stroke-width="2" marker-end="url(#arrowhead)"/>
  <line x1="2552" y1="756" x2="2802" y2="886" stroke="#666666" stroke-width="2" marker-end="url(#arrowhead)"/>
  <line x1="2802" y1="706" x2="2802" y2="886" stroke="#666666" stroke-width="2" marker-end="url(#arrowhead)"/>
  <line x1="3023" y1="656" x2="2802" y2="886" stroke="#666666" stroke-width="2" marker-end="url(#arrowhead)"/>
  <line x1="3023" y1="656" x2="3056" y2="836" stroke="#666666" stroke-width="2" marker-end="url(#arrowhead)"/>
  <line x1="1612" y1="1350.5" x2="1882" y2="1564" stroke="#666666" stroke-width="2" marker-end="url(#arrowhead)"/>
  <line x1="1612" y1="1350.5" x2="1382" y2="1574" stroke="#666666" stroke-width="2" marker-end="url(#arrowhead)"/>
  <line x1="1612" y1="1350.5" x2="1382" y2="1574" stroke="#666666" stroke-width="2" marker-end="url(#arrowhead)"/>
  <line x1="1612" y1="1350.5" x2="1632" y2="1624" stroke="#666666" stroke-width="2" marker-end="url(#arrowhead)"/>
  <line x1="1120" y1="1051.5" x2="862" y2="1257" stroke="#666666" stroke-width="2" marker-end="url(#arrowhead)"/>
  <line x1="1120" y1="1051.5" x2="2612" y2="1227" stroke="#666666" stroke-width="2" marker-end="url(#arrowhead)"/>
  <line x1="1120" y1="1051.5" x2="1612" y2="1350.5" stroke="#666666" stroke-width="2" marker-end="url(#arrowhead)"/>
  <line x1="1120" y1="1051.5" x2="1862" y2="1287" stroke="#666666" stroke-width="2" marker-end="url(#arrowhead)"/>
  <line x1="1120" y1="1051.5" x2="112" y2="1217" stroke="#666666" stroke-width="2" marker-end="url(#arrowhead)"/>
  <line x1="1120" y1="1051.5" x2="1112" y2="1277" stroke="#666666" stroke-width="2" marker-end="url(#arrowhead)"/>
  <line x1="1120" y1="1051.5" x2="362" y2="1227" stroke="#666666" stroke-width="2" marker-end="url(#arrowhead)"/>
  <line x1="1120" y1="1051.5" x2="862" y2="1257" stroke="#666666" stroke-width="2" marker-end="url(#arrowhead)"/>
  <line x1="1120" y1="1051.5" x2="612" y2="1237" stroke="#666666" stroke-width="2" marker-end="url(#arrowhead)"/>
  <line x1="1120" y1="1051.5" x2="1362" y2="1394" stroke="#666666" stroke-width="2" marker-end="url(#arrowhead)"/>
  <line x1="1120" y1="1051.5" x2="2362" y2="1227" stroke="#666666" stroke-width="2" marker-end="url(#arrowhead)"/>
  <line x1="1120" y1="1051.5" x2="2112" y2="1237" stroke="#666666" stroke-width="2" marker-end="url(#arrowhead)"/>
  <line x1="2678" y1="1026.5" x2="2612" y2="1227" stroke="#666666" stroke-width="2" marker-end="url(#arrowhead)"/>
  <line x1="2678" y1="1026.5" x2="2862" y2="1227" stroke="#666666" stroke-width="2" marker-end="url(#arrowhead)"/>
  <line x1="1862" y1="1287" x2="2382" y2="1407" stroke="#666666" stroke-width="2" marker-end="url(#arrowhead)"/>
  <line x1="1862" y1="1287" x2="2132" y2="1417" stroke="#666666" stroke-width="2" marker-end="url(#arrowhead)"/>
  <line x1="1332" y1="481.5" x2="832" y2="630" stroke="#666666" stroke-width="2" marker-end="url(#arrowhead)"/>
  <line x1="1332" y1="481.5" x2="1082" y2="640" stroke="#666666" stroke-width="2" marker-end="url(#arrowhead)"/>
  <line x1="1332" y1="481.5" x2="1332" y2="690" stroke="#666666" stroke-width="2" marker-end="url(#arrowhead)"/>
  <line x1="1332" y1="481.5" x2="1582" y2="640" stroke="#666666" stroke-width="2" marker-end="url(#arrowhead)"/>
  <line x1="1332" y1="481.5" x2="1832" y2="630" stroke="#666666" stroke-width="2" marker-end="url(#arrowhead)"/>
  <line x1="2752" y1="62" x2="2752" y2="242" stroke="#666666" stroke-width="2" marker-end="url(#arrowhead)"/>
  <line x1="2532" y1="62" x2="2532" y2="242" stroke="#666666" stroke-width="2" marker-end="url(#arrowhead)"/>
  <defs>
    <marker id="arrowhead" markerWidth="10" markerHeight="10" refX="10" refY="3" orient="auto">
      <polygon points="0 0, 10 3, 0 6" fill="#666666"/>
    </marker>
  </defs>
  <rect x="65" y="403" width="200" height="303" fill="#e1f5fe" stroke="#01579b" stroke-width="2" rx="5"/>
  <text x="165" y="421" font-size="12" font-weight="bold" fill="#333333" text-anchor="middle">CacheManager</text>
  <line x1="70" y1="438" x2="260" y2="438" stroke="#01579b" stroke-width="1"/>
  <text x="73" y="441" font-size="10" fill="#666666">+ cacheDir: string</text>
  <text x="73" y="457" font-size="10" fill="#666666">- stats: any</text>
  <text x="73" y="473" font-size="10" fill="#666666">- defaultTTL: number</text>
  <line x1="70" y1="489" x2="260" y2="489" stroke="#01579b" stroke-width="1"/>
  <text x="73" y="492" font-size="10" fill="#666666">+ computeFileHash(filePath: stri...</text>
  <text x="73" y="508" font-size="10" fill="#666666">+ get(filePath: string, hash: st...</text>
  <text x="73" y="524" font-size="10" fill="#666666">+ set(filePath: string, hash: st...</text>
  <text x="73" y="540" font-size="10" fill="#666666">+ clear(): Promise</text>
  <text x="73" y="556" font-size="10" fill="#666666">+ getStats(): any</text>
  <text x="73" y="572" font-size="10" fill="#666666">+ getCacheSize(): Promise</text>
  <text x="73" y="588" font-size="10" fill="#666666">- getAllCacheFiles(): Promise</text>
  <text x="73" y="604" font-size="10" fill="#666666">- getCacheKey(filePath: string, ...</text>
  <text x="73" y="620" font-size="10" fill="#666666">- getCachePath(cacheKey: string)...</text>
  <text x="73" y="636" font-size="10" fill="#666666">- updateHitRate()</text>
  <text x="73" y="652" font-size="10" fill="#666666">+ setDefaultTTL(ttl: number)</text>
  <text x="73" y="668" font-size="10" fill="#666666">+ getDefaultTTL(): number</text>
  <text x="73" y="684" font-size="10" fill="#666666">+ constructor(cacheDir?: string)</text>
  <rect x="1772" y="12" width="200" height="110" fill="#e1f5fe" stroke="#01579b" stroke-width="2" rx="5"/>
  <text x="1872" y="30" font-size="12" font-weight="bold" fill="#333333" text-anchor="middle">CacheStats</text>
  <line x1="1777" y1="47" x2="1967" y2="47" stroke="#01579b" stroke-width="1"/>
  <text x="1780" y="50" font-size="10" fill="#666666">+ hits: number</text>
  <text x="1780" y="66" font-size="10" fill="#666666">+ misses: number</text>
  <text x="1780" y="82" font-size="10" fill="#666666">+ hitRate: number</text>
  <text x="1780" y="98" font-size="10" fill="#666666">+ totalSize: number</text>
  <rect x="12" y="12" width="200" height="100" fill="#e1f5fe" stroke="#01579b" stroke-width="2" rx="5"/>
  <text x="112" y="30" font-size="12" font-weight="bold" fill="#333333" text-anchor="middle">CacheOptions</text>
  <rect x="232" y="12" width="200" height="100" fill="#e1f5fe" stroke="#01579b" stroke-width="2" rx="5"/>
  <text x="332" y="30" font-size="12" font-weight="bold" fill="#333333" text-anchor="middle">CacheEntry</text>
  <line x1="237" y1="47" x2="427" y2="47" stroke="#01579b" stroke-width="1"/>
  <text x="240" y="50" font-size="10" fill="#666666">+ data: T</text>
  <text x="240" y="66" font-size="10" fill="#666666">+ timestamp: number</text>
  <text x="240" y="82" font-size="10" fill="#666666">+ ttl: number</text>
  <rect x="2688" y="403" width="200" height="173" fill="#e1f5fe" stroke="#01579b" stroke-width="2" rx="5"/>
  <text x="2788" y="421" font-size="12" font-weight="bold" fill="#333333" text-anchor="middle">ErrorHandler</text>
  <line x1="2693" y1="438" x2="2883" y2="438" stroke="#01579b" stroke-width="1"/>
  <text x="2696" y="441" font-size="10" fill="#666666">+ format(error: unknown, options...</text>
  <text x="2696" y="457" font-size="10" fill="#666666">- formatParseError(error: ParseE...</text>
  <text x="2696" y="473" font-size="10" fill="#666666">- formatAPIError(error: APIError...</text>
  <text x="2696" y="489" font-size="10" fill="#666666">- formatValidationError(error: V...</text>
  <text x="2696" y="505" font-size="10" fill="#666666">- formatFileError(error: FileErr...</text>
  <text x="2696" y="521" font-size="10" fill="#666666">- formatGenericError(error: Erro...</text>
  <text x="2696" y="537" font-size="10" fill="#666666">- formatStringError(error: strin...</text>
  <text x="2696" y="553" font-size="10" fill="#666666">- formatUnknownError(useColor: b...</text>
  <rect x="452" y="12" width="200" height="100" fill="#e1f5fe" stroke="#01579b" stroke-width="2" rx="5"/>
  <text x="552" y="30" font-size="12" font-weight="bold" fill="#333333" text-anchor="middle">ErrorFormatOptions</text>
  <rect x="1512" y="1207" width="200" height="287" fill="#e1f5fe" stroke="#01579b" stroke-width="2" rx="5"/>
  <text x="1612" y="1225" font-size="12" font-weight="bold" fill="#333333" text-anchor="middle">ProgressReporter</text>
  <line x1="1517" y1="1242" x2="1707" y2="1242" stroke="#01579b" stroke-width="1"/>
  <text x="1520" y="1245" font-size="10" fill="#666666">- spinner: Ora</text>
  <text x="1520" y="1261" font-size="10" fill="#666666">- stages: any</text>
  <text x="1520" y="1277" font-size="10" fill="#666666">- currentStage: any</text>
  <line x1="1517" y1="1293" x2="1707" y2="1293" stroke="#01579b" stroke-width="1"/>
  <text x="1520" y="1296" font-size="10" fill="#666666">+ start(message: string)</text>
  <text x="1520" y="1312" font-size="10" fill="#666666">+ update(completed: number, tota...</text>
  <text x="1520" y="1328" font-size="10" fill="#666666">+ succeed(message: string)</text>
  <text x="1520" y="1344" font-size="10" fill="#666666">+ fail(message: string)</text>
  <text x="1520" y="1360" font-size="10" fill="#666666">+ warn(message: string)</text>
  <text x="1520" y="1376" font-size="10" fill="#666666">+ info(message: string)</text>
  <text x="1520" y="1392" font-size="10" fill="#666666">+ getStages(): any</text>
  <text x="1520" y="1408" font-size="10" fill="#666666">+ getCurrentStage(): any</text>
  <text x="1520" y="1424" font-size="10" fill="#666666">+ getSummary(): any</text>
  <text x="1520" y="1440" font-size="10" fill="#666666">+ printSummary()</text>
  <text x="1520" y="1456" font-size="10" fill="#666666">+ stop()</text>
  <text x="1520" y="1472" font-size="10" fill="#666666">+ constructor()</text>
  <rect x="672" y="12" width="200" height="100" fill="#e1f5fe" stroke="#01579b" stroke-width="2" rx="5"/>
  <text x="772" y="30" font-size="12" font-weight="bold" fill="#333333" text-anchor="middle">Stage</text>
  <line x1="677" y1="47" x2="867" y2="47" stroke="#01579b" stroke-width="1"/>
  <text x="680" y="50" font-size="10" fill="#666666">+ name: string</text>
  <text x="680" y="66" font-size="10" fill="#666666">+ status: any</text>
  <rect x="1992" y="12" width="200" height="126" fill="#e1f5fe" stroke="#01579b" stroke-width="2" rx="5"/>
  <text x="2092" y="30" font-size="12" font-weight="bold" fill="#333333" text-anchor="middle">ProgressSummary</text>
  <line x1="1997" y1="47" x2="2187" y2="47" stroke="#01579b" stroke-width="1"/>
  <text x="2000" y="50" font-size="10" fill="#666666">+ totalDuration: number</text>
  <text x="2000" y="66" font-size="10" fill="#666666">+ totalDurationFormatted: string</text>
  <text x="2000" y="82" font-size="10" fill="#666666">+ successCount: number</text>
  <text x="2000" y="98" font-size="10" fill="#666666">+ failureCount: number</text>
  <text x="2000" y="114" font-size="10" fill="#666666">+ warningCount: number</text>
  <rect x="2202" y="716" width="200" height="100" fill="#e1f5fe" stroke="#01579b" stroke-width="2" rx="5"/>
  <text x="2302" y="734" font-size="12" font-weight="bold" fill="#333333" text-anchor="middle">ParseError</text>
  <line x1="2207" y1="751" x2="2397" y2="751" stroke="#01579b" stroke-width="1"/>
  <text x="2210" y="754" font-size="10" fill="#666666">+ constructor(message: string, f...</text>
  <rect x="2452" y="706" width="200" height="100" fill="#e1f5fe" stroke="#01579b" stroke-width="2" rx="5"/>
  <text x="2552" y="724" font-size="12" font-weight="bold" fill="#333333" text-anchor="middle">APIError</text>
  <line x1="2457" y1="741" x2="2647" y2="741" stroke="#01579b" stroke-width="1"/>
  <text x="2460" y="744" font-size="10" fill="#666666">+ constructor(message: string, s...</text>
  <rect x="2702" y="656" width="200" height="100" fill="#e1f5fe" stroke="#01579b" stroke-width="2" rx="5"/>
  <text x="2802" y="674" font-size="12" font-weight="bold" fill="#333333" text-anchor="middle">ValidationError</text>
  <line x1="2707" y1="691" x2="2897" y2="691" stroke="#01579b" stroke-width="1"/>
  <text x="2710" y="694" font-size="10" fill="#666666">+ constructor(message: string, s...</text>
  <rect x="2923" y="606" width="200" height="100" fill="#e1f5fe" stroke="#01579b" stroke-width="2" rx="5"/>
  <text x="3023" y="624" font-size="12" font-weight="bold" fill="#333333" text-anchor="middle">FileError</text>
  <line x1="2928" y1="641" x2="3118" y2="641" stroke="#01579b" stroke-width="1"/>
  <text x="2931" y="644" font-size="10" fill="#666666">+ constructor(message: string, f...</text>
  <rect x="3122" y="12" width="200" height="191" fill="#e1f5fe" stroke="#01579b" stroke-width="2" rx="5"/>
  <text x="3222" y="30" font-size="12" font-weight="bold" fill="#333333" text-anchor="middle">ConfigLoader</text>
  <line x1="3127" y1="47" x2="3317" y2="47" stroke="#01579b" stroke-width="1"/>
  <text x="3130" y="50" font-size="10" fill="#666666">- configDir: string</text>
  <line x1="3127" y1="66" x2="3317" y2="66" stroke="#01579b" stroke-width="1"/>
  <text x="3130" y="69" font-size="10" fill="#666666">+ load(cliOptions?: z.infer~any,...</text>
  <text x="3130" y="85" font-size="10" fill="#666666">- normalizeConfig(config: FileCo...</text>
  <text x="3130" y="101" font-size="10" fill="#666666">- deepMerge(target: FileConfig, ...</text>
  <text x="3130" y="117" font-size="10" fill="#666666">- isObject(item: unknown): boolean</text>
  <text x="3130" y="133" font-size="10" fill="#666666">- loadFromFile(configPath?: stri...</text>
  <text x="3130" y="149" font-size="10" fill="#666666">+ init(options?: object): Promise</text>
  <text x="3130" y="165" font-size="10" fill="#666666">+ getConfigPath(): Promise</text>
  <text x="3130" y="181" font-size="10" fill="#666666">+ constructor(configDir?: string)</text>
  <rect x="3122" y="283" width="200" height="100" fill="#e1f5fe" stroke="#01579b" stroke-width="2" rx="5"/>
  <text x="3222" y="301" font-size="12" font-weight="bold" fill="#333333" text-anchor="middle">FileConfig</text>
  <rect x="892" y="12" width="200" height="100" fill="#e1f5fe" stroke="#01579b" stroke-width="2" rx="5"/>
  <text x="992" y="30" font-size="12" font-weight="bold" fill="#333333" text-anchor="middle">CLIConfig</text>
  <line x1="897" y1="47" x2="1087" y2="47" stroke="#01579b" stroke-width="1"/>
  <text x="900" y="50" font-size="10" fill="#666666">+ command: string</text>
  <text x="900" y="66" font-size="10" fill="#666666">+ args: Array</text>
  <text x="900" y="82" font-size="10" fill="#666666">+ timeout: number</text>
  <rect x="2212" y="12" width="200" height="142" fill="#e1f5fe" stroke="#01579b" stroke-width="2" rx="5"/>
  <text x="2312" y="30" font-size="12" font-weight="bold" fill="#333333" text-anchor="middle">Config</text>
  <line x1="2217" y1="47" x2="2407" y2="47" stroke="#01579b" stroke-width="1"/>
  <text x="2220" y="50" font-size="10" fill="#666666">+ source: any</text>
  <text x="2220" y="66" font-size="10" fill="#666666">+ outputDir: string</text>
  <text x="2220" y="82" font-size="10" fill="#666666">+ format: any</text>
  <text x="2220" y="98" font-size="10" fill="#666666">+ exclude: Array</text>
  <text x="2220" y="114" font-size="10" fill="#666666">+ cli: any</text>
  <text x="2220" y="130" font-size="10" fill="#666666">+ cache: object</text>
  <rect x="1112" y="12" width="200" height="100" fill="#e1f5fe" stroke="#01579b" stroke-width="2" rx="5"/>
  <text x="1212" y="30" font-size="12" font-weight="bold" fill="#333333" text-anchor="middle">AnalyzeOptions</text>
  <line x1="1117" y1="47" x2="1307" y2="47" stroke="#01579b" stroke-width="1"/>
  <text x="1120" y="50" font-size="10" fill="#666666">+ source: any</text>
  <text x="1120" y="66" font-size="10" fill="#666666">+ format: any</text>
  <text x="1120" y="82" font-size="10" fill="#666666">+ cache: boolean</text>
  <rect x="1020" y="956" width="200" height="191" fill="#e1f5fe" stroke="#01579b" stroke-width="2" rx="5"/>
  <text x="1120" y="974" font-size="12" font-weight="bold" fill="#333333" text-anchor="middle">DiagramProcessor</text>
  <line x1="1025" y1="991" x2="1215" y2="991" stroke="#01579b" stroke-width="1"/>
  <text x="1028" y="994" font-size="10" fill="#666666">- diagrams: Array</text>
  <text x="1028" y="1010" font-size="10" fill="#666666">- globalConfig: GlobalConfig</text>
  <text x="1028" y="1026" font-size="10" fill="#666666">- progress: ProgressReporter</text>
  <text x="1028" y="1042" font-size="10" fill="#666666">- fileDiscovery: FileDiscoveryService</text>
  <text x="1028" y="1058" font-size="10" fill="#666666">- aggregator: ArchJSONAggregator</text>
  <line x1="1025" y1="1074" x2="1215" y2="1074" stroke="#01579b" stroke-width="1"/>
  <text x="1028" y="1077" font-size="10" fill="#666666">+ processAll(): Promise</text>
  <text x="1028" y="1093" font-size="10" fill="#666666">- processDiagram(diagram: Diagra...</text>
  <text x="1028" y="1109" font-size="10" fill="#666666">- generateOutput(archJSON: ArchJ...</text>
  <text x="1028" y="1125" font-size="10" fill="#666666">+ constructor(options: any)</text>
  <rect x="1332" y="12" width="200" height="100" fill="#e1f5fe" stroke="#01579b" stroke-width="2" rx="5"/>
  <text x="1432" y="30" font-size="12" font-weight="bold" fill="#333333" text-anchor="middle">DiagramProcessorOptions</text>
  <line x1="1337" y1="47" x2="1527" y2="47" stroke="#01579b" stroke-width="1"/>
  <text x="1340" y="50" font-size="10" fill="#666666">+ diagrams: Array</text>
  <text x="1340" y="66" font-size="10" fill="#666666">+ globalConfig: GlobalConfig</text>
  <text x="1340" y="82" font-size="10" fill="#666666">+ progress: ProgressReporter</text>
  <rect x="2762" y="1177" width="200" height="100" fill="#e1f5fe" stroke="#01579b" stroke-width="2" rx="5"/>
  <text x="2862" y="1195" font-size="12" font-weight="bold" fill="#333333" text-anchor="middle">DiagramResult</text>
  <line x1="2767" y1="1212" x2="2957" y2="1212" stroke="#01579b" stroke-width="1"/>
  <text x="2770" y="1215" font-size="10" fill="#666666">+ name: string</text>
  <text x="2770" y="1231" font-size="10" fill="#666666">+ success: boolean</text>
  <rect x="2578" y="956" width="200" height="141" fill="#e1f5fe" stroke="#01579b" stroke-width="2" rx="5"/>
  <text x="2678" y="974" font-size="12" font-weight="bold" fill="#333333" text-anchor="middle">DiagramIndexGenerator</text>
  <line x1="2583" y1="991" x2="2773" y2="991" stroke="#01579b" stroke-width="1"/>
  <text x="2586" y="994" font-size="10" fill="#666666">+ generate(results: Array): Promise</text>
  <text x="2586" y="1010" font-size="10" fill="#666666">- buildIndexContent(results: Arr...</text>
  <text x="2586" y="1026" font-size="10" fill="#666666">- buildDiagramSection(result: Di...</text>
  <text x="2586" y="1042" font-size="10" fill="#666666">- buildSummarySection(successful...</text>
  <text x="2586" y="1058" font-size="10" fill="#666666">- buildFailedSection(failed: Arr...</text>
  <text x="2586" y="1074" font-size="10" fill="#666666">+ constructor(globalConfig: Glob...</text>
  <rect x="1762" y="1237" width="200" height="100" fill="#e1f5fe" stroke="#01579b" stroke-width="2" rx="5"/>
  <text x="1862" y="1255" font-size="12" font-weight="bold" fill="#333333" text-anchor="middle">FileDiscoveryService</text>
  <line x1="1767" y1="1272" x2="1957" y2="1272" stroke="#01579b" stroke-width="1"/>
  <text x="1770" y="1275" font-size="10" fill="#666666">+ discoverFiles(options?: any): ...</text>
  <text x="1770" y="1291" font-size="10" fill="#666666">- discoverFromGlob(options: obje...</text>
  <rect x="1552" y="12" width="200" height="100" fill="#e1f5fe" stroke="#01579b" stroke-width="2" rx="5"/>
  <text x="1652" y="30" font-size="12" font-weight="bold" fill="#333333" text-anchor="middle">FileDiscoveryOptions</text>
  <rect x="1232" y="403" width="200" height="157" fill="#e1f5fe" stroke="#01579b" stroke-width="2" rx="5"/>
  <text x="1332" y="421" font-size="12" font-weight="bold" fill="#333333" text-anchor="middle">OutputPathResolver</text>
  <line x1="1237" y1="438" x2="1427" y2="438" stroke="#01579b" stroke-width="1"/>
  <text x="1240" y="441" font-size="10" fill="#666666">+ resolve(options?: any): any</text>
  <text x="1240" y="457" font-size="10" fill="#666666">+ ensureDirectory(options?: any)...</text>
  <text x="1240" y="473" font-size="10" fill="#666666">- buildPathResolution(outputDir:...</text>
  <text x="1240" y="489" font-size="10" fill="#666666">- parseCustomName(customName: st...</text>
  <text x="1240" y="505" font-size="10" fill="#666666">- determineBasePath(options: any...</text>
  <text x="1240" y="521" font-size="10" fill="#666666">- parseBasePath(basePath: string...</text>
  <text x="1240" y="537" font-size="10" fill="#666666">+ constructor(config: object)</text>
  <rect x="2432" y="192" width="200" height="100" fill="#e1f5fe" stroke="#01579b" stroke-width="2" rx="5"/>
  <text x="2532" y="210" font-size="12" font-weight="bold" fill="#333333" text-anchor="middle">PathResolution</text>
  <line x1="2437" y1="227" x2="2627" y2="227" stroke="#01579b" stroke-width="1"/>
  <text x="2440" y="230" font-size="10" fill="#666666">+ outputDir: string</text>
  <text x="2440" y="246" font-size="10" fill="#666666">+ baseName: string</text>
  <text x="2440" y="262" font-size="10" fill="#666666">+ paths: object</text>
  <rect x="2652" y="192" width="200" height="100" fill="#e1f5fe" stroke="#01579b" stroke-width="2" rx="5"/>
  <text x="2752" y="210" font-size="12" font-weight="bold" fill="#333333" text-anchor="middle">ResolveOptions</text>
  <rect x="2652" y="12" width="200" height="100" fill="#e1f5fe" stroke="#01579b" stroke-width="2" rx="5"/>
  <text x="2752" y="30" font-size="12" font-weight="bold" fill="#333333" text-anchor="middle">OutputPathOptions</text>
  <rect x="2432" y="12" width="200" height="100" fill="#e1f5fe" stroke="#01579b" stroke-width="2" rx="5"/>
  <text x="2532" y="30" font-size="12" font-weight="bold" fill="#333333" text-anchor="middle">ResolvedPaths</text>
  <line x1="2437" y1="47" x2="2627" y2="47" stroke="#01579b" stroke-width="1"/>
  <text x="2440" y="50" font-size="10" fill="#666666">+ dir: string</text>
  <rect x="12" y="786" width="200" height="100" fill="#e1f5fe" stroke="#01579b" stroke-width="2" rx="5"/>
  <text x="112" y="804" font-size="12" font-weight="bold" fill="#333333" text-anchor="middle">import___home_yale_work_archguard_src_cli_cache_manager___CacheStats</text>
  <rect x="262" y="786" width="200" height="100" fill="#e1f5fe" stroke="#01579b" stroke-width="2" rx="5"/>
  <text x="362" y="804" font-size="12" font-weight="bold" fill="#333333" text-anchor="middle">T</text>
  <rect x="512" y="726" width="200" height="100" fill="#e1f5fe" stroke="#01579b" stroke-width="2" rx="5"/>
  <text x="612" y="744" font-size="12" font-weight="bold" fill="#333333" text-anchor="middle">import___home_yale_work_archguard_src_cli_cache_manager___CacheOptions</text>
  <rect x="2872" y="223" width="200" height="100" fill="#e1f5fe" stroke="#01579b" stroke-width="2" rx="5"/>
  <text x="2972" y="241" font-size="12" font-weight="bold" fill="#333333" text-anchor="middle">z_infer</text>
  <rect x="3372" y="223" width="200" height="100" fill="#e1f5fe" stroke="#01579b" stroke-width="2" rx="5"/>
  <text x="3472" y="241" font-size="12" font-weight="bold" fill="#333333" text-anchor="middle">__format____json_</text>
  <rect x="1952" y="596" width="200" height="100" fill="#e1f5fe" stroke="#01579b" stroke-width="2" rx="5"/>
  <text x="2052" y="614" font-size="12" font-weight="bold" fill="#333333" text-anchor="middle">import___home_yale_work_archguard_src_cli_error_handler___ErrorFormatOptions</text>
  <rect x="2702" y="836" width="200" height="100" fill="#e1f5fe" stroke="#01579b" stroke-width="2" rx="5"/>
  <text x="2802" y="854" font-size="12" font-weight="bold" fill="#333333" text-anchor="middle">Error</text>
  <rect x="2956" y="786" width="200" height="100" fill="#e1f5fe" stroke="#01579b" stroke-width="2" rx="5"/>
  <text x="3056" y="804" font-size="12" font-weight="bold" fill="#333333" text-anchor="middle">_read_</text>
  <rect x="1782" y="1514" width="200" height="100" fill="#e1f5fe" stroke="#01579b" stroke-width="2" rx="5"/>
  <text x="1882" y="1532" font-size="12" font-weight="bold" fill="#333333" text-anchor="middle">Ora</text>
  <rect x="1282" y="1524" width="200" height="100" fill="#e1f5fe" stroke="#01579b" stroke-width="2" rx="5"/>
  <text x="1382" y="1542" font-size="12" font-weight="bold" fill="#333333" text-anchor="middle">import___home_yale_work_archguard_src_cli_progress___Stage</text>
  <rect x="1532" y="1574" width="200" height="100" fill="#e1f5fe" stroke="#01579b" stroke-width="2" rx="5"/>
  <text x="1632" y="1592" font-size="12" font-weight="bold" fill="#333333" text-anchor="middle">import___home_yale_work_archguard_src_cli_progress___ProgressSummary</text>
  <rect x="762" y="1207" width="200" height="100" fill="#e1f5fe" stroke="#01579b" stroke-width="2" rx="5"/>
  <text x="862" y="1225" font-size="12" font-weight="bold" fill="#333333" text-anchor="middle">DiagramConfig</text>
  <rect x="2512" y="1177" width="200" height="100" fill="#e1f5fe" stroke="#01579b" stroke-width="2" rx="5"/>
  <text x="2612" y="1195" font-size="12" font-weight="bold" fill="#333333" text-anchor="middle">GlobalConfig</text>
  <rect x="12" y="1167" width="200" height="100" fill="#e1f5fe" stroke="#01579b" stroke-width="2" rx="5"/>
  <text x="112" y="1185" font-size="12" font-weight="bold" fill="#333333" text-anchor="middle">ArchJSONAggregator</text>
  <rect x="1012" y="1227" width="200" height="100" fill="#e1f5fe" stroke="#01579b" stroke-width="2" rx="5"/>
  <text x="1112" y="1245" font-size="12" font-weight="bold" fill="#333333" text-anchor="middle">import___home_yale_work_archguard_src_cli_processors_diagram_processor___DiagramProcessorOptions</text>
  <rect x="262" y="1177" width="200" height="100" fill="#e1f5fe" stroke="#01579b" stroke-width="2" rx="5"/>
  <text x="362" y="1195" font-size="12" font-weight="bold" fill="#333333" text-anchor="middle">import___home_yale_work_archguard_src_cli_processors_diagram_processor___DiagramResult</text>
  <rect x="512" y="1187" width="200" height="100" fill="#e1f5fe" stroke="#01579b" stroke-width="2" rx="5"/>
  <text x="612" y="1205" font-size="12" font-weight="bold" fill="#333333" text-anchor="middle">ArchJSON</text>
  <rect x="1262" y="1344" width="200" height="100" fill="#e1f5fe" stroke="#01579b" stroke-width="2" rx="5"/>
  <text x="1362" y="1362" font-size="12" font-weight="bold" fill="#333333" text-anchor="middle">__paths____json__string__mmd__string__png__string__svg__string______</text>
  <rect x="2262" y="1177" width="200" height="100" fill="#e1f5fe" stroke="#01579b" stroke-width="2" rx="5"/>
  <text x="2362" y="1195" font-size="12" font-weight="bold" fill="#333333" text-anchor="middle">OutputFormat</text>
  <rect x="2012" y="1187" width="200" height="100" fill="#e1f5fe" stroke="#01579b" stroke-width="2" rx="5"/>
  <text x="2112" y="1205" font-size="12" font-weight="bold" fill="#333333" text-anchor="middle">DetailLevel</text>
  <rect x="2282" y="1357" width="200" height="100" fill="#e1f5fe" stroke="#01579b" stroke-width="2" rx="5"/>
  <text x="2382" y="1375" font-size="12" font-weight="bold" fill="#333333" text-anchor="middle">import___home_yale_work_archguard_src_cli_utils_file_discovery_service___FileDiscoveryOptions</text>
  <rect x="2032" y="1367" width="200" height="100" fill="#e1f5fe" stroke="#01579b" stroke-width="2" rx="5"/>
  <text x="2132" y="1385" font-size="12" font-weight="bold" fill="#333333" text-anchor="middle">__source__string__exclude__string____skipMissing__boolean___</text>
  <rect x="732" y="580" width="200" height="100" fill="#e1f5fe" stroke="#01579b" stroke-width="2" rx="5"/>
  <text x="832" y="598" font-size="12" font-weight="bold" fill="#333333" text-anchor="middle">__outputDir__string__output___string___</text>
  <rect x="982" y="590" width="200" height="100" fill="#e1f5fe" stroke="#01579b" stroke-width="2" rx="5"/>
  <text x="1082" y="608" font-size="12" font-weight="bold" fill="#333333" text-anchor="middle">import___home_yale_work_archguard_src_cli_utils_output_path_resolver___PathResolution</text>
  <rect x="1232" y="640" width="200" height="100" fill="#e1f5fe" stroke="#01579b" stroke-width="2" rx="5"/>
  <text x="1332" y="658" font-size="12" font-weight="bold" fill="#333333" text-anchor="middle">import___home_yale_work_archguard_src_cli_utils_output_path_resolver___ResolveOptions</text>
  <rect x="1482" y="590" width="200" height="100" fill="#e1f5fe" stroke="#01579b" stroke-width="2" rx="5"/>
  <text x="1582" y="608" font-size="12" font-weight="bold" fill="#333333" text-anchor="middle">__outputDir__string__fileName__string___</text>
  <rect x="1732" y="580" width="200" height="100" fill="#e1f5fe" stroke="#01579b" stroke-width="2" rx="5"/>
  <text x="1832" y="598" font-size="12" font-weight="bold" fill="#333333" text-anchor="middle">__dir__string__baseName__string___</text>
</svg>