<svg xmlns="http://www.w3.org/2000/svg" width="370" height="8240" viewBox="0 0 370 8240">
  <rect width="100%" height="100%" fill="#ffffff"/>
  <line x1="95" y1="171.5" x2="95" y2="4270" stroke="#666666" stroke-width="2" marker-end="url(#arrowhead)"/>
  <line x1="95" y1="171.5" x2="95" y2="4420" stroke="#666666" stroke-width="2" marker-end="url(#arrowhead)"/>
  <line x1="95" y1="171.5" x2="95" y2="4570" stroke="#666666" stroke-width="2" marker-end="url(#arrowhead)"/>
  <line x1="95" y1="171.5" x2="95" y2="4270" stroke="#666666" stroke-width="2" marker-end="url(#arrowhead)"/>
  <line x1="95" y1="1915.5" x2="95" y2="4720" stroke="#666666" stroke-width="2" marker-end="url(#arrowhead)"/>
  <line x1="95" y1="1915.5" x2="95" y2="2020" stroke="#666666" stroke-width="2" marker-end="url(#arrowhead)"/>
  <line x1="95" y1="1915.5" x2="95" y2="4870" stroke="#666666" stroke-width="2" marker-end="url(#arrowhead)"/>
  <line x1="95" y1="556.5" x2="95" y2="5020" stroke="#666666" stroke-width="2" marker-end="url(#arrowhead)"/>
  <line x1="95" y1="556.5" x2="95" y2="1270" stroke="#666666" stroke-width="2" marker-end="url(#arrowhead)"/>
  <line x1="95" y1="556.5" x2="95" y2="1420" stroke="#666666" stroke-width="2" marker-end="url(#arrowhead)"/>
  <line x1="95" y1="556.5" x2="95" y2="1570" stroke="#666666" stroke-width="2" marker-end="url(#arrowhead)"/>
  <line x1="95" y1="556.5" x2="95" y2="1720" stroke="#666666" stroke-width="2" marker-end="url(#arrowhead)"/>
  <line x1="95" y1="556.5" x2="95" y2="5170" stroke="#666666" stroke-width="2" marker-end="url(#arrowhead)"/>
  <line x1="95" y1="1270" x2="95" y2="5170" stroke="#666666" stroke-width="2" marker-end="url(#arrowhead)"/>
  <line x1="95" y1="1420" x2="95" y2="5170" stroke="#666666" stroke-width="2" marker-end="url(#arrowhead)"/>
  <line x1="95" y1="1570" x2="95" y2="5170" stroke="#666666" stroke-width="2" marker-end="url(#arrowhead)"/>
  <line x1="95" y1="1720" x2="95" y2="5170" stroke="#666666" stroke-width="2" marker-end="url(#arrowhead)"/>
  <line x1="95" y1="1720" x2="95" y2="5320" stroke="#666666" stroke-width="2" marker-end="url(#arrowhead)"/>
  <line x1="95" y1="913.5" x2="95" y2="5470" stroke="#666666" stroke-width="2" marker-end="url(#arrowhead)"/>
  <line x1="95" y1="913.5" x2="95" y2="5620" stroke="#666666" stroke-width="2" marker-end="url(#arrowhead)"/>
  <line x1="95" y1="913.5" x2="95" y2="5620" stroke="#666666" stroke-width="2" marker-end="url(#arrowhead)"/>
  <line x1="95" y1="913.5" x2="95" y2="5770" stroke="#666666" stroke-width="2" marker-end="url(#arrowhead)"/>
  <line x1="95" y1="2665.5" x2="95" y2="5920" stroke="#666666" stroke-width="2" marker-end="url(#arrowhead)"/>
  <line x1="95" y1="2665.5" x2="95" y2="6070" stroke="#666666" stroke-width="2" marker-end="url(#arrowhead)"/>
  <line x1="95" y1="2665.5" x2="95" y2="913.5" stroke="#666666" stroke-width="2" marker-end="url(#arrowhead)"/>
  <line x1="95" y1="2665.5" x2="95" y2="3220" stroke="#666666" stroke-width="2" marker-end="url(#arrowhead)"/>
  <line x1="95" y1="2665.5" x2="95" y2="6220" stroke="#666666" stroke-width="2" marker-end="url(#arrowhead)"/>
  <line x1="95" y1="2665.5" x2="95" y2="6370" stroke="#666666" stroke-width="2" marker-end="url(#arrowhead)"/>
  <line x1="95" y1="2665.5" x2="95" y2="6520" stroke="#666666" stroke-width="2" marker-end="url(#arrowhead)"/>
  <line x1="95" y1="2665.5" x2="95" y2="5920" stroke="#666666" stroke-width="2" marker-end="url(#arrowhead)"/>
  <line x1="95" y1="2665.5" x2="95" y2="6670" stroke="#666666" stroke-width="2" marker-end="url(#arrowhead)"/>
  <line x1="95" y1="2665.5" x2="95" y2="6820" stroke="#666666" stroke-width="2" marker-end="url(#arrowhead)"/>
  <line x1="95" y1="2665.5" x2="95" y2="6970" stroke="#666666" stroke-width="2" marker-end="url(#arrowhead)"/>
  <line x1="95" y1="2665.5" x2="95" y2="7120" stroke="#666666" stroke-width="2" marker-end="url(#arrowhead)"/>
  <line x1="95" y1="3090.5" x2="95" y2="6070" stroke="#666666" stroke-width="2" marker-end="url(#arrowhead)"/>
  <line x1="95" y1="3090.5" x2="95" y2="2920" stroke="#666666" stroke-width="2" marker-end="url(#arrowhead)"/>
  <line x1="95" y1="3220" x2="95" y2="7270" stroke="#666666" stroke-width="2" marker-end="url(#arrowhead)"/>
  <line x1="95" y1="3220" x2="95" y2="7420" stroke="#666666" stroke-width="2" marker-end="url(#arrowhead)"/>
  <line x1="95" y1="3548.5" x2="95" y2="7570" stroke="#666666" stroke-width="2" marker-end="url(#arrowhead)"/>
  <line x1="95" y1="3548.5" x2="95" y2="7720" stroke="#666666" stroke-width="2" marker-end="url(#arrowhead)"/>
  <line x1="95" y1="3548.5" x2="95" y2="7870" stroke="#666666" stroke-width="2" marker-end="url(#arrowhead)"/>
  <line x1="95" y1="3548.5" x2="95" y2="8020" stroke="#666666" stroke-width="2" marker-end="url(#arrowhead)"/>
  <line x1="95" y1="3548.5" x2="95" y2="8170" stroke="#666666" stroke-width="2" marker-end="url(#arrowhead)"/>
  <line x1="95" y1="3970" x2="95" y2="3820" stroke="#666666" stroke-width="2" marker-end="url(#arrowhead)"/>
  <line x1="95" y1="4120" x2="95" y2="3670" stroke="#666666" stroke-width="2" marker-end="url(#arrowhead)"/>
  <defs>
    <marker id="arrowhead" markerWidth="10" markerHeight="10" refX="10" refY="3" orient="auto">
      <polygon points="0 0, 10 3, 0 6" fill="#666666"/>
    </marker>
  </defs>
  <rect x="20" y="20" width="150" height="303" fill="#e1f5fe" stroke="#01579b" stroke-width="2" rx="5"/>
  <text x="95" y="38" font-size="12" font-weight="bold" fill="#333333" text-anchor="middle">CacheManager</text>
  <line x1="25" y1="55" x2="165" y2="55" stroke="#01579b" stroke-width="1"/>
  <text x="28" y="58" font-size="10" fill="#666666">+ cacheDir: string</text>
  <text x="28" y="74" font-size="10" fill="#666666">- stats: any</text>
  <text x="28" y="90" font-size="10" fill="#666666">- defaultTTL: number</text>
  <line x1="25" y1="106" x2="165" y2="106" stroke="#01579b" stroke-width="1"/>
  <text x="28" y="109" font-size="10" fill="#666666">+ computeFileHash(filePath: stri...</text>
  <text x="28" y="125" font-size="10" fill="#666666">+ get(filePath: string, hash: st...</text>
  <text x="28" y="141" font-size="10" fill="#666666">+ set(filePath: string, hash: st...</text>
  <text x="28" y="157" font-size="10" fill="#666666">+ clear(): Promise</text>
  <text x="28" y="173" font-size="10" fill="#666666">+ getStats(): any</text>
  <text x="28" y="189" font-size="10" fill="#666666">+ getCacheSize(): Promise</text>
  <text x="28" y="205" font-size="10" fill="#666666">- getAllCacheFiles(): Promise</text>
  <text x="28" y="221" font-size="10" fill="#666666">- getCacheKey(filePath: string, ...</text>
  <text x="28" y="237" font-size="10" fill="#666666">- getCachePath(cacheKey: string)...</text>
  <text x="28" y="253" font-size="10" fill="#666666">- updateHitRate()</text>
  <text x="28" y="269" font-size="10" fill="#666666">+ setDefaultTTL(ttl: number)</text>
  <text x="28" y="285" font-size="10" fill="#666666">+ getDefaultTTL(): number</text>
  <text x="28" y="301" font-size="10" fill="#666666">+ constructor(cacheDir?: string)</text>
  <rect x="220" y="20" width="150" height="110" fill="#e1f5fe" stroke="#01579b" stroke-width="2" rx="5"/>
  <text x="295" y="38" font-size="12" font-weight="bold" fill="#333333" text-anchor="middle">CacheStats</text>
  <line x1="225" y1="55" x2="365" y2="55" stroke="#01579b" stroke-width="1"/>
  <text x="228" y="58" font-size="10" fill="#666666">+ hits: number</text>
  <text x="228" y="74" font-size="10" fill="#666666">+ misses: number</text>
  <text x="228" y="90" font-size="10" fill="#666666">+ hitRate: number</text>
  <text x="228" y="106" font-size="10" fill="#666666">+ totalSize: number</text>
  <rect x="20" y="170" width="150" height="100" fill="#e1f5fe" stroke="#01579b" stroke-width="2" rx="5"/>
  <text x="95" y="188" font-size="12" font-weight="bold" fill="#333333" text-anchor="middle">CacheOptions</text>
  <rect x="20" y="320" width="150" height="100" fill="#e1f5fe" stroke="#01579b" stroke-width="2" rx="5"/>
  <text x="95" y="338" font-size="12" font-weight="bold" fill="#333333" text-anchor="middle">CacheEntry</text>
  <line x1="25" y1="355" x2="165" y2="355" stroke="#01579b" stroke-width="1"/>
  <text x="28" y="358" font-size="10" fill="#666666">+ data: T</text>
  <text x="28" y="374" font-size="10" fill="#666666">+ timestamp: number</text>
  <text x="28" y="390" font-size="10" fill="#666666">+ ttl: number</text>
  <rect x="20" y="470" width="150" height="173" fill="#e1f5fe" stroke="#01579b" stroke-width="2" rx="5"/>
  <text x="95" y="488" font-size="12" font-weight="bold" fill="#333333" text-anchor="middle">ErrorHandler</text>
  <line x1="25" y1="505" x2="165" y2="505" stroke="#01579b" stroke-width="1"/>
  <text x="28" y="508" font-size="10" fill="#666666">+ format(error: unknown, options...</text>
  <text x="28" y="524" font-size="10" fill="#666666">- formatParseError(error: ParseE...</text>
  <text x="28" y="540" font-size="10" fill="#666666">- formatAPIError(error: APIError...</text>
  <text x="28" y="556" font-size="10" fill="#666666">- formatValidationError(error: V...</text>
  <text x="28" y="572" font-size="10" fill="#666666">- formatFileError(error: FileErr...</text>
  <text x="28" y="588" font-size="10" fill="#666666">- formatGenericError(error: Erro...</text>
  <text x="28" y="604" font-size="10" fill="#666666">- formatStringError(error: strin...</text>
  <text x="28" y="620" font-size="10" fill="#666666">- formatUnknownError(useColor: b...</text>
  <rect x="20" y="620" width="150" height="100" fill="#e1f5fe" stroke="#01579b" stroke-width="2" rx="5"/>
  <text x="95" y="638" font-size="12" font-weight="bold" fill="#333333" text-anchor="middle">ErrorFormatOptions</text>
  <rect x="20" y="770" width="150" height="287" fill="#e1f5fe" stroke="#01579b" stroke-width="2" rx="5"/>
  <text x="95" y="788" font-size="12" font-weight="bold" fill="#333333" text-anchor="middle">ProgressReporter</text>
  <line x1="25" y1="805" x2="165" y2="805" stroke="#01579b" stroke-width="1"/>
  <text x="28" y="808" font-size="10" fill="#666666">- spinner: Ora</text>
  <text x="28" y="824" font-size="10" fill="#666666">- stages: any</text>
  <text x="28" y="840" font-size="10" fill="#666666">- currentStage: any</text>
  <line x1="25" y1="856" x2="165" y2="856" stroke="#01579b" stroke-width="1"/>
  <text x="28" y="859" font-size="10" fill="#666666">+ start(message: string)</text>
  <text x="28" y="875" font-size="10" fill="#666666">+ update(completed: number, tota...</text>
  <text x="28" y="891" font-size="10" fill="#666666">+ succeed(message: string)</text>
  <text x="28" y="907" font-size="10" fill="#666666">+ fail(message: string)</text>
  <text x="28" y="923" font-size="10" fill="#666666">+ warn(message: string)</text>
  <text x="28" y="939" font-size="10" fill="#666666">+ info(message: string)</text>
  <text x="28" y="955" font-size="10" fill="#666666">+ getStages(): any</text>
  <text x="28" y="971" font-size="10" fill="#666666">+ getCurrentStage(): any</text>
  <text x="28" y="987" font-size="10" fill="#666666">+ getSummary(): any</text>
  <text x="28" y="1003" font-size="10" fill="#666666">+ printSummary()</text>
  <text x="28" y="1019" font-size="10" fill="#666666">+ stop()</text>
  <text x="28" y="1035" font-size="10" fill="#666666">+ constructor()</text>
  <rect x="20" y="920" width="150" height="100" fill="#e1f5fe" stroke="#01579b" stroke-width="2" rx="5"/>
  <text x="95" y="938" font-size="12" font-weight="bold" fill="#333333" text-anchor="middle">Stage</text>
  <line x1="25" y1="955" x2="165" y2="955" stroke="#01579b" stroke-width="1"/>
  <text x="28" y="958" font-size="10" fill="#666666">+ name: string</text>
  <text x="28" y="974" font-size="10" fill="#666666">+ status: any</text>
  <rect x="20" y="1070" width="150" height="126" fill="#e1f5fe" stroke="#01579b" stroke-width="2" rx="5"/>
  <text x="95" y="1088" font-size="12" font-weight="bold" fill="#333333" text-anchor="middle">ProgressSummary</text>
  <line x1="25" y1="1105" x2="165" y2="1105" stroke="#01579b" stroke-width="1"/>
  <text x="28" y="1108" font-size="10" fill="#666666">+ totalDuration: number</text>
  <text x="28" y="1124" font-size="10" fill="#666666">+ totalDurationFormatted: string</text>
  <text x="28" y="1140" font-size="10" fill="#666666">+ successCount: number</text>
  <text x="28" y="1156" font-size="10" fill="#666666">+ failureCount: number</text>
  <text x="28" y="1172" font-size="10" fill="#666666">+ warningCount: number</text>
  <rect x="20" y="1220" width="150" height="100" fill="#e1f5fe" stroke="#01579b" stroke-width="2" rx="5"/>
  <text x="95" y="1238" font-size="12" font-weight="bold" fill="#333333" text-anchor="middle">ParseError</text>
  <line x1="25" y1="1255" x2="165" y2="1255" stroke="#01579b" stroke-width="1"/>
  <text x="28" y="1258" font-size="10" fill="#666666">+ constructor(message: string, f...</text>
  <rect x="20" y="1370" width="150" height="100" fill="#e1f5fe" stroke="#01579b" stroke-width="2" rx="5"/>
  <text x="95" y="1388" font-size="12" font-weight="bold" fill="#333333" text-anchor="middle">APIError</text>
  <line x1="25" y1="1405" x2="165" y2="1405" stroke="#01579b" stroke-width="1"/>
  <text x="28" y="1408" font-size="10" fill="#666666">+ constructor(message: string, s...</text>
  <rect x="20" y="1520" width="150" height="100" fill="#e1f5fe" stroke="#01579b" stroke-width="2" rx="5"/>
  <text x="95" y="1538" font-size="12" font-weight="bold" fill="#333333" text-anchor="middle">ValidationError</text>
  <line x1="25" y1="1555" x2="165" y2="1555" stroke="#01579b" stroke-width="1"/>
  <text x="28" y="1558" font-size="10" fill="#666666">+ constructor(message: string, s...</text>
  <rect x="20" y="1670" width="150" height="100" fill="#e1f5fe" stroke="#01579b" stroke-width="2" rx="5"/>
  <text x="95" y="1688" font-size="12" font-weight="bold" fill="#333333" text-anchor="middle">FileError</text>
  <line x1="25" y1="1705" x2="165" y2="1705" stroke="#01579b" stroke-width="1"/>
  <text x="28" y="1708" font-size="10" fill="#666666">+ constructor(message: string, f...</text>
  <rect x="20" y="1820" width="150" height="191" fill="#e1f5fe" stroke="#01579b" stroke-width="2" rx="5"/>
  <text x="95" y="1838" font-size="12" font-weight="bold" fill="#333333" text-anchor="middle">ConfigLoader</text>
  <line x1="25" y1="1855" x2="165" y2="1855" stroke="#01579b" stroke-width="1"/>
  <text x="28" y="1858" font-size="10" fill="#666666">- configDir: string</text>
  <line x1="25" y1="1874" x2="165" y2="1874" stroke="#01579b" stroke-width="1"/>
  <text x="28" y="1877" font-size="10" fill="#666666">+ load(cliOptions?: z.infer~any,...</text>
  <text x="28" y="1893" font-size="10" fill="#666666">- normalizeConfig(config: FileCo...</text>
  <text x="28" y="1909" font-size="10" fill="#666666">- deepMerge(target: FileConfig, ...</text>
  <text x="28" y="1925" font-size="10" fill="#666666">- isObject(item: unknown): boolean</text>
  <text x="28" y="1941" font-size="10" fill="#666666">- loadFromFile(configPath?: stri...</text>
  <text x="28" y="1957" font-size="10" fill="#666666">+ init(options?: object): Promise</text>
  <text x="28" y="1973" font-size="10" fill="#666666">+ getConfigPath(): Promise</text>
  <text x="28" y="1989" font-size="10" fill="#666666">+ constructor(configDir?: string)</text>
  <rect x="20" y="1970" width="150" height="100" fill="#e1f5fe" stroke="#01579b" stroke-width="2" rx="5"/>
  <text x="95" y="1988" font-size="12" font-weight="bold" fill="#333333" text-anchor="middle">FileConfig</text>
  <rect x="20" y="2120" width="150" height="100" fill="#e1f5fe" stroke="#01579b" stroke-width="2" rx="5"/>
  <text x="95" y="2138" font-size="12" font-weight="bold" fill="#333333" text-anchor="middle">CLIConfig</text>
  <line x1="25" y1="2155" x2="165" y2="2155" stroke="#01579b" stroke-width="1"/>
  <text x="28" y="2158" font-size="10" fill="#666666">+ command: string</text>
  <text x="28" y="2174" font-size="10" fill="#666666">+ args: Array</text>
  <text x="28" y="2190" font-size="10" fill="#666666">+ timeout: number</text>
  <rect x="20" y="2270" width="150" height="142" fill="#e1f5fe" stroke="#01579b" stroke-width="2" rx="5"/>
  <text x="95" y="2288" font-size="12" font-weight="bold" fill="#333333" text-anchor="middle">Config</text>
  <line x1="25" y1="2305" x2="165" y2="2305" stroke="#01579b" stroke-width="1"/>
  <text x="28" y="2308" font-size="10" fill="#666666">+ source: any</text>
  <text x="28" y="2324" font-size="10" fill="#666666">+ outputDir: string</text>
  <text x="28" y="2340" font-size="10" fill="#666666">+ format: any</text>
  <text x="28" y="2356" font-size="10" fill="#666666">+ exclude: Array</text>
  <text x="28" y="2372" font-size="10" fill="#666666">+ cli: any</text>
  <text x="28" y="2388" font-size="10" fill="#666666">+ cache: object</text>
  <rect x="20" y="2420" width="150" height="100" fill="#e1f5fe" stroke="#01579b" stroke-width="2" rx="5"/>
  <text x="95" y="2438" font-size="12" font-weight="bold" fill="#333333" text-anchor="middle">AnalyzeOptions</text>
  <line x1="25" y1="2455" x2="165" y2="2455" stroke="#01579b" stroke-width="1"/>
  <text x="28" y="2458" font-size="10" fill="#666666">+ source: any</text>
  <text x="28" y="2474" font-size="10" fill="#666666">+ format: any</text>
  <text x="28" y="2490" font-size="10" fill="#666666">+ cache: boolean</text>
  <rect x="20" y="2570" width="150" height="191" fill="#e1f5fe" stroke="#01579b" stroke-width="2" rx="5"/>
  <text x="95" y="2588" font-size="12" font-weight="bold" fill="#333333" text-anchor="middle">DiagramProcessor</text>
  <line x1="25" y1="2605" x2="165" y2="2605" stroke="#01579b" stroke-width="1"/>
  <text x="28" y="2608" font-size="10" fill="#666666">- diagrams: Array</text>
  <text x="28" y="2624" font-size="10" fill="#666666">- globalConfig: GlobalConfig</text>
  <text x="28" y="2640" font-size="10" fill="#666666">- progress: ProgressReporter</text>
  <text x="28" y="2656" font-size="10" fill="#666666">- fileDiscovery: FileDiscoveryService</text>
  <text x="28" y="2672" font-size="10" fill="#666666">- aggregator: ArchJSONAggregator</text>
  <line x1="25" y1="2688" x2="165" y2="2688" stroke="#01579b" stroke-width="1"/>
  <text x="28" y="2691" font-size="10" fill="#666666">+ processAll(): Promise</text>
  <text x="28" y="2707" font-size="10" fill="#666666">- processDiagram(diagram: Diagra...</text>
  <text x="28" y="2723" font-size="10" fill="#666666">- generateOutput(archJSON: ArchJ...</text>
  <text x="28" y="2739" font-size="10" fill="#666666">+ constructor(options: any)</text>
  <rect x="20" y="2720" width="150" height="100" fill="#e1f5fe" stroke="#01579b" stroke-width="2" rx="5"/>
  <text x="95" y="2738" font-size="12" font-weight="bold" fill="#333333" text-anchor="middle">DiagramProcessorOptions</text>
  <line x1="25" y1="2755" x2="165" y2="2755" stroke="#01579b" stroke-width="1"/>
  <text x="28" y="2758" font-size="10" fill="#666666">+ diagrams: Array</text>
  <text x="28" y="2774" font-size="10" fill="#666666">+ globalConfig: GlobalConfig</text>
  <text x="28" y="2790" font-size="10" fill="#666666">+ progress: ProgressReporter</text>
  <rect x="20" y="2870" width="150" height="100" fill="#e1f5fe" stroke="#01579b" stroke-width="2" rx="5"/>
  <text x="95" y="2888" font-size="12" font-weight="bold" fill="#333333" text-anchor="middle">DiagramResult</text>
  <line x1="25" y1="2905" x2="165" y2="2905" stroke="#01579b" stroke-width="1"/>
  <text x="28" y="2908" font-size="10" fill="#666666">+ name: string</text>
  <text x="28" y="2924" font-size="10" fill="#666666">+ success: boolean</text>
  <rect x="20" y="3020" width="150" height="141" fill="#e1f5fe" stroke="#01579b" stroke-width="2" rx="5"/>
  <text x="95" y="3038" font-size="12" font-weight="bold" fill="#333333" text-anchor="middle">DiagramIndexGenerator</text>
  <line x1="25" y1="3055" x2="165" y2="3055" stroke="#01579b" stroke-width="1"/>
  <text x="28" y="3058" font-size="10" fill="#666666">+ generate(results: Array): Promise</text>
  <text x="28" y="3074" font-size="10" fill="#666666">- buildIndexContent(results: Arr...</text>
  <text x="28" y="3090" font-size="10" fill="#666666">- buildDiagramSection(result: Di...</text>
  <text x="28" y="3106" font-size="10" fill="#666666">- buildSummarySection(successful...</text>
  <text x="28" y="3122" font-size="10" fill="#666666">- buildFailedSection(failed: Arr...</text>
  <text x="28" y="3138" font-size="10" fill="#666666">+ constructor(globalConfig: Glob...</text>
  <rect x="20" y="3170" width="150" height="100" fill="#e1f5fe" stroke="#01579b" stroke-width="2" rx="5"/>
  <text x="95" y="3188" font-size="12" font-weight="bold" fill="#333333" text-anchor="middle">FileDiscoveryService</text>
  <line x1="25" y1="3205" x2="165" y2="3205" stroke="#01579b" stroke-width="1"/>
  <text x="28" y="3208" font-size="10" fill="#666666">+ discoverFiles(options?: any): ...</text>
  <text x="28" y="3224" font-size="10" fill="#666666">- discoverFromGlob(options: obje...</text>
  <rect x="20" y="3320" width="150" height="100" fill="#e1f5fe" stroke="#01579b" stroke-width="2" rx="5"/>
  <text x="95" y="3338" font-size="12" font-weight="bold" fill="#333333" text-anchor="middle">FileDiscoveryOptions</text>
  <rect x="20" y="3470" width="150" height="157" fill="#e1f5fe" stroke="#01579b" stroke-width="2" rx="5"/>
  <text x="95" y="3488" font-size="12" font-weight="bold" fill="#333333" text-anchor="middle">OutputPathResolver</text>
  <line x1="25" y1="3505" x2="165" y2="3505" stroke="#01579b" stroke-width="1"/>
  <text x="28" y="3508" font-size="10" fill="#666666">+ resolve(options?: any): any</text>
  <text x="28" y="3524" font-size="10" fill="#666666">+ ensureDirectory(options?: any)...</text>
  <text x="28" y="3540" font-size="10" fill="#666666">- buildPathResolution(outputDir:...</text>
  <text x="28" y="3556" font-size="10" fill="#666666">- parseCustomName(customName: st...</text>
  <text x="28" y="3572" font-size="10" fill="#666666">- determineBasePath(options: any...</text>
  <text x="28" y="3588" font-size="10" fill="#666666">- parseBasePath(basePath: string...</text>
  <text x="28" y="3604" font-size="10" fill="#666666">+ constructor(config: object)</text>
  <rect x="20" y="3620" width="150" height="100" fill="#e1f5fe" stroke="#01579b" stroke-width="2" rx="5"/>
  <text x="95" y="3638" font-size="12" font-weight="bold" fill="#333333" text-anchor="middle">PathResolution</text>
  <line x1="25" y1="3655" x2="165" y2="3655" stroke="#01579b" stroke-width="1"/>
  <text x="28" y="3658" font-size="10" fill="#666666">+ outputDir: string</text>
  <text x="28" y="3674" font-size="10" fill="#666666">+ baseName: string</text>
  <text x="28" y="3690" font-size="10" fill="#666666">+ paths: object</text>
  <rect x="20" y="3770" width="150" height="100" fill="#e1f5fe" stroke="#01579b" stroke-width="2" rx="5"/>
  <text x="95" y="3788" font-size="12" font-weight="bold" fill="#333333" text-anchor="middle">ResolveOptions</text>
  <rect x="20" y="3920" width="150" height="100" fill="#e1f5fe" stroke="#01579b" stroke-width="2" rx="5"/>
  <text x="95" y="3938" font-size="12" font-weight="bold" fill="#333333" text-anchor="middle">OutputPathOptions</text>
  <rect x="20" y="4070" width="150" height="100" fill="#e1f5fe" stroke="#01579b" stroke-width="2" rx="5"/>
  <text x="95" y="4088" font-size="12" font-weight="bold" fill="#333333" text-anchor="middle">ResolvedPaths</text>
  <line x1="25" y1="4105" x2="165" y2="4105" stroke="#01579b" stroke-width="1"/>
  <text x="28" y="4108" font-size="10" fill="#666666">+ dir: string</text>
  <rect x="20" y="4220" width="150" height="100" fill="#e1f5fe" stroke="#01579b" stroke-width="2" rx="5"/>
  <text x="95" y="4238" font-size="12" font-weight="bold" fill="#333333" text-anchor="middle">import___home_yale_work_archguard_src_cli_cache_manager___CacheStats</text>
  <rect x="20" y="4370" width="150" height="100" fill="#e1f5fe" stroke="#01579b" stroke-width="2" rx="5"/>
  <text x="95" y="4388" font-size="12" font-weight="bold" fill="#333333" text-anchor="middle">T</text>
  <rect x="20" y="4520" width="150" height="100" fill="#e1f5fe" stroke="#01579b" stroke-width="2" rx="5"/>
  <text x="95" y="4538" font-size="12" font-weight="bold" fill="#333333" text-anchor="middle">import___home_yale_work_archguard_src_cli_cache_manager___CacheOptions</text>
  <rect x="20" y="4670" width="150" height="100" fill="#e1f5fe" stroke="#01579b" stroke-width="2" rx="5"/>
  <text x="95" y="4688" font-size="12" font-weight="bold" fill="#333333" text-anchor="middle">z_infer</text>
  <rect x="20" y="4820" width="150" height="100" fill="#e1f5fe" stroke="#01579b" stroke-width="2" rx="5"/>
  <text x="95" y="4838" font-size="12" font-weight="bold" fill="#333333" text-anchor="middle">__format____json_</text>
  <rect x="20" y="4970" width="150" height="100" fill="#e1f5fe" stroke="#01579b" stroke-width="2" rx="5"/>
  <text x="95" y="4988" font-size="12" font-weight="bold" fill="#333333" text-anchor="middle">import___home_yale_work_archguard_src_cli_error_handler___ErrorFormatOptions</text>
  <rect x="20" y="5120" width="150" height="100" fill="#e1f5fe" stroke="#01579b" stroke-width="2" rx="5"/>
  <text x="95" y="5138" font-size="12" font-weight="bold" fill="#333333" text-anchor="middle">Error</text>
  <rect x="20" y="5270" width="150" height="100" fill="#e1f5fe" stroke="#01579b" stroke-width="2" rx="5"/>
  <text x="95" y="5288" font-size="12" font-weight="bold" fill="#333333" text-anchor="middle">_read_</text>
  <rect x="20" y="5420" width="150" height="100" fill="#e1f5fe" stroke="#01579b" stroke-width="2" rx="5"/>
  <text x="95" y="5438" font-size="12" font-weight="bold" fill="#333333" text-anchor="middle">Ora</text>
  <rect x="20" y="5570" width="150" height="100" fill="#e1f5fe" stroke="#01579b" stroke-width="2" rx="5"/>
  <text x="95" y="5588" font-size="12" font-weight="bold" fill="#333333" text-anchor="middle">import___home_yale_work_archguard_src_cli_progress___Stage</text>
  <rect x="20" y="5720" width="150" height="100" fill="#e1f5fe" stroke="#01579b" stroke-width="2" rx="5"/>
  <text x="95" y="5738" font-size="12" font-weight="bold" fill="#333333" text-anchor="middle">import___home_yale_work_archguard_src_cli_progress___ProgressSummary</text>
  <rect x="20" y="5870" width="150" height="100" fill="#e1f5fe" stroke="#01579b" stroke-width="2" rx="5"/>
  <text x="95" y="5888" font-size="12" font-weight="bold" fill="#333333" text-anchor="middle">DiagramConfig</text>
  <rect x="20" y="6020" width="150" height="100" fill="#e1f5fe" stroke="#01579b" stroke-width="2" rx="5"/>
  <text x="95" y="6038" font-size="12" font-weight="bold" fill="#333333" text-anchor="middle">GlobalConfig</text>
  <rect x="20" y="6170" width="150" height="100" fill="#e1f5fe" stroke="#01579b" stroke-width="2" rx="5"/>
  <text x="95" y="6188" font-size="12" font-weight="bold" fill="#333333" text-anchor="middle">ArchJSONAggregator</text>
  <rect x="20" y="6320" width="150" height="100" fill="#e1f5fe" stroke="#01579b" stroke-width="2" rx="5"/>
  <text x="95" y="6338" font-size="12" font-weight="bold" fill="#333333" text-anchor="middle">import___home_yale_work_archguard_src_cli_processors_diagram_processor___DiagramProcessorOptions</text>
  <rect x="20" y="6470" width="150" height="100" fill="#e1f5fe" stroke="#01579b" stroke-width="2" rx="5"/>
  <text x="95" y="6488" font-size="12" font-weight="bold" fill="#333333" text-anchor="middle">import___home_yale_work_archguard_src_cli_processors_diagram_processor___DiagramResult</text>
  <rect x="20" y="6620" width="150" height="100" fill="#e1f5fe" stroke="#01579b" stroke-width="2" rx="5"/>
  <text x="95" y="6638" font-size="12" font-weight="bold" fill="#333333" text-anchor="middle">ArchJSON</text>
  <rect x="20" y="6770" width="150" height="100" fill="#e1f5fe" stroke="#01579b" stroke-width="2" rx="5"/>
  <text x="95" y="6788" font-size="12" font-weight="bold" fill="#333333" text-anchor="middle">__paths____json__string__mmd__string__png__string__svg__string______</text>
  <rect x="20" y="6920" width="150" height="100" fill="#e1f5fe" stroke="#01579b" stroke-width="2" rx="5"/>
  <text x="95" y="6938" font-size="12" font-weight="bold" fill="#333333" text-anchor="middle">OutputFormat</text>
  <rect x="20" y="7070" width="150" height="100" fill="#e1f5fe" stroke="#01579b" stroke-width="2" rx="5"/>
  <text x="95" y="7088" font-size="12" font-weight="bold" fill="#333333" text-anchor="middle">DetailLevel</text>
  <rect x="20" y="7220" width="150" height="100" fill="#e1f5fe" stroke="#01579b" stroke-width="2" rx="5"/>
  <text x="95" y="7238" font-size="12" font-weight="bold" fill="#333333" text-anchor="middle">import___home_yale_work_archguard_src_cli_utils_file_discovery_service___FileDiscoveryOptions</text>
  <rect x="20" y="7370" width="150" height="100" fill="#e1f5fe" stroke="#01579b" stroke-width="2" rx="5"/>
  <text x="95" y="7388" font-size="12" font-weight="bold" fill="#333333" text-anchor="middle">__source__string__exclude__string____skipMissing__boolean___</text>
  <rect x="20" y="7520" width="150" height="100" fill="#e1f5fe" stroke="#01579b" stroke-width="2" rx="5"/>
  <text x="95" y="7538" font-size="12" font-weight="bold" fill="#333333" text-anchor="middle">__outputDir__string__output___string___</text>
  <rect x="20" y="7670" width="150" height="100" fill="#e1f5fe" stroke="#01579b" stroke-width="2" rx="5"/>
  <text x="95" y="7688" font-size="12" font-weight="bold" fill="#333333" text-anchor="middle">import___home_yale_work_archguard_src_cli_utils_output_path_resolver___PathResolution</text>
  <rect x="20" y="7820" width="150" height="100" fill="#e1f5fe" stroke="#01579b" stroke-width="2" rx="5"/>
  <text x="95" y="7838" font-size="12" font-weight="bold" fill="#333333" text-anchor="middle">import___home_yale_work_archguard_src_cli_utils_output_path_resolver___ResolveOptions</text>
  <rect x="20" y="7970" width="150" height="100" fill="#e1f5fe" stroke="#01579b" stroke-width="2" rx="5"/>
  <text x="95" y="7988" font-size="12" font-weight="bold" fill="#333333" text-anchor="middle">__outputDir__string__fileName__string___</text>
  <rect x="20" y="8120" width="150" height="100" fill="#e1f5fe" stroke="#01579b" stroke-width="2" rx="5"/>
  <text x="95" y="8138" font-size="12" font-weight="bold" fill="#333333" text-anchor="middle">__dir__string__baseName__string___</text>
</svg>