<svg xmlns="http://www.w3.org/2000/svg" width="2570" height="1034" viewBox="0 0 2570 1034">
  <rect width="100%" height="100%" fill="#ffffff"/>
  <line x1="95" y1="171.5" x2="695" y2="664" stroke="#666666" stroke-width="2" marker-end="url(#arrowhead)"/>
  <line x1="95" y1="171.5" x2="895" y2="664" stroke="#666666" stroke-width="2" marker-end="url(#arrowhead)"/>
  <line x1="95" y1="171.5" x2="1095" y2="664" stroke="#666666" stroke-width="2" marker-end="url(#arrowhead)"/>
  <line x1="95" y1="171.5" x2="695" y2="664" stroke="#666666" stroke-width="2" marker-end="url(#arrowhead)"/>
  <line x1="95" y1="468.5" x2="1295" y2="664" stroke="#666666" stroke-width="2" marker-end="url(#arrowhead)"/>
  <line x1="95" y1="468.5" x2="295" y2="423" stroke="#666666" stroke-width="2" marker-end="url(#arrowhead)"/>
  <line x1="95" y1="468.5" x2="1495" y2="664" stroke="#666666" stroke-width="2" marker-end="url(#arrowhead)"/>
  <line x1="895" y1="106.5" x2="1695" y2="664" stroke="#666666" stroke-width="2" marker-end="url(#arrowhead)"/>
  <line x1="895" y1="106.5" x2="1895" y2="70" stroke="#666666" stroke-width="2" marker-end="url(#arrowhead)"/>
  <line x1="895" y1="106.5" x2="2095" y2="70" stroke="#666666" stroke-width="2" marker-end="url(#arrowhead)"/>
  <line x1="895" y1="106.5" x2="2295" y2="70" stroke="#666666" stroke-width="2" marker-end="url(#arrowhead)"/>
  <line x1="895" y1="106.5" x2="2495" y2="70" stroke="#666666" stroke-width="2" marker-end="url(#arrowhead)"/>
  <line x1="895" y1="106.5" x2="1895" y2="664" stroke="#666666" stroke-width="2" marker-end="url(#arrowhead)"/>
  <line x1="1895" y1="70" x2="1895" y2="664" stroke="#666666" stroke-width="2" marker-end="url(#arrowhead)"/>
  <line x1="2095" y1="70" x2="1895" y2="664" stroke="#666666" stroke-width="2" marker-end="url(#arrowhead)"/>
  <line x1="2295" y1="70" x2="1895" y2="664" stroke="#666666" stroke-width="2" marker-end="url(#arrowhead)"/>
  <line x1="2495" y1="70" x2="1895" y2="664" stroke="#666666" stroke-width="2" marker-end="url(#arrowhead)"/>
  <line x1="2495" y1="70" x2="2095" y2="664" stroke="#666666" stroke-width="2" marker-end="url(#arrowhead)"/>
  <line x1="1295" y1="163.5" x2="2295" y2="664" stroke="#666666" stroke-width="2" marker-end="url(#arrowhead)"/>
  <line x1="1295" y1="163.5" x2="2495" y2="664" stroke="#666666" stroke-width="2" marker-end="url(#arrowhead)"/>
  <line x1="1295" y1="163.5" x2="2495" y2="664" stroke="#666666" stroke-width="2" marker-end="url(#arrowhead)"/>
  <line x1="1295" y1="163.5" x2="95" y2="814" stroke="#666666" stroke-width="2" marker-end="url(#arrowhead)"/>
  <line x1="1095" y1="468.5" x2="295" y2="814" stroke="#666666" stroke-width="2" marker-end="url(#arrowhead)"/>
  <line x1="1095" y1="468.5" x2="495" y2="814" stroke="#666666" stroke-width="2" marker-end="url(#arrowhead)"/>
  <line x1="1095" y1="468.5" x2="1295" y2="163.5" stroke="#666666" stroke-width="2" marker-end="url(#arrowhead)"/>
  <line x1="1095" y1="468.5" x2="1895" y2="423" stroke="#666666" stroke-width="2" marker-end="url(#arrowhead)"/>
  <line x1="1095" y1="468.5" x2="695" y2="814" stroke="#666666" stroke-width="2" marker-end="url(#arrowhead)"/>
  <line x1="1095" y1="468.5" x2="895" y2="814" stroke="#666666" stroke-width="2" marker-end="url(#arrowhead)"/>
  <line x1="1095" y1="468.5" x2="1095" y2="814" stroke="#666666" stroke-width="2" marker-end="url(#arrowhead)"/>
  <line x1="1095" y1="468.5" x2="295" y2="814" stroke="#666666" stroke-width="2" marker-end="url(#arrowhead)"/>
  <line x1="1095" y1="468.5" x2="1295" y2="814" stroke="#666666" stroke-width="2" marker-end="url(#arrowhead)"/>
  <line x1="1095" y1="468.5" x2="1495" y2="814" stroke="#666666" stroke-width="2" marker-end="url(#arrowhead)"/>
  <line x1="1095" y1="468.5" x2="1695" y2="814" stroke="#666666" stroke-width="2" marker-end="url(#arrowhead)"/>
  <line x1="1095" y1="468.5" x2="1895" y2="814" stroke="#666666" stroke-width="2" marker-end="url(#arrowhead)"/>
  <line x1="1695" y1="443.5" x2="495" y2="814" stroke="#666666" stroke-width="2" marker-end="url(#arrowhead)"/>
  <line x1="1695" y1="443.5" x2="1495" y2="423" stroke="#666666" stroke-width="2" marker-end="url(#arrowhead)"/>
  <line x1="1895" y1="423" x2="2095" y2="814" stroke="#666666" stroke-width="2" marker-end="url(#arrowhead)"/>
  <line x1="1895" y1="423" x2="2295" y2="814" stroke="#666666" stroke-width="2" marker-end="url(#arrowhead)"/>
  <line x1="2295" y1="451.5" x2="2495" y2="814" stroke="#666666" stroke-width="2" marker-end="url(#arrowhead)"/>
  <line x1="2295" y1="451.5" x2="95" y2="964" stroke="#666666" stroke-width="2" marker-end="url(#arrowhead)"/>
  <line x1="2295" y1="451.5" x2="295" y2="964" stroke="#666666" stroke-width="2" marker-end="url(#arrowhead)"/>
  <line x1="2295" y1="451.5" x2="495" y2="964" stroke="#666666" stroke-width="2" marker-end="url(#arrowhead)"/>
  <line x1="2295" y1="451.5" x2="695" y2="964" stroke="#666666" stroke-width="2" marker-end="url(#arrowhead)"/>
  <line x1="295" y1="664" x2="95" y2="664" stroke="#666666" stroke-width="2" marker-end="url(#arrowhead)"/>
  <line x1="495" y1="664" x2="2495" y2="423" stroke="#666666" stroke-width="2" marker-end="url(#arrowhead)"/>
  <defs>
    <marker id="arrowhead" markerWidth="10" markerHeight="10" refX="10" refY="3" orient="auto">
      <polygon points="0 0, 10 3, 0 6" fill="#666666"/>
    </marker>
  </defs>
  <rect x="20" y="20" width="150" height="303" fill="#e1f5fe" stroke="#01579b" stroke-width="2" rx="5"/>
  <text x="95" y="38" font-size="12" font-weight="bold" fill="#333333" text-anchor="middle">CacheManager</text>
  <line x1="25" y1="55" x2="165" y2="55" stroke="#01579b" stroke-width="1"/>
  <text x="28" y="58" font-size="10" fill="#666666">+ cacheDir: string</text>
  <text x="28" y="74" font-size="10" fill="#666666">- stats: any</text>
  <text x="28" y="90" font-size="10" fill="#666666">- defaultTTL: number</text>
  <line x1="25" y1="106" x2="165" y2="106" stroke="#01579b" stroke-width="1"/>
  <text x="28" y="109" font-size="10" fill="#666666">+ computeFileHash(filePath: stri...</text>
  <text x="28" y="125" font-size="10" fill="#666666">+ get(filePath: string, hash: st...</text>
  <text x="28" y="141" font-size="10" fill="#666666">+ set(filePath: string, hash: st...</text>
  <text x="28" y="157" font-size="10" fill="#666666">+ clear(): Promise</text>
  <text x="28" y="173" font-size="10" fill="#666666">+ getStats(): any</text>
  <text x="28" y="189" font-size="10" fill="#666666">+ getCacheSize(): Promise</text>
  <text x="28" y="205" font-size="10" fill="#666666">- getAllCacheFiles(): Promise</text>
  <text x="28" y="221" font-size="10" fill="#666666">- getCacheKey(filePath: string, ...</text>
  <text x="28" y="237" font-size="10" fill="#666666">- getCachePath(cacheKey: string)...</text>
  <text x="28" y="253" font-size="10" fill="#666666">- updateHitRate()</text>
  <text x="28" y="269" font-size="10" fill="#666666">+ setDefaultTTL(ttl: number)</text>
  <text x="28" y="285" font-size="10" fill="#666666">+ getDefaultTTL(): number</text>
  <text x="28" y="301" font-size="10" fill="#666666">+ constructor(cacheDir?: string)</text>
  <rect x="220" y="20" width="150" height="110" fill="#e1f5fe" stroke="#01579b" stroke-width="2" rx="5"/>
  <text x="295" y="38" font-size="12" font-weight="bold" fill="#333333" text-anchor="middle">CacheStats</text>
  <line x1="225" y1="55" x2="365" y2="55" stroke="#01579b" stroke-width="1"/>
  <text x="228" y="58" font-size="10" fill="#666666">+ hits: number</text>
  <text x="228" y="74" font-size="10" fill="#666666">+ misses: number</text>
  <text x="228" y="90" font-size="10" fill="#666666">+ hitRate: number</text>
  <text x="228" y="106" font-size="10" fill="#666666">+ totalSize: number</text>
  <rect x="420" y="20" width="150" height="100" fill="#e1f5fe" stroke="#01579b" stroke-width="2" rx="5"/>
  <text x="495" y="38" font-size="12" font-weight="bold" fill="#333333" text-anchor="middle">CacheOptions</text>
  <rect x="620" y="20" width="150" height="100" fill="#e1f5fe" stroke="#01579b" stroke-width="2" rx="5"/>
  <text x="695" y="38" font-size="12" font-weight="bold" fill="#333333" text-anchor="middle">CacheEntry</text>
  <line x1="625" y1="55" x2="765" y2="55" stroke="#01579b" stroke-width="1"/>
  <text x="628" y="58" font-size="10" fill="#666666">+ data: T</text>
  <text x="628" y="74" font-size="10" fill="#666666">+ timestamp: number</text>
  <text x="628" y="90" font-size="10" fill="#666666">+ ttl: number</text>
  <rect x="820" y="20" width="150" height="173" fill="#e1f5fe" stroke="#01579b" stroke-width="2" rx="5"/>
  <text x="895" y="38" font-size="12" font-weight="bold" fill="#333333" text-anchor="middle">ErrorHandler</text>
  <line x1="825" y1="55" x2="965" y2="55" stroke="#01579b" stroke-width="1"/>
  <text x="828" y="58" font-size="10" fill="#666666">+ format(error: unknown, options...</text>
  <text x="828" y="74" font-size="10" fill="#666666">- formatParseError(error: ParseE...</text>
  <text x="828" y="90" font-size="10" fill="#666666">- formatAPIError(error: APIError...</text>
  <text x="828" y="106" font-size="10" fill="#666666">- formatValidationError(error: V...</text>
  <text x="828" y="122" font-size="10" fill="#666666">- formatFileError(error: FileErr...</text>
  <text x="828" y="138" font-size="10" fill="#666666">- formatGenericError(error: Erro...</text>
  <text x="828" y="154" font-size="10" fill="#666666">- formatStringError(error: strin...</text>
  <text x="828" y="170" font-size="10" fill="#666666">- formatUnknownError(useColor: b...</text>
  <rect x="1020" y="20" width="150" height="100" fill="#e1f5fe" stroke="#01579b" stroke-width="2" rx="5"/>
  <text x="1095" y="38" font-size="12" font-weight="bold" fill="#333333" text-anchor="middle">ErrorFormatOptions</text>
  <rect x="1220" y="20" width="150" height="287" fill="#e1f5fe" stroke="#01579b" stroke-width="2" rx="5"/>
  <text x="1295" y="38" font-size="12" font-weight="bold" fill="#333333" text-anchor="middle">ProgressReporter</text>
  <line x1="1225" y1="55" x2="1365" y2="55" stroke="#01579b" stroke-width="1"/>
  <text x="1228" y="58" font-size="10" fill="#666666">- spinner: Ora</text>
  <text x="1228" y="74" font-size="10" fill="#666666">- stages: any</text>
  <text x="1228" y="90" font-size="10" fill="#666666">- currentStage: any</text>
  <line x1="1225" y1="106" x2="1365" y2="106" stroke="#01579b" stroke-width="1"/>
  <text x="1228" y="109" font-size="10" fill="#666666">+ start(message: string)</text>
  <text x="1228" y="125" font-size="10" fill="#666666">+ update(completed: number, tota...</text>
  <text x="1228" y="141" font-size="10" fill="#666666">+ succeed(message: string)</text>
  <text x="1228" y="157" font-size="10" fill="#666666">+ fail(message: string)</text>
  <text x="1228" y="173" font-size="10" fill="#666666">+ warn(message: string)</text>
  <text x="1228" y="189" font-size="10" fill="#666666">+ info(message: string)</text>
  <text x="1228" y="205" font-size="10" fill="#666666">+ getStages(): any</text>
  <text x="1228" y="221" font-size="10" fill="#666666">+ getCurrentStage(): any</text>
  <text x="1228" y="237" font-size="10" fill="#666666">+ getSummary(): any</text>
  <text x="1228" y="253" font-size="10" fill="#666666">+ printSummary()</text>
  <text x="1228" y="269" font-size="10" fill="#666666">+ stop()</text>
  <text x="1228" y="285" font-size="10" fill="#666666">+ constructor()</text>
  <rect x="1420" y="20" width="150" height="100" fill="#e1f5fe" stroke="#01579b" stroke-width="2" rx="5"/>
  <text x="1495" y="38" font-size="12" font-weight="bold" fill="#333333" text-anchor="middle">Stage</text>
  <line x1="1425" y1="55" x2="1565" y2="55" stroke="#01579b" stroke-width="1"/>
  <text x="1428" y="58" font-size="10" fill="#666666">+ name: string</text>
  <text x="1428" y="74" font-size="10" fill="#666666">+ status: any</text>
  <rect x="1620" y="20" width="150" height="126" fill="#e1f5fe" stroke="#01579b" stroke-width="2" rx="5"/>
  <text x="1695" y="38" font-size="12" font-weight="bold" fill="#333333" text-anchor="middle">ProgressSummary</text>
  <line x1="1625" y1="55" x2="1765" y2="55" stroke="#01579b" stroke-width="1"/>
  <text x="1628" y="58" font-size="10" fill="#666666">+ totalDuration: number</text>
  <text x="1628" y="74" font-size="10" fill="#666666">+ totalDurationFormatted: string</text>
  <text x="1628" y="90" font-size="10" fill="#666666">+ successCount: number</text>
  <text x="1628" y="106" font-size="10" fill="#666666">+ failureCount: number</text>
  <text x="1628" y="122" font-size="10" fill="#666666">+ warningCount: number</text>
  <rect x="1820" y="20" width="150" height="100" fill="#e1f5fe" stroke="#01579b" stroke-width="2" rx="5"/>
  <text x="1895" y="38" font-size="12" font-weight="bold" fill="#333333" text-anchor="middle">ParseError</text>
  <line x1="1825" y1="55" x2="1965" y2="55" stroke="#01579b" stroke-width="1"/>
  <text x="1828" y="58" font-size="10" fill="#666666">+ constructor(message: string, f...</text>
  <rect x="2020" y="20" width="150" height="100" fill="#e1f5fe" stroke="#01579b" stroke-width="2" rx="5"/>
  <text x="2095" y="38" font-size="12" font-weight="bold" fill="#333333" text-anchor="middle">APIError</text>
  <line x1="2025" y1="55" x2="2165" y2="55" stroke="#01579b" stroke-width="1"/>
  <text x="2028" y="58" font-size="10" fill="#666666">+ constructor(message: string, s...</text>
  <rect x="2220" y="20" width="150" height="100" fill="#e1f5fe" stroke="#01579b" stroke-width="2" rx="5"/>
  <text x="2295" y="38" font-size="12" font-weight="bold" fill="#333333" text-anchor="middle">ValidationError</text>
  <line x1="2225" y1="55" x2="2365" y2="55" stroke="#01579b" stroke-width="1"/>
  <text x="2228" y="58" font-size="10" fill="#666666">+ constructor(message: string, s...</text>
  <rect x="2420" y="20" width="150" height="100" fill="#e1f5fe" stroke="#01579b" stroke-width="2" rx="5"/>
  <text x="2495" y="38" font-size="12" font-weight="bold" fill="#333333" text-anchor="middle">FileError</text>
  <line x1="2425" y1="55" x2="2565" y2="55" stroke="#01579b" stroke-width="1"/>
  <text x="2428" y="58" font-size="10" fill="#666666">+ constructor(message: string, f...</text>
  <rect x="20" y="373" width="150" height="191" fill="#e1f5fe" stroke="#01579b" stroke-width="2" rx="5"/>
  <text x="95" y="391" font-size="12" font-weight="bold" fill="#333333" text-anchor="middle">ConfigLoader</text>
  <line x1="25" y1="408" x2="165" y2="408" stroke="#01579b" stroke-width="1"/>
  <text x="28" y="411" font-size="10" fill="#666666">- configDir: string</text>
  <line x1="25" y1="427" x2="165" y2="427" stroke="#01579b" stroke-width="1"/>
  <text x="28" y="430" font-size="10" fill="#666666">+ load(cliOptions?: z.infer~any,...</text>
  <text x="28" y="446" font-size="10" fill="#666666">- normalizeConfig(config: FileCo...</text>
  <text x="28" y="462" font-size="10" fill="#666666">- deepMerge(target: FileConfig, ...</text>
  <text x="28" y="478" font-size="10" fill="#666666">- isObject(item: unknown): boolean</text>
  <text x="28" y="494" font-size="10" fill="#666666">- loadFromFile(configPath?: stri...</text>
  <text x="28" y="510" font-size="10" fill="#666666">+ init(options?: object): Promise</text>
  <text x="28" y="526" font-size="10" fill="#666666">+ getConfigPath(): Promise</text>
  <text x="28" y="542" font-size="10" fill="#666666">+ constructor(configDir?: string)</text>
  <rect x="220" y="373" width="150" height="100" fill="#e1f5fe" stroke="#01579b" stroke-width="2" rx="5"/>
  <text x="295" y="391" font-size="12" font-weight="bold" fill="#333333" text-anchor="middle">FileConfig</text>
  <rect x="420" y="373" width="150" height="100" fill="#e1f5fe" stroke="#01579b" stroke-width="2" rx="5"/>
  <text x="495" y="391" font-size="12" font-weight="bold" fill="#333333" text-anchor="middle">CLIConfig</text>
  <line x1="425" y1="408" x2="565" y2="408" stroke="#01579b" stroke-width="1"/>
  <text x="428" y="411" font-size="10" fill="#666666">+ command: string</text>
  <text x="428" y="427" font-size="10" fill="#666666">+ args: Array</text>
  <text x="428" y="443" font-size="10" fill="#666666">+ timeout: number</text>
  <rect x="620" y="373" width="150" height="142" fill="#e1f5fe" stroke="#01579b" stroke-width="2" rx="5"/>
  <text x="695" y="391" font-size="12" font-weight="bold" fill="#333333" text-anchor="middle">Config</text>
  <line x1="625" y1="408" x2="765" y2="408" stroke="#01579b" stroke-width="1"/>
  <text x="628" y="411" font-size="10" fill="#666666">+ source: any</text>
  <text x="628" y="427" font-size="10" fill="#666666">+ outputDir: string</text>
  <text x="628" y="443" font-size="10" fill="#666666">+ format: any</text>
  <text x="628" y="459" font-size="10" fill="#666666">+ exclude: Array</text>
  <text x="628" y="475" font-size="10" fill="#666666">+ cli: any</text>
  <text x="628" y="491" font-size="10" fill="#666666">+ cache: object</text>
  <rect x="820" y="373" width="150" height="100" fill="#e1f5fe" stroke="#01579b" stroke-width="2" rx="5"/>
  <text x="895" y="391" font-size="12" font-weight="bold" fill="#333333" text-anchor="middle">AnalyzeOptions</text>
  <line x1="825" y1="408" x2="965" y2="408" stroke="#01579b" stroke-width="1"/>
  <text x="828" y="411" font-size="10" fill="#666666">+ source: any</text>
  <text x="828" y="427" font-size="10" fill="#666666">+ format: any</text>
  <text x="828" y="443" font-size="10" fill="#666666">+ cache: boolean</text>
  <rect x="1020" y="373" width="150" height="191" fill="#e1f5fe" stroke="#01579b" stroke-width="2" rx="5"/>
  <text x="1095" y="391" font-size="12" font-weight="bold" fill="#333333" text-anchor="middle">DiagramProcessor</text>
  <line x1="1025" y1="408" x2="1165" y2="408" stroke="#01579b" stroke-width="1"/>
  <text x="1028" y="411" font-size="10" fill="#666666">- diagrams: Array</text>
  <text x="1028" y="427" font-size="10" fill="#666666">- globalConfig: GlobalConfig</text>
  <text x="1028" y="443" font-size="10" fill="#666666">- progress: ProgressReporter</text>
  <text x="1028" y="459" font-size="10" fill="#666666">- fileDiscovery: FileDiscoveryService</text>
  <text x="1028" y="475" font-size="10" fill="#666666">- aggregator: ArchJSONAggregator</text>
  <line x1="1025" y1="491" x2="1165" y2="491" stroke="#01579b" stroke-width="1"/>
  <text x="1028" y="494" font-size="10" fill="#666666">+ processAll(): Promise</text>
  <text x="1028" y="510" font-size="10" fill="#666666">- processDiagram(diagram: Diagra...</text>
  <text x="1028" y="526" font-size="10" fill="#666666">- generateOutput(archJSON: ArchJ...</text>
  <text x="1028" y="542" font-size="10" fill="#666666">+ constructor(options: any)</text>
  <rect x="1220" y="373" width="150" height="100" fill="#e1f5fe" stroke="#01579b" stroke-width="2" rx="5"/>
  <text x="1295" y="391" font-size="12" font-weight="bold" fill="#333333" text-anchor="middle">DiagramProcessorOptions</text>
  <line x1="1225" y1="408" x2="1365" y2="408" stroke="#01579b" stroke-width="1"/>
  <text x="1228" y="411" font-size="10" fill="#666666">+ diagrams: Array</text>
  <text x="1228" y="427" font-size="10" fill="#666666">+ globalConfig: GlobalConfig</text>
  <text x="1228" y="443" font-size="10" fill="#666666">+ progress: ProgressReporter</text>
  <rect x="1420" y="373" width="150" height="100" fill="#e1f5fe" stroke="#01579b" stroke-width="2" rx="5"/>
  <text x="1495" y="391" font-size="12" font-weight="bold" fill="#333333" text-anchor="middle">DiagramResult</text>
  <line x1="1425" y1="408" x2="1565" y2="408" stroke="#01579b" stroke-width="1"/>
  <text x="1428" y="411" font-size="10" fill="#666666">+ name: string</text>
  <text x="1428" y="427" font-size="10" fill="#666666">+ success: boolean</text>
  <rect x="1620" y="373" width="150" height="141" fill="#e1f5fe" stroke="#01579b" stroke-width="2" rx="5"/>
  <text x="1695" y="391" font-size="12" font-weight="bold" fill="#333333" text-anchor="middle">DiagramIndexGenerator</text>
  <line x1="1625" y1="408" x2="1765" y2="408" stroke="#01579b" stroke-width="1"/>
  <text x="1628" y="411" font-size="10" fill="#666666">+ generate(results: Array): Promise</text>
  <text x="1628" y="427" font-size="10" fill="#666666">- buildIndexContent(results: Arr...</text>
  <text x="1628" y="443" font-size="10" fill="#666666">- buildDiagramSection(result: Di...</text>
  <text x="1628" y="459" font-size="10" fill="#666666">- buildSummarySection(successful...</text>
  <text x="1628" y="475" font-size="10" fill="#666666">- buildFailedSection(failed: Arr...</text>
  <text x="1628" y="491" font-size="10" fill="#666666">+ constructor(globalConfig: Glob...</text>
  <rect x="1820" y="373" width="150" height="100" fill="#e1f5fe" stroke="#01579b" stroke-width="2" rx="5"/>
  <text x="1895" y="391" font-size="12" font-weight="bold" fill="#333333" text-anchor="middle">FileDiscoveryService</text>
  <line x1="1825" y1="408" x2="1965" y2="408" stroke="#01579b" stroke-width="1"/>
  <text x="1828" y="411" font-size="10" fill="#666666">+ discoverFiles(options?: any): ...</text>
  <text x="1828" y="427" font-size="10" fill="#666666">- discoverFromGlob(options: obje...</text>
  <rect x="2020" y="373" width="150" height="100" fill="#e1f5fe" stroke="#01579b" stroke-width="2" rx="5"/>
  <text x="2095" y="391" font-size="12" font-weight="bold" fill="#333333" text-anchor="middle">FileDiscoveryOptions</text>
  <rect x="2220" y="373" width="150" height="157" fill="#e1f5fe" stroke="#01579b" stroke-width="2" rx="5"/>
  <text x="2295" y="391" font-size="12" font-weight="bold" fill="#333333" text-anchor="middle">OutputPathResolver</text>
  <line x1="2225" y1="408" x2="2365" y2="408" stroke="#01579b" stroke-width="1"/>
  <text x="2228" y="411" font-size="10" fill="#666666">+ resolve(options?: any): any</text>
  <text x="2228" y="427" font-size="10" fill="#666666">+ ensureDirectory(options?: any)...</text>
  <text x="2228" y="443" font-size="10" fill="#666666">- buildPathResolution(outputDir:...</text>
  <text x="2228" y="459" font-size="10" fill="#666666">- parseCustomName(customName: st...</text>
  <text x="2228" y="475" font-size="10" fill="#666666">- determineBasePath(options: any...</text>
  <text x="2228" y="491" font-size="10" fill="#666666">- parseBasePath(basePath: string...</text>
  <text x="2228" y="507" font-size="10" fill="#666666">+ constructor(config: object)</text>
  <rect x="2420" y="373" width="150" height="100" fill="#e1f5fe" stroke="#01579b" stroke-width="2" rx="5"/>
  <text x="2495" y="391" font-size="12" font-weight="bold" fill="#333333" text-anchor="middle">PathResolution</text>
  <line x1="2425" y1="408" x2="2565" y2="408" stroke="#01579b" stroke-width="1"/>
  <text x="2428" y="411" font-size="10" fill="#666666">+ outputDir: string</text>
  <text x="2428" y="427" font-size="10" fill="#666666">+ baseName: string</text>
  <text x="2428" y="443" font-size="10" fill="#666666">+ paths: object</text>
  <rect x="20" y="614" width="150" height="100" fill="#e1f5fe" stroke="#01579b" stroke-width="2" rx="5"/>
  <text x="95" y="632" font-size="12" font-weight="bold" fill="#333333" text-anchor="middle">ResolveOptions</text>
  <rect x="220" y="614" width="150" height="100" fill="#e1f5fe" stroke="#01579b" stroke-width="2" rx="5"/>
  <text x="295" y="632" font-size="12" font-weight="bold" fill="#333333" text-anchor="middle">OutputPathOptions</text>
  <rect x="420" y="614" width="150" height="100" fill="#e1f5fe" stroke="#01579b" stroke-width="2" rx="5"/>
  <text x="495" y="632" font-size="12" font-weight="bold" fill="#333333" text-anchor="middle">ResolvedPaths</text>
  <line x1="425" y1="649" x2="565" y2="649" stroke="#01579b" stroke-width="1"/>
  <text x="428" y="652" font-size="10" fill="#666666">+ dir: string</text>
  <rect x="620" y="614" width="150" height="100" fill="#e1f5fe" stroke="#01579b" stroke-width="2" rx="5"/>
  <text x="695" y="632" font-size="12" font-weight="bold" fill="#333333" text-anchor="middle">import___home_yale_work_archguard_src_cli_cache_manager___CacheStats</text>
  <rect x="820" y="614" width="150" height="100" fill="#e1f5fe" stroke="#01579b" stroke-width="2" rx="5"/>
  <text x="895" y="632" font-size="12" font-weight="bold" fill="#333333" text-anchor="middle">T</text>
  <rect x="1020" y="614" width="150" height="100" fill="#e1f5fe" stroke="#01579b" stroke-width="2" rx="5"/>
  <text x="1095" y="632" font-size="12" font-weight="bold" fill="#333333" text-anchor="middle">import___home_yale_work_archguard_src_cli_cache_manager___CacheOptions</text>
  <rect x="1220" y="614" width="150" height="100" fill="#e1f5fe" stroke="#01579b" stroke-width="2" rx="5"/>
  <text x="1295" y="632" font-size="12" font-weight="bold" fill="#333333" text-anchor="middle">z_infer</text>
  <rect x="1420" y="614" width="150" height="100" fill="#e1f5fe" stroke="#01579b" stroke-width="2" rx="5"/>
  <text x="1495" y="632" font-size="12" font-weight="bold" fill="#333333" text-anchor="middle">__format____json_</text>
  <rect x="1620" y="614" width="150" height="100" fill="#e1f5fe" stroke="#01579b" stroke-width="2" rx="5"/>
  <text x="1695" y="632" font-size="12" font-weight="bold" fill="#333333" text-anchor="middle">import___home_yale_work_archguard_src_cli_error_handler___ErrorFormatOptions</text>
  <rect x="1820" y="614" width="150" height="100" fill="#e1f5fe" stroke="#01579b" stroke-width="2" rx="5"/>
  <text x="1895" y="632" font-size="12" font-weight="bold" fill="#333333" text-anchor="middle">Error</text>
  <rect x="2020" y="614" width="150" height="100" fill="#e1f5fe" stroke="#01579b" stroke-width="2" rx="5"/>
  <text x="2095" y="632" font-size="12" font-weight="bold" fill="#333333" text-anchor="middle">_read_</text>
  <rect x="2220" y="614" width="150" height="100" fill="#e1f5fe" stroke="#01579b" stroke-width="2" rx="5"/>
  <text x="2295" y="632" font-size="12" font-weight="bold" fill="#333333" text-anchor="middle">Ora</text>
  <rect x="2420" y="614" width="150" height="100" fill="#e1f5fe" stroke="#01579b" stroke-width="2" rx="5"/>
  <text x="2495" y="632" font-size="12" font-weight="bold" fill="#333333" text-anchor="middle">import___home_yale_work_archguard_src_cli_progress___Stage</text>
  <rect x="20" y="764" width="150" height="100" fill="#e1f5fe" stroke="#01579b" stroke-width="2" rx="5"/>
  <text x="95" y="782" font-size="12" font-weight="bold" fill="#333333" text-anchor="middle">import___home_yale_work_archguard_src_cli_progress___ProgressSummary</text>
  <rect x="220" y="764" width="150" height="100" fill="#e1f5fe" stroke="#01579b" stroke-width="2" rx="5"/>
  <text x="295" y="782" font-size="12" font-weight="bold" fill="#333333" text-anchor="middle">DiagramConfig</text>
  <rect x="420" y="764" width="150" height="100" fill="#e1f5fe" stroke="#01579b" stroke-width="2" rx="5"/>
  <text x="495" y="782" font-size="12" font-weight="bold" fill="#333333" text-anchor="middle">GlobalConfig</text>
  <rect x="620" y="764" width="150" height="100" fill="#e1f5fe" stroke="#01579b" stroke-width="2" rx="5"/>
  <text x="695" y="782" font-size="12" font-weight="bold" fill="#333333" text-anchor="middle">ArchJSONAggregator</text>
  <rect x="820" y="764" width="150" height="100" fill="#e1f5fe" stroke="#01579b" stroke-width="2" rx="5"/>
  <text x="895" y="782" font-size="12" font-weight="bold" fill="#333333" text-anchor="middle">import___home_yale_work_archguard_src_cli_processors_diagram_processor___DiagramProcessorOptions</text>
  <rect x="1020" y="764" width="150" height="100" fill="#e1f5fe" stroke="#01579b" stroke-width="2" rx="5"/>
  <text x="1095" y="782" font-size="12" font-weight="bold" fill="#333333" text-anchor="middle">import___home_yale_work_archguard_src_cli_processors_diagram_processor___DiagramResult</text>
  <rect x="1220" y="764" width="150" height="100" fill="#e1f5fe" stroke="#01579b" stroke-width="2" rx="5"/>
  <text x="1295" y="782" font-size="12" font-weight="bold" fill="#333333" text-anchor="middle">ArchJSON</text>
  <rect x="1420" y="764" width="150" height="100" fill="#e1f5fe" stroke="#01579b" stroke-width="2" rx="5"/>
  <text x="1495" y="782" font-size="12" font-weight="bold" fill="#333333" text-anchor="middle">__paths____json__string__mmd__string__png__string__svg__string______</text>
  <rect x="1620" y="764" width="150" height="100" fill="#e1f5fe" stroke="#01579b" stroke-width="2" rx="5"/>
  <text x="1695" y="782" font-size="12" font-weight="bold" fill="#333333" text-anchor="middle">OutputFormat</text>
  <rect x="1820" y="764" width="150" height="100" fill="#e1f5fe" stroke="#01579b" stroke-width="2" rx="5"/>
  <text x="1895" y="782" font-size="12" font-weight="bold" fill="#333333" text-anchor="middle">DetailLevel</text>
  <rect x="2020" y="764" width="150" height="100" fill="#e1f5fe" stroke="#01579b" stroke-width="2" rx="5"/>
  <text x="2095" y="782" font-size="12" font-weight="bold" fill="#333333" text-anchor="middle">import___home_yale_work_archguard_src_cli_utils_file_discovery_service___FileDiscoveryOptions</text>
  <rect x="2220" y="764" width="150" height="100" fill="#e1f5fe" stroke="#01579b" stroke-width="2" rx="5"/>
  <text x="2295" y="782" font-size="12" font-weight="bold" fill="#333333" text-anchor="middle">__source__string__exclude__string____skipMissing__boolean___</text>
  <rect x="2420" y="764" width="150" height="100" fill="#e1f5fe" stroke="#01579b" stroke-width="2" rx="5"/>
  <text x="2495" y="782" font-size="12" font-weight="bold" fill="#333333" text-anchor="middle">__outputDir__string__output___string___</text>
  <rect x="20" y="914" width="150" height="100" fill="#e1f5fe" stroke="#01579b" stroke-width="2" rx="5"/>
  <text x="95" y="932" font-size="12" font-weight="bold" fill="#333333" text-anchor="middle">import___home_yale_work_archguard_src_cli_utils_output_path_resolver___PathResolution</text>
  <rect x="220" y="914" width="150" height="100" fill="#e1f5fe" stroke="#01579b" stroke-width="2" rx="5"/>
  <text x="295" y="932" font-size="12" font-weight="bold" fill="#333333" text-anchor="middle">import___home_yale_work_archguard_src_cli_utils_output_path_resolver___ResolveOptions</text>
  <rect x="420" y="914" width="150" height="100" fill="#e1f5fe" stroke="#01579b" stroke-width="2" rx="5"/>
  <text x="495" y="932" font-size="12" font-weight="bold" fill="#333333" text-anchor="middle">__outputDir__string__fileName__string___</text>
  <rect x="620" y="914" width="150" height="100" fill="#e1f5fe" stroke="#01579b" stroke-width="2" rx="5"/>
  <text x="695" y="932" font-size="12" font-weight="bold" fill="#333333" text-anchor="middle">__dir__string__baseName__string___</text>
</svg>