<svg xmlns="http://www.w3.org/2000/svg" width="5512" height="1245" viewBox="0 0 5512 1245">
  <rect width="100%" height="100%" fill="#ffffff"/>
  <line x1="3745" y1="163.5" x2="3692" y2="445" stroke="#666666" stroke-width="2" marker-end="url(#arrowhead)"/>
  <line x1="3745" y1="163.5" x2="3942" y2="445" stroke="#666666" stroke-width="2" marker-end="url(#arrowhead)"/>
  <line x1="3745" y1="163.5" x2="4192" y2="385" stroke="#666666" stroke-width="2" marker-end="url(#arrowhead)"/>
  <line x1="3745" y1="163.5" x2="3692" y2="445" stroke="#666666" stroke-width="2" marker-end="url(#arrowhead)"/>
  <line x1="3222" y1="107.5" x2="2972" y2="273" stroke="#666666" stroke-width="2" marker-end="url(#arrowhead)"/>
  <line x1="3222" y1="107.5" x2="3222" y2="333" stroke="#666666" stroke-width="2" marker-end="url(#arrowhead)"/>
  <line x1="3222" y1="107.5" x2="3472" y2="273" stroke="#666666" stroke-width="2" marker-end="url(#arrowhead)"/>
  <line x1="848" y1="601.5" x2="112" y2="758" stroke="#666666" stroke-width="2" marker-end="url(#arrowhead)"/>
  <line x1="848" y1="601.5" x2="362" y2="878" stroke="#666666" stroke-width="2" marker-end="url(#arrowhead)"/>
  <line x1="848" y1="601.5" x2="612" y2="868" stroke="#666666" stroke-width="2" marker-end="url(#arrowhead)"/>
  <line x1="848" y1="601.5" x2="862" y2="818" stroke="#666666" stroke-width="2" marker-end="url(#arrowhead)"/>
  <line x1="848" y1="601.5" x2="1083" y2="768" stroke="#666666" stroke-width="2" marker-end="url(#arrowhead)"/>
  <line x1="848" y1="601.5" x2="862" y2="998" stroke="#666666" stroke-width="2" marker-end="url(#arrowhead)"/>
  <line x1="362" y1="878" x2="862" y2="998" stroke="#666666" stroke-width="2" marker-end="url(#arrowhead)"/>
  <line x1="612" y1="868" x2="862" y2="998" stroke="#666666" stroke-width="2" marker-end="url(#arrowhead)"/>
  <line x1="862" y1="818" x2="862" y2="998" stroke="#666666" stroke-width="2" marker-end="url(#arrowhead)"/>
  <line x1="1083" y1="768" x2="862" y2="998" stroke="#666666" stroke-width="2" marker-end="url(#arrowhead)"/>
  <line x1="1083" y1="768" x2="1116" y2="948" stroke="#666666" stroke-width="2" marker-end="url(#arrowhead)"/>
  <line x1="2836" y1="909.5" x2="3106" y2="1123" stroke="#666666" stroke-width="2" marker-end="url(#arrowhead)"/>
  <line x1="2836" y1="909.5" x2="2606" y2="1133" stroke="#666666" stroke-width="2" marker-end="url(#arrowhead)"/>
  <line x1="2836" y1="909.5" x2="2606" y2="1133" stroke="#666666" stroke-width="2" marker-end="url(#arrowhead)"/>
  <line x1="2836" y1="909.5" x2="2856" y2="1183" stroke="#666666" stroke-width="2" marker-end="url(#arrowhead)"/>
  <line x1="2344" y1="610.5" x2="2086" y2="816" stroke="#666666" stroke-width="2" marker-end="url(#arrowhead)"/>
  <line x1="2344" y1="610.5" x2="3836" y2="786" stroke="#666666" stroke-width="2" marker-end="url(#arrowhead)"/>
  <line x1="2344" y1="610.5" x2="2836" y2="909.5" stroke="#666666" stroke-width="2" marker-end="url(#arrowhead)"/>
  <line x1="2344" y1="610.5" x2="3086" y2="846" stroke="#666666" stroke-width="2" marker-end="url(#arrowhead)"/>
  <line x1="2344" y1="610.5" x2="1336" y2="776" stroke="#666666" stroke-width="2" marker-end="url(#arrowhead)"/>
  <line x1="2344" y1="610.5" x2="2336" y2="836" stroke="#666666" stroke-width="2" marker-end="url(#arrowhead)"/>
  <line x1="2344" y1="610.5" x2="1586" y2="786" stroke="#666666" stroke-width="2" marker-end="url(#arrowhead)"/>
  <line x1="2344" y1="610.5" x2="2086" y2="816" stroke="#666666" stroke-width="2" marker-end="url(#arrowhead)"/>
  <line x1="2344" y1="610.5" x2="1836" y2="796" stroke="#666666" stroke-width="2" marker-end="url(#arrowhead)"/>
  <line x1="2344" y1="610.5" x2="2586" y2="953" stroke="#666666" stroke-width="2" marker-end="url(#arrowhead)"/>
  <line x1="2344" y1="610.5" x2="3586" y2="786" stroke="#666666" stroke-width="2" marker-end="url(#arrowhead)"/>
  <line x1="2344" y1="610.5" x2="3336" y2="796" stroke="#666666" stroke-width="2" marker-end="url(#arrowhead)"/>
  <line x1="3902" y1="585.5" x2="3836" y2="786" stroke="#666666" stroke-width="2" marker-end="url(#arrowhead)"/>
  <line x1="3902" y1="585.5" x2="4086" y2="786" stroke="#666666" stroke-width="2" marker-end="url(#arrowhead)"/>
  <line x1="3086" y1="846" x2="3606" y2="966" stroke="#666666" stroke-width="2" marker-end="url(#arrowhead)"/>
  <line x1="3086" y1="846" x2="3356" y2="976" stroke="#666666" stroke-width="2" marker-end="url(#arrowhead)"/>
  <line x1="4912" y1="90.5" x2="4412" y2="239" stroke="#666666" stroke-width="2" marker-end="url(#arrowhead)"/>
  <line x1="4912" y1="90.5" x2="4662" y2="249" stroke="#666666" stroke-width="2" marker-end="url(#arrowhead)"/>
  <line x1="4912" y1="90.5" x2="4912" y2="299" stroke="#666666" stroke-width="2" marker-end="url(#arrowhead)"/>
  <line x1="4912" y1="90.5" x2="5162" y2="249" stroke="#666666" stroke-width="2" marker-end="url(#arrowhead)"/>
  <line x1="4912" y1="90.5" x2="5412" y2="239" stroke="#666666" stroke-width="2" marker-end="url(#arrowhead)"/>
  <line x1="2752" y1="62" x2="2752" y2="242" stroke="#666666" stroke-width="2" marker-end="url(#arrowhead)"/>
  <line x1="2532" y1="62" x2="2532" y2="242" stroke="#666666" stroke-width="2" marker-end="url(#arrowhead)"/>
  <defs>
    <marker id="arrowhead" markerWidth="10" markerHeight="10" refX="10" refY="3" orient="auto">
      <polygon points="0 0, 10 3, 0 6" fill="#666666"/>
    </marker>
  </defs>
  <rect x="3645" y="12" width="200" height="303" fill="#e1f5fe" stroke="#01579b" stroke-width="2" rx="5"/>
  <text x="3745" y="30" font-size="12" font-weight="bold" fill="#333333" text-anchor="middle">CacheManager</text>
  <line x1="3650" y1="47" x2="3840" y2="47" stroke="#01579b" stroke-width="1"/>
  <text x="3653" y="50" font-size="10" fill="#666666">+ cacheDir: string</text>
  <text x="3653" y="66" font-size="10" fill="#666666">- stats: any</text>
  <text x="3653" y="82" font-size="10" fill="#666666">- defaultTTL: number</text>
  <line x1="3650" y1="98" x2="3840" y2="98" stroke="#01579b" stroke-width="1"/>
  <text x="3653" y="101" font-size="10" fill="#666666">+ computeFileHash(filePath: stri...</text>
  <text x="3653" y="117" font-size="10" fill="#666666">+ get(filePath: string, hash: st...</text>
  <text x="3653" y="133" font-size="10" fill="#666666">+ set(filePath: string, hash: st...</text>
  <text x="3653" y="149" font-size="10" fill="#666666">+ clear(): Promise</text>
  <text x="3653" y="165" font-size="10" fill="#666666">+ getStats(): any</text>
  <text x="3653" y="181" font-size="10" fill="#666666">+ getCacheSize(): Promise</text>
  <text x="3653" y="197" font-size="10" fill="#666666">- getAllCacheFiles(): Promise</text>
  <text x="3653" y="213" font-size="10" fill="#666666">- getCacheKey(filePath: string, ...</text>
  <text x="3653" y="229" font-size="10" fill="#666666">- getCachePath(cacheKey: string)...</text>
  <text x="3653" y="245" font-size="10" fill="#666666">- updateHitRate()</text>
  <text x="3653" y="261" font-size="10" fill="#666666">+ setDefaultTTL(ttl: number)</text>
  <text x="3653" y="277" font-size="10" fill="#666666">+ getDefaultTTL(): number</text>
  <text x="3653" y="293" font-size="10" fill="#666666">+ constructor(cacheDir?: string)</text>
  <rect x="1772" y="12" width="200" height="110" fill="#e1f5fe" stroke="#01579b" stroke-width="2" rx="5"/>
  <text x="1872" y="30" font-size="12" font-weight="bold" fill="#333333" text-anchor="middle">CacheStats</text>
  <line x1="1777" y1="47" x2="1967" y2="47" stroke="#01579b" stroke-width="1"/>
  <text x="1780" y="50" font-size="10" fill="#666666">+ hits: number</text>
  <text x="1780" y="66" font-size="10" fill="#666666">+ misses: number</text>
  <text x="1780" y="82" font-size="10" fill="#666666">+ hitRate: number</text>
  <text x="1780" y="98" font-size="10" fill="#666666">+ totalSize: number</text>
  <rect x="12" y="12" width="200" height="100" fill="#e1f5fe" stroke="#01579b" stroke-width="2" rx="5"/>
  <text x="112" y="30" font-size="12" font-weight="bold" fill="#333333" text-anchor="middle">CacheOptions</text>
  <rect x="232" y="12" width="200" height="100" fill="#e1f5fe" stroke="#01579b" stroke-width="2" rx="5"/>
  <text x="332" y="30" font-size="12" font-weight="bold" fill="#333333" text-anchor="middle">CacheEntry</text>
  <line x1="237" y1="47" x2="427" y2="47" stroke="#01579b" stroke-width="1"/>
  <text x="240" y="50" font-size="10" fill="#666666">+ data: T</text>
  <text x="240" y="66" font-size="10" fill="#666666">+ timestamp: number</text>
  <text x="240" y="82" font-size="10" fill="#666666">+ ttl: number</text>
  <rect x="748" y="515" width="200" height="173" fill="#e1f5fe" stroke="#01579b" stroke-width="2" rx="5"/>
  <text x="848" y="533" font-size="12" font-weight="bold" fill="#333333" text-anchor="middle">ErrorHandler</text>
  <line x1="753" y1="550" x2="943" y2="550" stroke="#01579b" stroke-width="1"/>
  <text x="756" y="553" font-size="10" fill="#666666">+ format(error: unknown, options...</text>
  <text x="756" y="569" font-size="10" fill="#666666">- formatParseError(error: ParseE...</text>
  <text x="756" y="585" font-size="10" fill="#666666">- formatAPIError(error: APIError...</text>
  <text x="756" y="601" font-size="10" fill="#666666">- formatValidationError(error: V...</text>
  <text x="756" y="617" font-size="10" fill="#666666">- formatFileError(error: FileErr...</text>
  <text x="756" y="633" font-size="10" fill="#666666">- formatGenericError(error: Erro...</text>
  <text x="756" y="649" font-size="10" fill="#666666">- formatStringError(error: strin...</text>
  <text x="756" y="665" font-size="10" fill="#666666">- formatUnknownError(useColor: b...</text>
  <rect x="452" y="12" width="200" height="100" fill="#e1f5fe" stroke="#01579b" stroke-width="2" rx="5"/>
  <text x="552" y="30" font-size="12" font-weight="bold" fill="#333333" text-anchor="middle">ErrorFormatOptions</text>
  <rect x="2736" y="766" width="200" height="287" fill="#e1f5fe" stroke="#01579b" stroke-width="2" rx="5"/>
  <text x="2836" y="784" font-size="12" font-weight="bold" fill="#333333" text-anchor="middle">ProgressReporter</text>
  <line x1="2741" y1="801" x2="2931" y2="801" stroke="#01579b" stroke-width="1"/>
  <text x="2744" y="804" font-size="10" fill="#666666">- spinner: Ora</text>
  <text x="2744" y="820" font-size="10" fill="#666666">- stages: any</text>
  <text x="2744" y="836" font-size="10" fill="#666666">- currentStage: any</text>
  <line x1="2741" y1="852" x2="2931" y2="852" stroke="#01579b" stroke-width="1"/>
  <text x="2744" y="855" font-size="10" fill="#666666">+ start(message: string)</text>
  <text x="2744" y="871" font-size="10" fill="#666666">+ update(completed: number, tota...</text>
  <text x="2744" y="887" font-size="10" fill="#666666">+ succeed(message: string)</text>
  <text x="2744" y="903" font-size="10" fill="#666666">+ fail(message: string)</text>
  <text x="2744" y="919" font-size="10" fill="#666666">+ warn(message: string)</text>
  <text x="2744" y="935" font-size="10" fill="#666666">+ info(message: string)</text>
  <text x="2744" y="951" font-size="10" fill="#666666">+ getStages(): any</text>
  <text x="2744" y="967" font-size="10" fill="#666666">+ getCurrentStage(): any</text>
  <text x="2744" y="983" font-size="10" fill="#666666">+ getSummary(): any</text>
  <text x="2744" y="999" font-size="10" fill="#666666">+ printSummary()</text>
  <text x="2744" y="1015" font-size="10" fill="#666666">+ stop()</text>
  <text x="2744" y="1031" font-size="10" fill="#666666">+ constructor()</text>
  <rect x="672" y="12" width="200" height="100" fill="#e1f5fe" stroke="#01579b" stroke-width="2" rx="5"/>
  <text x="772" y="30" font-size="12" font-weight="bold" fill="#333333" text-anchor="middle">Stage</text>
  <line x1="677" y1="47" x2="867" y2="47" stroke="#01579b" stroke-width="1"/>
  <text x="680" y="50" font-size="10" fill="#666666">+ name: string</text>
  <text x="680" y="66" font-size="10" fill="#666666">+ status: any</text>
  <rect x="1992" y="12" width="200" height="126" fill="#e1f5fe" stroke="#01579b" stroke-width="2" rx="5"/>
  <text x="2092" y="30" font-size="12" font-weight="bold" fill="#333333" text-anchor="middle">ProgressSummary</text>
  <line x1="1997" y1="47" x2="2187" y2="47" stroke="#01579b" stroke-width="1"/>
  <text x="2000" y="50" font-size="10" fill="#666666">+ totalDuration: number</text>
  <text x="2000" y="66" font-size="10" fill="#666666">+ totalDurationFormatted: string</text>
  <text x="2000" y="82" font-size="10" fill="#666666">+ successCount: number</text>
  <text x="2000" y="98" font-size="10" fill="#666666">+ failureCount: number</text>
  <text x="2000" y="114" font-size="10" fill="#666666">+ warningCount: number</text>
  <rect x="262" y="828" width="200" height="100" fill="#e1f5fe" stroke="#01579b" stroke-width="2" rx="5"/>
  <text x="362" y="846" font-size="12" font-weight="bold" fill="#333333" text-anchor="middle">ParseError</text>
  <line x1="267" y1="863" x2="457" y2="863" stroke="#01579b" stroke-width="1"/>
  <text x="270" y="866" font-size="10" fill="#666666">+ constructor(message: string, f...</text>
  <rect x="512" y="818" width="200" height="100" fill="#e1f5fe" stroke="#01579b" stroke-width="2" rx="5"/>
  <text x="612" y="836" font-size="12" font-weight="bold" fill="#333333" text-anchor="middle">APIError</text>
  <line x1="517" y1="853" x2="707" y2="853" stroke="#01579b" stroke-width="1"/>
  <text x="520" y="856" font-size="10" fill="#666666">+ constructor(message: string, s...</text>
  <rect x="762" y="768" width="200" height="100" fill="#e1f5fe" stroke="#01579b" stroke-width="2" rx="5"/>
  <text x="862" y="786" font-size="12" font-weight="bold" fill="#333333" text-anchor="middle">ValidationError</text>
  <line x1="767" y1="803" x2="957" y2="803" stroke="#01579b" stroke-width="1"/>
  <text x="770" y="806" font-size="10" fill="#666666">+ constructor(message: string, s...</text>
  <rect x="983" y="718" width="200" height="100" fill="#e1f5fe" stroke="#01579b" stroke-width="2" rx="5"/>
  <text x="1083" y="736" font-size="12" font-weight="bold" fill="#333333" text-anchor="middle">FileError</text>
  <line x1="988" y1="753" x2="1178" y2="753" stroke="#01579b" stroke-width="1"/>
  <text x="991" y="756" font-size="10" fill="#666666">+ constructor(message: string, f...</text>
  <rect x="3122" y="12" width="200" height="191" fill="#e1f5fe" stroke="#01579b" stroke-width="2" rx="5"/>
  <text x="3222" y="30" font-size="12" font-weight="bold" fill="#333333" text-anchor="middle">ConfigLoader</text>
  <line x1="3127" y1="47" x2="3317" y2="47" stroke="#01579b" stroke-width="1"/>
  <text x="3130" y="50" font-size="10" fill="#666666">- configDir: string</text>
  <line x1="3127" y1="66" x2="3317" y2="66" stroke="#01579b" stroke-width="1"/>
  <text x="3130" y="69" font-size="10" fill="#666666">+ load(cliOptions?: z.infer~any,...</text>
  <text x="3130" y="85" font-size="10" fill="#666666">- normalizeConfig(config: FileCo...</text>
  <text x="3130" y="101" font-size="10" fill="#666666">- deepMerge(target: FileConfig, ...</text>
  <text x="3130" y="117" font-size="10" fill="#666666">- isObject(item: unknown): boolean</text>
  <text x="3130" y="133" font-size="10" fill="#666666">- loadFromFile(configPath?: stri...</text>
  <text x="3130" y="149" font-size="10" fill="#666666">+ init(options?: object): Promise</text>
  <text x="3130" y="165" font-size="10" fill="#666666">+ getConfigPath(): Promise</text>
  <text x="3130" y="181" font-size="10" fill="#666666">+ constructor(configDir?: string)</text>
  <rect x="3122" y="283" width="200" height="100" fill="#e1f5fe" stroke="#01579b" stroke-width="2" rx="5"/>
  <text x="3222" y="301" font-size="12" font-weight="bold" fill="#333333" text-anchor="middle">FileConfig</text>
  <rect x="892" y="12" width="200" height="100" fill="#e1f5fe" stroke="#01579b" stroke-width="2" rx="5"/>
  <text x="992" y="30" font-size="12" font-weight="bold" fill="#333333" text-anchor="middle">CLIConfig</text>
  <line x1="897" y1="47" x2="1087" y2="47" stroke="#01579b" stroke-width="1"/>
  <text x="900" y="50" font-size="10" fill="#666666">+ command: string</text>
  <text x="900" y="66" font-size="10" fill="#666666">+ args: Array</text>
  <text x="900" y="82" font-size="10" fill="#666666">+ timeout: number</text>
  <rect x="2212" y="12" width="200" height="142" fill="#e1f5fe" stroke="#01579b" stroke-width="2" rx="5"/>
  <text x="2312" y="30" font-size="12" font-weight="bold" fill="#333333" text-anchor="middle">Config</text>
  <line x1="2217" y1="47" x2="2407" y2="47" stroke="#01579b" stroke-width="1"/>
  <text x="2220" y="50" font-size="10" fill="#666666">+ source: any</text>
  <text x="2220" y="66" font-size="10" fill="#666666">+ outputDir: string</text>
  <text x="2220" y="82" font-size="10" fill="#666666">+ format: any</text>
  <text x="2220" y="98" font-size="10" fill="#666666">+ exclude: Array</text>
  <text x="2220" y="114" font-size="10" fill="#666666">+ cli: any</text>
  <text x="2220" y="130" font-size="10" fill="#666666">+ cache: object</text>
  <rect x="1112" y="12" width="200" height="100" fill="#e1f5fe" stroke="#01579b" stroke-width="2" rx="5"/>
  <text x="1212" y="30" font-size="12" font-weight="bold" fill="#333333" text-anchor="middle">AnalyzeOptions</text>
  <line x1="1117" y1="47" x2="1307" y2="47" stroke="#01579b" stroke-width="1"/>
  <text x="1120" y="50" font-size="10" fill="#666666">+ source: any</text>
  <text x="1120" y="66" font-size="10" fill="#666666">+ format: any</text>
  <text x="1120" y="82" font-size="10" fill="#666666">+ cache: boolean</text>
  <rect x="2244" y="515" width="200" height="191" fill="#e1f5fe" stroke="#01579b" stroke-width="2" rx="5"/>
  <text x="2344" y="533" font-size="12" font-weight="bold" fill="#333333" text-anchor="middle">DiagramProcessor</text>
  <line x1="2249" y1="550" x2="2439" y2="550" stroke="#01579b" stroke-width="1"/>
  <text x="2252" y="553" font-size="10" fill="#666666">- diagrams: Array</text>
  <text x="2252" y="569" font-size="10" fill="#666666">- globalConfig: GlobalConfig</text>
  <text x="2252" y="585" font-size="10" fill="#666666">- progress: ProgressReporter</text>
  <text x="2252" y="601" font-size="10" fill="#666666">- fileDiscovery: FileDiscoveryService</text>
  <text x="2252" y="617" font-size="10" fill="#666666">- aggregator: ArchJSONAggregator</text>
  <line x1="2249" y1="633" x2="2439" y2="633" stroke="#01579b" stroke-width="1"/>
  <text x="2252" y="636" font-size="10" fill="#666666">+ processAll(): Promise</text>
  <text x="2252" y="652" font-size="10" fill="#666666">- processDiagram(diagram: Diagra...</text>
  <text x="2252" y="668" font-size="10" fill="#666666">- generateOutput(archJSON: ArchJ...</text>
  <text x="2252" y="684" font-size="10" fill="#666666">+ constructor(options: any)</text>
  <rect x="1332" y="12" width="200" height="100" fill="#e1f5fe" stroke="#01579b" stroke-width="2" rx="5"/>
  <text x="1432" y="30" font-size="12" font-weight="bold" fill="#333333" text-anchor="middle">DiagramProcessorOptions</text>
  <line x1="1337" y1="47" x2="1527" y2="47" stroke="#01579b" stroke-width="1"/>
  <text x="1340" y="50" font-size="10" fill="#666666">+ diagrams: Array</text>
  <text x="1340" y="66" font-size="10" fill="#666666">+ globalConfig: GlobalConfig</text>
  <text x="1340" y="82" font-size="10" fill="#666666">+ progress: ProgressReporter</text>
  <rect x="3986" y="736" width="200" height="100" fill="#e1f5fe" stroke="#01579b" stroke-width="2" rx="5"/>
  <text x="4086" y="754" font-size="12" font-weight="bold" fill="#333333" text-anchor="middle">DiagramResult</text>
  <line x1="3991" y1="771" x2="4181" y2="771" stroke="#01579b" stroke-width="1"/>
  <text x="3994" y="774" font-size="10" fill="#666666">+ name: string</text>
  <text x="3994" y="790" font-size="10" fill="#666666">+ success: boolean</text>
  <rect x="3802" y="515" width="200" height="141" fill="#e1f5fe" stroke="#01579b" stroke-width="2" rx="5"/>
  <text x="3902" y="533" font-size="12" font-weight="bold" fill="#333333" text-anchor="middle">DiagramIndexGenerator</text>
  <line x1="3807" y1="550" x2="3997" y2="550" stroke="#01579b" stroke-width="1"/>
  <text x="3810" y="553" font-size="10" fill="#666666">+ generate(results: Array): Promise</text>
  <text x="3810" y="569" font-size="10" fill="#666666">- buildIndexContent(results: Arr...</text>
  <text x="3810" y="585" font-size="10" fill="#666666">- buildDiagramSection(result: Di...</text>
  <text x="3810" y="601" font-size="10" fill="#666666">- buildSummarySection(successful...</text>
  <text x="3810" y="617" font-size="10" fill="#666666">- buildFailedSection(failed: Arr...</text>
  <text x="3810" y="633" font-size="10" fill="#666666">+ constructor(globalConfig: Glob...</text>
  <rect x="2986" y="796" width="200" height="100" fill="#e1f5fe" stroke="#01579b" stroke-width="2" rx="5"/>
  <text x="3086" y="814" font-size="12" font-weight="bold" fill="#333333" text-anchor="middle">FileDiscoveryService</text>
  <line x1="2991" y1="831" x2="3181" y2="831" stroke="#01579b" stroke-width="1"/>
  <text x="2994" y="834" font-size="10" fill="#666666">+ discoverFiles(options?: any): ...</text>
  <text x="2994" y="850" font-size="10" fill="#666666">- discoverFromGlob(options: obje...</text>
  <rect x="1552" y="12" width="200" height="100" fill="#e1f5fe" stroke="#01579b" stroke-width="2" rx="5"/>
  <text x="1652" y="30" font-size="12" font-weight="bold" fill="#333333" text-anchor="middle">FileDiscoveryOptions</text>
  <rect x="4812" y="12" width="200" height="157" fill="#e1f5fe" stroke="#01579b" stroke-width="2" rx="5"/>
  <text x="4912" y="30" font-size="12" font-weight="bold" fill="#333333" text-anchor="middle">OutputPathResolver</text>
  <line x1="4817" y1="47" x2="5007" y2="47" stroke="#01579b" stroke-width="1"/>
  <text x="4820" y="50" font-size="10" fill="#666666">+ resolve(options?: any): any</text>
  <text x="4820" y="66" font-size="10" fill="#666666">+ ensureDirectory(options?: any)...</text>
  <text x="4820" y="82" font-size="10" fill="#666666">- buildPathResolution(outputDir:...</text>
  <text x="4820" y="98" font-size="10" fill="#666666">- parseCustomName(customName: st...</text>
  <text x="4820" y="114" font-size="10" fill="#666666">- determineBasePath(options: any...</text>
  <text x="4820" y="130" font-size="10" fill="#666666">- parseBasePath(basePath: string...</text>
  <text x="4820" y="146" font-size="10" fill="#666666">+ constructor(config: object)</text>
  <rect x="2432" y="192" width="200" height="100" fill="#e1f5fe" stroke="#01579b" stroke-width="2" rx="5"/>
  <text x="2532" y="210" font-size="12" font-weight="bold" fill="#333333" text-anchor="middle">PathResolution</text>
  <line x1="2437" y1="227" x2="2627" y2="227" stroke="#01579b" stroke-width="1"/>
  <text x="2440" y="230" font-size="10" fill="#666666">+ outputDir: string</text>
  <text x="2440" y="246" font-size="10" fill="#666666">+ baseName: string</text>
  <text x="2440" y="262" font-size="10" fill="#666666">+ paths: object</text>
  <rect x="2652" y="192" width="200" height="100" fill="#e1f5fe" stroke="#01579b" stroke-width="2" rx="5"/>
  <text x="2752" y="210" font-size="12" font-weight="bold" fill="#333333" text-anchor="middle">ResolveOptions</text>
  <rect x="2652" y="12" width="200" height="100" fill="#e1f5fe" stroke="#01579b" stroke-width="2" rx="5"/>
  <text x="2752" y="30" font-size="12" font-weight="bold" fill="#333333" text-anchor="middle">OutputPathOptions</text>
  <rect x="2432" y="12" width="200" height="100" fill="#e1f5fe" stroke="#01579b" stroke-width="2" rx="5"/>
  <text x="2532" y="30" font-size="12" font-weight="bold" fill="#333333" text-anchor="middle">ResolvedPaths</text>
  <line x1="2437" y1="47" x2="2627" y2="47" stroke="#01579b" stroke-width="1"/>
  <text x="2440" y="50" font-size="10" fill="#666666">+ dir: string</text>
  <rect x="3592" y="395" width="200" height="100" fill="#e1f5fe" stroke="#01579b" stroke-width="2" rx="5"/>
  <text x="3692" y="413" font-size="12" font-weight="bold" fill="#333333" text-anchor="middle">import___home_yale_work_archguard_src_cli_cache_manager___CacheStats</text>
  <rect x="3842" y="395" width="200" height="100" fill="#e1f5fe" stroke="#01579b" stroke-width="2" rx="5"/>
  <text x="3942" y="413" font-size="12" font-weight="bold" fill="#333333" text-anchor="middle">T</text>
  <rect x="4092" y="335" width="200" height="100" fill="#e1f5fe" stroke="#01579b" stroke-width="2" rx="5"/>
  <text x="4192" y="353" font-size="12" font-weight="bold" fill="#333333" text-anchor="middle">import___home_yale_work_archguard_src_cli_cache_manager___CacheOptions</text>
  <rect x="2872" y="223" width="200" height="100" fill="#e1f5fe" stroke="#01579b" stroke-width="2" rx="5"/>
  <text x="2972" y="241" font-size="12" font-weight="bold" fill="#333333" text-anchor="middle">z_infer</text>
  <rect x="3372" y="223" width="200" height="100" fill="#e1f5fe" stroke="#01579b" stroke-width="2" rx="5"/>
  <text x="3472" y="241" font-size="12" font-weight="bold" fill="#333333" text-anchor="middle">__format____json_</text>
  <rect x="12" y="708" width="200" height="100" fill="#e1f5fe" stroke="#01579b" stroke-width="2" rx="5"/>
  <text x="112" y="726" font-size="12" font-weight="bold" fill="#333333" text-anchor="middle">import___home_yale_work_archguard_src_cli_error_handler___ErrorFormatOptions</text>
  <rect x="762" y="948" width="200" height="100" fill="#e1f5fe" stroke="#01579b" stroke-width="2" rx="5"/>
  <text x="862" y="966" font-size="12" font-weight="bold" fill="#333333" text-anchor="middle">Error</text>
  <rect x="1016" y="898" width="200" height="100" fill="#e1f5fe" stroke="#01579b" stroke-width="2" rx="5"/>
  <text x="1116" y="916" font-size="12" font-weight="bold" fill="#333333" text-anchor="middle">_read_</text>
  <rect x="3006" y="1073" width="200" height="100" fill="#e1f5fe" stroke="#01579b" stroke-width="2" rx="5"/>
  <text x="3106" y="1091" font-size="12" font-weight="bold" fill="#333333" text-anchor="middle">Ora</text>
  <rect x="2506" y="1083" width="200" height="100" fill="#e1f5fe" stroke="#01579b" stroke-width="2" rx="5"/>
  <text x="2606" y="1101" font-size="12" font-weight="bold" fill="#333333" text-anchor="middle">import___home_yale_work_archguard_src_cli_progress___Stage</text>
  <rect x="2756" y="1133" width="200" height="100" fill="#e1f5fe" stroke="#01579b" stroke-width="2" rx="5"/>
  <text x="2856" y="1151" font-size="12" font-weight="bold" fill="#333333" text-anchor="middle">import___home_yale_work_archguard_src_cli_progress___ProgressSummary</text>
  <rect x="1986" y="766" width="200" height="100" fill="#e1f5fe" stroke="#01579b" stroke-width="2" rx="5"/>
  <text x="2086" y="784" font-size="12" font-weight="bold" fill="#333333" text-anchor="middle">DiagramConfig</text>
  <rect x="3736" y="736" width="200" height="100" fill="#e1f5fe" stroke="#01579b" stroke-width="2" rx="5"/>
  <text x="3836" y="754" font-size="12" font-weight="bold" fill="#333333" text-anchor="middle">GlobalConfig</text>
  <rect x="1236" y="726" width="200" height="100" fill="#e1f5fe" stroke="#01579b" stroke-width="2" rx="5"/>
  <text x="1336" y="744" font-size="12" font-weight="bold" fill="#333333" text-anchor="middle">ArchJSONAggregator</text>
  <rect x="2236" y="786" width="200" height="100" fill="#e1f5fe" stroke="#01579b" stroke-width="2" rx="5"/>
  <text x="2336" y="804" font-size="12" font-weight="bold" fill="#333333" text-anchor="middle">import___home_yale_work_archguard_src_cli_processors_diagram_processor___DiagramProcessorOptions</text>
  <rect x="1486" y="736" width="200" height="100" fill="#e1f5fe" stroke="#01579b" stroke-width="2" rx="5"/>
  <text x="1586" y="754" font-size="12" font-weight="bold" fill="#333333" text-anchor="middle">import___home_yale_work_archguard_src_cli_processors_diagram_processor___DiagramResult</text>
  <rect x="1736" y="746" width="200" height="100" fill="#e1f5fe" stroke="#01579b" stroke-width="2" rx="5"/>
  <text x="1836" y="764" font-size="12" font-weight="bold" fill="#333333" text-anchor="middle">ArchJSON</text>
  <rect x="2486" y="903" width="200" height="100" fill="#e1f5fe" stroke="#01579b" stroke-width="2" rx="5"/>
  <text x="2586" y="921" font-size="12" font-weight="bold" fill="#333333" text-anchor="middle">__paths____json__string__mmd__string__png__string__svg__string______</text>
  <rect x="3486" y="736" width="200" height="100" fill="#e1f5fe" stroke="#01579b" stroke-width="2" rx="5"/>
  <text x="3586" y="754" font-size="12" font-weight="bold" fill="#333333" text-anchor="middle">OutputFormat</text>
  <rect x="3236" y="746" width="200" height="100" fill="#e1f5fe" stroke="#01579b" stroke-width="2" rx="5"/>
  <text x="3336" y="764" font-size="12" font-weight="bold" fill="#333333" text-anchor="middle">DetailLevel</text>
  <rect x="3506" y="916" width="200" height="100" fill="#e1f5fe" stroke="#01579b" stroke-width="2" rx="5"/>
  <text x="3606" y="934" font-size="12" font-weight="bold" fill="#333333" text-anchor="middle">import___home_yale_work_archguard_src_cli_utils_file_discovery_service___FileDiscoveryOptions</text>
  <rect x="3256" y="926" width="200" height="100" fill="#e1f5fe" stroke="#01579b" stroke-width="2" rx="5"/>
  <text x="3356" y="944" font-size="12" font-weight="bold" fill="#333333" text-anchor="middle">__source__string__exclude__string____skipMissing__boolean___</text>
  <rect x="4312" y="189" width="200" height="100" fill="#e1f5fe" stroke="#01579b" stroke-width="2" rx="5"/>
  <text x="4412" y="207" font-size="12" font-weight="bold" fill="#333333" text-anchor="middle">__outputDir__string__output___string___</text>
  <rect x="4562" y="199" width="200" height="100" fill="#e1f5fe" stroke="#01579b" stroke-width="2" rx="5"/>
  <text x="4662" y="217" font-size="12" font-weight="bold" fill="#333333" text-anchor="middle">import___home_yale_work_archguard_src_cli_utils_output_path_resolver___PathResolution</text>
  <rect x="4812" y="249" width="200" height="100" fill="#e1f5fe" stroke="#01579b" stroke-width="2" rx="5"/>
  <text x="4912" y="267" font-size="12" font-weight="bold" fill="#333333" text-anchor="middle">import___home_yale_work_archguard_src_cli_utils_output_path_resolver___ResolveOptions</text>
  <rect x="5062" y="199" width="200" height="100" fill="#e1f5fe" stroke="#01579b" stroke-width="2" rx="5"/>
  <text x="5162" y="217" font-size="12" font-weight="bold" fill="#333333" text-anchor="middle">__outputDir__string__fileName__string___</text>
  <rect x="5312" y="189" width="200" height="100" fill="#e1f5fe" stroke="#01579b" stroke-width="2" rx="5"/>
  <text x="5412" y="207" font-size="12" font-weight="bold" fill="#333333" text-anchor="middle">__dir__string__baseName__string___</text>
</svg>