<svg xmlns="http://www.w3.org/2000/svg" width="2492" height="2843" viewBox="0 0 2492 2843">
  <rect width="100%" height="100%" fill="#ffffff"/>
  <line x1="1612" y1="325.5" x2="1892" y2="252" stroke="#666666" stroke-width="2" marker-end="url(#arrowhead)"/>
  <line x1="1612" y1="325.5" x2="1892" y2="402" stroke="#666666" stroke-width="2" marker-end="url(#arrowhead)"/>
  <line x1="1612" y1="325.5" x2="1832" y2="552" stroke="#666666" stroke-width="2" marker-end="url(#arrowhead)"/>
  <line x1="1612" y1="325.5" x2="1892" y2="252" stroke="#666666" stroke-width="2" marker-end="url(#arrowhead)"/>
  <line x1="1112" y1="373.5" x2="1392" y2="224" stroke="#666666" stroke-width="2" marker-end="url(#arrowhead)"/>
  <line x1="1112" y1="373.5" x2="1392" y2="374" stroke="#666666" stroke-width="2" marker-end="url(#arrowhead)"/>
  <line x1="1112" y1="373.5" x2="1392" y2="524" stroke="#666666" stroke-width="2" marker-end="url(#arrowhead)"/>
  <line x1="112" y1="1381.5" x2="332" y2="944" stroke="#666666" stroke-width="2" marker-end="url(#arrowhead)"/>
  <line x1="112" y1="1381.5" x2="452" y2="1094" stroke="#666666" stroke-width="2" marker-end="url(#arrowhead)"/>
  <line x1="112" y1="1381.5" x2="442" y2="1244" stroke="#666666" stroke-width="2" marker-end="url(#arrowhead)"/>
  <line x1="112" y1="1381.5" x2="392" y2="1394" stroke="#666666" stroke-width="2" marker-end="url(#arrowhead)"/>
  <line x1="112" y1="1381.5" x2="392" y2="1515" stroke="#666666" stroke-width="2" marker-end="url(#arrowhead)"/>
  <line x1="112" y1="1381.5" x2="672" y2="1394" stroke="#666666" stroke-width="2" marker-end="url(#arrowhead)"/>
  <line x1="452" y1="1094" x2="672" y2="1394" stroke="#666666" stroke-width="2" marker-end="url(#arrowhead)"/>
  <line x1="442" y1="1244" x2="672" y2="1394" stroke="#666666" stroke-width="2" marker-end="url(#arrowhead)"/>
  <line x1="392" y1="1394" x2="672" y2="1394" stroke="#666666" stroke-width="2" marker-end="url(#arrowhead)"/>
  <line x1="392" y1="1515" x2="672" y2="1394" stroke="#666666" stroke-width="2" marker-end="url(#arrowhead)"/>
  <line x1="392" y1="1515" x2="672" y2="1544" stroke="#666666" stroke-width="2" marker-end="url(#arrowhead)"/>
  <line x1="1152" y1="1937.5" x2="1432" y2="2116" stroke="#666666" stroke-width="2" marker-end="url(#arrowhead)"/>
  <line x1="1152" y1="1937.5" x2="1432" y2="1816" stroke="#666666" stroke-width="2" marker-end="url(#arrowhead)"/>
  <line x1="1152" y1="1937.5" x2="1432" y2="1816" stroke="#666666" stroke-width="2" marker-end="url(#arrowhead)"/>
  <line x1="1152" y1="1937.5" x2="1432" y2="1966" stroke="#666666" stroke-width="2" marker-end="url(#arrowhead)"/>
  <line x1="892" y1="1551.5" x2="1152" y2="1394" stroke="#666666" stroke-width="2" marker-end="url(#arrowhead)"/>
  <line x1="892" y1="1551.5" x2="1172" y2="2631" stroke="#666666" stroke-width="2" marker-end="url(#arrowhead)"/>
  <line x1="892" y1="1551.5" x2="1152" y2="1937.5" stroke="#666666" stroke-width="2" marker-end="url(#arrowhead)"/>
  <line x1="892" y1="1551.5" x2="1142" y2="2181" stroke="#666666" stroke-width="2" marker-end="url(#arrowhead)"/>
  <line x1="892" y1="1551.5" x2="1112" y2="944" stroke="#666666" stroke-width="2" marker-end="url(#arrowhead)"/>
  <line x1="892" y1="1551.5" x2="1172" y2="1544" stroke="#666666" stroke-width="2" marker-end="url(#arrowhead)"/>
  <line x1="892" y1="1551.5" x2="1122" y2="1094" stroke="#666666" stroke-width="2" marker-end="url(#arrowhead)"/>
  <line x1="892" y1="1551.5" x2="1152" y2="1394" stroke="#666666" stroke-width="2" marker-end="url(#arrowhead)"/>
  <line x1="892" y1="1551.5" x2="1132" y2="1244" stroke="#666666" stroke-width="2" marker-end="url(#arrowhead)"/>
  <line x1="892" y1="1551.5" x2="1172" y2="1694" stroke="#666666" stroke-width="2" marker-end="url(#arrowhead)"/>
  <line x1="892" y1="1551.5" x2="1132" y2="2481" stroke="#666666" stroke-width="2" marker-end="url(#arrowhead)"/>
  <line x1="892" y1="1551.5" x2="1132" y2="2331" stroke="#666666" stroke-width="2" marker-end="url(#arrowhead)"/>
  <line x1="892" y1="2671.5" x2="1172" y2="2631" stroke="#666666" stroke-width="2" marker-end="url(#arrowhead)"/>
  <line x1="892" y1="2671.5" x2="1172" y2="2781" stroke="#666666" stroke-width="2" marker-end="url(#arrowhead)"/>
  <line x1="1142" y1="2181" x2="1412" y2="2416" stroke="#666666" stroke-width="2" marker-end="url(#arrowhead)"/>
  <line x1="1142" y1="2181" x2="1422" y2="2266" stroke="#666666" stroke-width="2" marker-end="url(#arrowhead)"/>
  <line x1="2112" y1="523.5" x2="2332" y2="224" stroke="#666666" stroke-width="2" marker-end="url(#arrowhead)"/>
  <line x1="2112" y1="523.5" x2="2342" y2="374" stroke="#666666" stroke-width="2" marker-end="url(#arrowhead)"/>
  <line x1="2112" y1="523.5" x2="2392" y2="524" stroke="#666666" stroke-width="2" marker-end="url(#arrowhead)"/>
  <line x1="2112" y1="523.5" x2="2342" y2="674" stroke="#666666" stroke-width="2" marker-end="url(#arrowhead)"/>
  <line x1="2112" y1="523.5" x2="2332" y2="824" stroke="#666666" stroke-width="2" marker-end="url(#arrowhead)"/>
  <line x1="612" y1="224" x2="892" y2="224" stroke="#666666" stroke-width="2" marker-end="url(#arrowhead)"/>
  <line x1="112" y1="224" x2="392" y2="224" stroke="#666666" stroke-width="2" marker-end="url(#arrowhead)"/>
  <defs>
    <marker id="arrowhead" markerWidth="10" markerHeight="10" refX="10" refY="3" orient="auto">
      <polygon points="0 0, 10 3, 0 6" fill="#666666"/>
    </marker>
  </defs>
  <rect x="1512" y="174" width="200" height="303" fill="#e1f5fe" stroke="#01579b" stroke-width="2" rx="5"/>
  <text x="1612" y="192" font-size="12" font-weight="bold" fill="#333333" text-anchor="middle">CacheManager</text>
  <line x1="1517" y1="209" x2="1707" y2="209" stroke="#01579b" stroke-width="1"/>
  <text x="1520" y="212" font-size="10" fill="#666666">+ cacheDir: string</text>
  <text x="1520" y="228" font-size="10" fill="#666666">- stats: any</text>
  <text x="1520" y="244" font-size="10" fill="#666666">- defaultTTL: number</text>
  <line x1="1517" y1="260" x2="1707" y2="260" stroke="#01579b" stroke-width="1"/>
  <text x="1520" y="263" font-size="10" fill="#666666">+ computeFileHash(filePath: stri...</text>
  <text x="1520" y="279" font-size="10" fill="#666666">+ get(filePath: string, hash: st...</text>
  <text x="1520" y="295" font-size="10" fill="#666666">+ set(filePath: string, hash: st...</text>
  <text x="1520" y="311" font-size="10" fill="#666666">+ clear(): Promise</text>
  <text x="1520" y="327" font-size="10" fill="#666666">+ getStats(): any</text>
  <text x="1520" y="343" font-size="10" fill="#666666">+ getCacheSize(): Promise</text>
  <text x="1520" y="359" font-size="10" fill="#666666">- getAllCacheFiles(): Promise</text>
  <text x="1520" y="375" font-size="10" fill="#666666">- getCacheKey(filePath: string, ...</text>
  <text x="1520" y="391" font-size="10" fill="#666666">- getCachePath(cacheKey: string)...</text>
  <text x="1520" y="407" font-size="10" fill="#666666">- updateHitRate()</text>
  <text x="1520" y="423" font-size="10" fill="#666666">+ setDefaultTTL(ttl: number)</text>
  <text x="1520" y="439" font-size="10" fill="#666666">+ getDefaultTTL(): number</text>
  <text x="1520" y="455" font-size="10" fill="#666666">+ constructor(cacheDir?: string)</text>
  <rect x="1772" y="12" width="200" height="110" fill="#e1f5fe" stroke="#01579b" stroke-width="2" rx="5"/>
  <text x="1872" y="30" font-size="12" font-weight="bold" fill="#333333" text-anchor="middle">CacheStats</text>
  <line x1="1777" y1="47" x2="1967" y2="47" stroke="#01579b" stroke-width="1"/>
  <text x="1780" y="50" font-size="10" fill="#666666">+ hits: number</text>
  <text x="1780" y="66" font-size="10" fill="#666666">+ misses: number</text>
  <text x="1780" y="82" font-size="10" fill="#666666">+ hitRate: number</text>
  <text x="1780" y="98" font-size="10" fill="#666666">+ totalSize: number</text>
  <rect x="12" y="12" width="200" height="100" fill="#e1f5fe" stroke="#01579b" stroke-width="2" rx="5"/>
  <text x="112" y="30" font-size="12" font-weight="bold" fill="#333333" text-anchor="middle">CacheOptions</text>
  <rect x="232" y="12" width="200" height="100" fill="#e1f5fe" stroke="#01579b" stroke-width="2" rx="5"/>
  <text x="332" y="30" font-size="12" font-weight="bold" fill="#333333" text-anchor="middle">CacheEntry</text>
  <line x1="237" y1="47" x2="427" y2="47" stroke="#01579b" stroke-width="1"/>
  <text x="240" y="50" font-size="10" fill="#666666">+ data: T</text>
  <text x="240" y="66" font-size="10" fill="#666666">+ timestamp: number</text>
  <text x="240" y="82" font-size="10" fill="#666666">+ ttl: number</text>
  <rect x="12" y="1295" width="200" height="173" fill="#e1f5fe" stroke="#01579b" stroke-width="2" rx="5"/>
  <text x="112" y="1313" font-size="12" font-weight="bold" fill="#333333" text-anchor="middle">ErrorHandler</text>
  <line x1="17" y1="1330" x2="207" y2="1330" stroke="#01579b" stroke-width="1"/>
  <text x="20" y="1333" font-size="10" fill="#666666">+ format(error: unknown, options...</text>
  <text x="20" y="1349" font-size="10" fill="#666666">- formatParseError(error: ParseE...</text>
  <text x="20" y="1365" font-size="10" fill="#666666">- formatAPIError(error: APIError...</text>
  <text x="20" y="1381" font-size="10" fill="#666666">- formatValidationError(error: V...</text>
  <text x="20" y="1397" font-size="10" fill="#666666">- formatFileError(error: FileErr...</text>
  <text x="20" y="1413" font-size="10" fill="#666666">- formatGenericError(error: Erro...</text>
  <text x="20" y="1429" font-size="10" fill="#666666">- formatStringError(error: strin...</text>
  <text x="20" y="1445" font-size="10" fill="#666666">- formatUnknownError(useColor: b...</text>
  <rect x="452" y="12" width="200" height="100" fill="#e1f5fe" stroke="#01579b" stroke-width="2" rx="5"/>
  <text x="552" y="30" font-size="12" font-weight="bold" fill="#333333" text-anchor="middle">ErrorFormatOptions</text>
  <rect x="1052" y="1794" width="200" height="287" fill="#e1f5fe" stroke="#01579b" stroke-width="2" rx="5"/>
  <text x="1152" y="1812" font-size="12" font-weight="bold" fill="#333333" text-anchor="middle">ProgressReporter</text>
  <line x1="1057" y1="1829" x2="1247" y2="1829" stroke="#01579b" stroke-width="1"/>
  <text x="1060" y="1832" font-size="10" fill="#666666">- spinner: Ora</text>
  <text x="1060" y="1848" font-size="10" fill="#666666">- stages: any</text>
  <text x="1060" y="1864" font-size="10" fill="#666666">- currentStage: any</text>
  <line x1="1057" y1="1880" x2="1247" y2="1880" stroke="#01579b" stroke-width="1"/>
  <text x="1060" y="1883" font-size="10" fill="#666666">+ start(message: string)</text>
  <text x="1060" y="1899" font-size="10" fill="#666666">+ update(completed: number, tota...</text>
  <text x="1060" y="1915" font-size="10" fill="#666666">+ succeed(message: string)</text>
  <text x="1060" y="1931" font-size="10" fill="#666666">+ fail(message: string)</text>
  <text x="1060" y="1947" font-size="10" fill="#666666">+ warn(message: string)</text>
  <text x="1060" y="1963" font-size="10" fill="#666666">+ info(message: string)</text>
  <text x="1060" y="1979" font-size="10" fill="#666666">+ getStages(): any</text>
  <text x="1060" y="1995" font-size="10" fill="#666666">+ getCurrentStage(): any</text>
  <text x="1060" y="2011" font-size="10" fill="#666666">+ getSummary(): any</text>
  <text x="1060" y="2027" font-size="10" fill="#666666">+ printSummary()</text>
  <text x="1060" y="2043" font-size="10" fill="#666666">+ stop()</text>
  <text x="1060" y="2059" font-size="10" fill="#666666">+ constructor()</text>
  <rect x="672" y="12" width="200" height="100" fill="#e1f5fe" stroke="#01579b" stroke-width="2" rx="5"/>
  <text x="772" y="30" font-size="12" font-weight="bold" fill="#333333" text-anchor="middle">Stage</text>
  <line x1="677" y1="47" x2="867" y2="47" stroke="#01579b" stroke-width="1"/>
  <text x="680" y="50" font-size="10" fill="#666666">+ name: string</text>
  <text x="680" y="66" font-size="10" fill="#666666">+ status: any</text>
  <rect x="1992" y="12" width="200" height="126" fill="#e1f5fe" stroke="#01579b" stroke-width="2" rx="5"/>
  <text x="2092" y="30" font-size="12" font-weight="bold" fill="#333333" text-anchor="middle">ProgressSummary</text>
  <line x1="1997" y1="47" x2="2187" y2="47" stroke="#01579b" stroke-width="1"/>
  <text x="2000" y="50" font-size="10" fill="#666666">+ totalDuration: number</text>
  <text x="2000" y="66" font-size="10" fill="#666666">+ totalDurationFormatted: string</text>
  <text x="2000" y="82" font-size="10" fill="#666666">+ successCount: number</text>
  <text x="2000" y="98" font-size="10" fill="#666666">+ failureCount: number</text>
  <text x="2000" y="114" font-size="10" fill="#666666">+ warningCount: number</text>
  <rect x="352" y="1044" width="200" height="100" fill="#e1f5fe" stroke="#01579b" stroke-width="2" rx="5"/>
  <text x="452" y="1062" font-size="12" font-weight="bold" fill="#333333" text-anchor="middle">ParseError</text>
  <line x1="357" y1="1079" x2="547" y2="1079" stroke="#01579b" stroke-width="1"/>
  <text x="360" y="1082" font-size="10" fill="#666666">+ constructor(message: string, f...</text>
  <rect x="342" y="1194" width="200" height="100" fill="#e1f5fe" stroke="#01579b" stroke-width="2" rx="5"/>
  <text x="442" y="1212" font-size="12" font-weight="bold" fill="#333333" text-anchor="middle">APIError</text>
  <line x1="347" y1="1229" x2="537" y2="1229" stroke="#01579b" stroke-width="1"/>
  <text x="350" y="1232" font-size="10" fill="#666666">+ constructor(message: string, s...</text>
  <rect x="292" y="1344" width="200" height="100" fill="#e1f5fe" stroke="#01579b" stroke-width="2" rx="5"/>
  <text x="392" y="1362" font-size="12" font-weight="bold" fill="#333333" text-anchor="middle">ValidationError</text>
  <line x1="297" y1="1379" x2="487" y2="1379" stroke="#01579b" stroke-width="1"/>
  <text x="300" y="1382" font-size="10" fill="#666666">+ constructor(message: string, s...</text>
  <rect x="292" y="1465" width="200" height="100" fill="#e1f5fe" stroke="#01579b" stroke-width="2" rx="5"/>
  <text x="392" y="1483" font-size="12" font-weight="bold" fill="#333333" text-anchor="middle">FileError</text>
  <line x1="297" y1="1500" x2="487" y2="1500" stroke="#01579b" stroke-width="1"/>
  <text x="300" y="1503" font-size="10" fill="#666666">+ constructor(message: string, f...</text>
  <rect x="1012" y="278" width="200" height="191" fill="#e1f5fe" stroke="#01579b" stroke-width="2" rx="5"/>
  <text x="1112" y="296" font-size="12" font-weight="bold" fill="#333333" text-anchor="middle">ConfigLoader</text>
  <line x1="1017" y1="313" x2="1207" y2="313" stroke="#01579b" stroke-width="1"/>
  <text x="1020" y="316" font-size="10" fill="#666666">- configDir: string</text>
  <line x1="1017" y1="332" x2="1207" y2="332" stroke="#01579b" stroke-width="1"/>
  <text x="1020" y="335" font-size="10" fill="#666666">+ load(cliOptions?: z.infer~any,...</text>
  <text x="1020" y="351" font-size="10" fill="#666666">- normalizeConfig(config: FileCo...</text>
  <text x="1020" y="367" font-size="10" fill="#666666">- deepMerge(target: FileConfig, ...</text>
  <text x="1020" y="383" font-size="10" fill="#666666">- isObject(item: unknown): boolean</text>
  <text x="1020" y="399" font-size="10" fill="#666666">- loadFromFile(configPath?: stri...</text>
  <text x="1020" y="415" font-size="10" fill="#666666">+ init(options?: object): Promise</text>
  <text x="1020" y="431" font-size="10" fill="#666666">+ getConfigPath(): Promise</text>
  <text x="1020" y="447" font-size="10" fill="#666666">+ constructor(configDir?: string)</text>
  <rect x="1292" y="324" width="200" height="100" fill="#e1f5fe" stroke="#01579b" stroke-width="2" rx="5"/>
  <text x="1392" y="342" font-size="12" font-weight="bold" fill="#333333" text-anchor="middle">FileConfig</text>
  <rect x="892" y="12" width="200" height="100" fill="#e1f5fe" stroke="#01579b" stroke-width="2" rx="5"/>
  <text x="992" y="30" font-size="12" font-weight="bold" fill="#333333" text-anchor="middle">CLIConfig</text>
  <line x1="897" y1="47" x2="1087" y2="47" stroke="#01579b" stroke-width="1"/>
  <text x="900" y="50" font-size="10" fill="#666666">+ command: string</text>
  <text x="900" y="66" font-size="10" fill="#666666">+ args: Array</text>
  <text x="900" y="82" font-size="10" fill="#666666">+ timeout: number</text>
  <rect x="2212" y="12" width="200" height="142" fill="#e1f5fe" stroke="#01579b" stroke-width="2" rx="5"/>
  <text x="2312" y="30" font-size="12" font-weight="bold" fill="#333333" text-anchor="middle">Config</text>
  <line x1="2217" y1="47" x2="2407" y2="47" stroke="#01579b" stroke-width="1"/>
  <text x="2220" y="50" font-size="10" fill="#666666">+ source: any</text>
  <text x="2220" y="66" font-size="10" fill="#666666">+ outputDir: string</text>
  <text x="2220" y="82" font-size="10" fill="#666666">+ format: any</text>
  <text x="2220" y="98" font-size="10" fill="#666666">+ exclude: Array</text>
  <text x="2220" y="114" font-size="10" fill="#666666">+ cli: any</text>
  <text x="2220" y="130" font-size="10" fill="#666666">+ cache: object</text>
  <rect x="1112" y="12" width="200" height="100" fill="#e1f5fe" stroke="#01579b" stroke-width="2" rx="5"/>
  <text x="1212" y="30" font-size="12" font-weight="bold" fill="#333333" text-anchor="middle">AnalyzeOptions</text>
  <line x1="1117" y1="47" x2="1307" y2="47" stroke="#01579b" stroke-width="1"/>
  <text x="1120" y="50" font-size="10" fill="#666666">+ source: any</text>
  <text x="1120" y="66" font-size="10" fill="#666666">+ format: any</text>
  <text x="1120" y="82" font-size="10" fill="#666666">+ cache: boolean</text>
  <rect x="792" y="1456" width="200" height="191" fill="#e1f5fe" stroke="#01579b" stroke-width="2" rx="5"/>
  <text x="892" y="1474" font-size="12" font-weight="bold" fill="#333333" text-anchor="middle">DiagramProcessor</text>
  <line x1="797" y1="1491" x2="987" y2="1491" stroke="#01579b" stroke-width="1"/>
  <text x="800" y="1494" font-size="10" fill="#666666">- diagrams: Array</text>
  <text x="800" y="1510" font-size="10" fill="#666666">- globalConfig: GlobalConfig</text>
  <text x="800" y="1526" font-size="10" fill="#666666">- progress: ProgressReporter</text>
  <text x="800" y="1542" font-size="10" fill="#666666">- fileDiscovery: FileDiscoveryService</text>
  <text x="800" y="1558" font-size="10" fill="#666666">- aggregator: ArchJSONAggregator</text>
  <line x1="797" y1="1574" x2="987" y2="1574" stroke="#01579b" stroke-width="1"/>
  <text x="800" y="1577" font-size="10" fill="#666666">+ processAll(): Promise</text>
  <text x="800" y="1593" font-size="10" fill="#666666">- processDiagram(diagram: Diagra...</text>
  <text x="800" y="1609" font-size="10" fill="#666666">- generateOutput(archJSON: ArchJ...</text>
  <text x="800" y="1625" font-size="10" fill="#666666">+ constructor(options: any)</text>
  <rect x="1332" y="12" width="200" height="100" fill="#e1f5fe" stroke="#01579b" stroke-width="2" rx="5"/>
  <text x="1432" y="30" font-size="12" font-weight="bold" fill="#333333" text-anchor="middle">DiagramProcessorOptions</text>
  <line x1="1337" y1="47" x2="1527" y2="47" stroke="#01579b" stroke-width="1"/>
  <text x="1340" y="50" font-size="10" fill="#666666">+ diagrams: Array</text>
  <text x="1340" y="66" font-size="10" fill="#666666">+ globalConfig: GlobalConfig</text>
  <text x="1340" y="82" font-size="10" fill="#666666">+ progress: ProgressReporter</text>
  <rect x="1072" y="2731" width="200" height="100" fill="#e1f5fe" stroke="#01579b" stroke-width="2" rx="5"/>
  <text x="1172" y="2749" font-size="12" font-weight="bold" fill="#333333" text-anchor="middle">DiagramResult</text>
  <line x1="1077" y1="2766" x2="1267" y2="2766" stroke="#01579b" stroke-width="1"/>
  <text x="1080" y="2769" font-size="10" fill="#666666">+ name: string</text>
  <text x="1080" y="2785" font-size="10" fill="#666666">+ success: boolean</text>
  <rect x="792" y="2601" width="200" height="141" fill="#e1f5fe" stroke="#01579b" stroke-width="2" rx="5"/>
  <text x="892" y="2619" font-size="12" font-weight="bold" fill="#333333" text-anchor="middle">DiagramIndexGenerator</text>
  <line x1="797" y1="2636" x2="987" y2="2636" stroke="#01579b" stroke-width="1"/>
  <text x="800" y="2639" font-size="10" fill="#666666">+ generate(results: Array): Promise</text>
  <text x="800" y="2655" font-size="10" fill="#666666">- buildIndexContent(results: Arr...</text>
  <text x="800" y="2671" font-size="10" fill="#666666">- buildDiagramSection(result: Di...</text>
  <text x="800" y="2687" font-size="10" fill="#666666">- buildSummarySection(successful...</text>
  <text x="800" y="2703" font-size="10" fill="#666666">- buildFailedSection(failed: Arr...</text>
  <text x="800" y="2719" font-size="10" fill="#666666">+ constructor(globalConfig: Glob...</text>
  <rect x="1042" y="2131" width="200" height="100" fill="#e1f5fe" stroke="#01579b" stroke-width="2" rx="5"/>
  <text x="1142" y="2149" font-size="12" font-weight="bold" fill="#333333" text-anchor="middle">FileDiscoveryService</text>
  <line x1="1047" y1="2166" x2="1237" y2="2166" stroke="#01579b" stroke-width="1"/>
  <text x="1050" y="2169" font-size="10" fill="#666666">+ discoverFiles(options?: any): ...</text>
  <text x="1050" y="2185" font-size="10" fill="#666666">- discoverFromGlob(options: obje...</text>
  <rect x="1552" y="12" width="200" height="100" fill="#e1f5fe" stroke="#01579b" stroke-width="2" rx="5"/>
  <text x="1652" y="30" font-size="12" font-weight="bold" fill="#333333" text-anchor="middle">FileDiscoveryOptions</text>
  <rect x="2012" y="445" width="200" height="157" fill="#e1f5fe" stroke="#01579b" stroke-width="2" rx="5"/>
  <text x="2112" y="463" font-size="12" font-weight="bold" fill="#333333" text-anchor="middle">OutputPathResolver</text>
  <line x1="2017" y1="480" x2="2207" y2="480" stroke="#01579b" stroke-width="1"/>
  <text x="2020" y="483" font-size="10" fill="#666666">+ resolve(options?: any): any</text>
  <text x="2020" y="499" font-size="10" fill="#666666">+ ensureDirectory(options?: any)...</text>
  <text x="2020" y="515" font-size="10" fill="#666666">- buildPathResolution(outputDir:...</text>
  <text x="2020" y="531" font-size="10" fill="#666666">- parseCustomName(customName: st...</text>
  <text x="2020" y="547" font-size="10" fill="#666666">- determineBasePath(options: any...</text>
  <text x="2020" y="563" font-size="10" fill="#666666">- parseBasePath(basePath: string...</text>
  <text x="2020" y="579" font-size="10" fill="#666666">+ constructor(config: object)</text>
  <rect x="292" y="174" width="200" height="100" fill="#e1f5fe" stroke="#01579b" stroke-width="2" rx="5"/>
  <text x="392" y="192" font-size="12" font-weight="bold" fill="#333333" text-anchor="middle">PathResolution</text>
  <line x1="297" y1="209" x2="487" y2="209" stroke="#01579b" stroke-width="1"/>
  <text x="300" y="212" font-size="10" fill="#666666">+ outputDir: string</text>
  <text x="300" y="228" font-size="10" fill="#666666">+ baseName: string</text>
  <text x="300" y="244" font-size="10" fill="#666666">+ paths: object</text>
  <rect x="792" y="174" width="200" height="100" fill="#e1f5fe" stroke="#01579b" stroke-width="2" rx="5"/>
  <text x="892" y="192" font-size="12" font-weight="bold" fill="#333333" text-anchor="middle">ResolveOptions</text>
  <rect x="512" y="174" width="200" height="100" fill="#e1f5fe" stroke="#01579b" stroke-width="2" rx="5"/>
  <text x="612" y="192" font-size="12" font-weight="bold" fill="#333333" text-anchor="middle">OutputPathOptions</text>
  <rect x="12" y="174" width="200" height="100" fill="#e1f5fe" stroke="#01579b" stroke-width="2" rx="5"/>
  <text x="112" y="192" font-size="12" font-weight="bold" fill="#333333" text-anchor="middle">ResolvedPaths</text>
  <line x1="17" y1="209" x2="207" y2="209" stroke="#01579b" stroke-width="1"/>
  <text x="20" y="212" font-size="10" fill="#666666">+ dir: string</text>
  <rect x="1792" y="202" width="200" height="100" fill="#e1f5fe" stroke="#01579b" stroke-width="2" rx="5"/>
  <text x="1892" y="220" font-size="12" font-weight="bold" fill="#333333" text-anchor="middle">import___home_yale_work_archguard_src_cli_cache_manager___CacheStats</text>
  <rect x="1792" y="352" width="200" height="100" fill="#e1f5fe" stroke="#01579b" stroke-width="2" rx="5"/>
  <text x="1892" y="370" font-size="12" font-weight="bold" fill="#333333" text-anchor="middle">T</text>
  <rect x="1732" y="502" width="200" height="100" fill="#e1f5fe" stroke="#01579b" stroke-width="2" rx="5"/>
  <text x="1832" y="520" font-size="12" font-weight="bold" fill="#333333" text-anchor="middle">import___home_yale_work_archguard_src_cli_cache_manager___CacheOptions</text>
  <rect x="1292" y="174" width="200" height="100" fill="#e1f5fe" stroke="#01579b" stroke-width="2" rx="5"/>
  <text x="1392" y="192" font-size="12" font-weight="bold" fill="#333333" text-anchor="middle">z_infer</text>
  <rect x="1292" y="474" width="200" height="100" fill="#e1f5fe" stroke="#01579b" stroke-width="2" rx="5"/>
  <text x="1392" y="492" font-size="12" font-weight="bold" fill="#333333" text-anchor="middle">__format____json_</text>
  <rect x="232" y="894" width="200" height="100" fill="#e1f5fe" stroke="#01579b" stroke-width="2" rx="5"/>
  <text x="332" y="912" font-size="12" font-weight="bold" fill="#333333" text-anchor="middle">import___home_yale_work_archguard_src_cli_error_handler___ErrorFormatOptions</text>
  <rect x="572" y="1344" width="200" height="100" fill="#e1f5fe" stroke="#01579b" stroke-width="2" rx="5"/>
  <text x="672" y="1362" font-size="12" font-weight="bold" fill="#333333" text-anchor="middle">Error</text>
  <rect x="572" y="1494" width="200" height="100" fill="#e1f5fe" stroke="#01579b" stroke-width="2" rx="5"/>
  <text x="672" y="1512" font-size="12" font-weight="bold" fill="#333333" text-anchor="middle">_read_</text>
  <rect x="1332" y="2066" width="200" height="100" fill="#e1f5fe" stroke="#01579b" stroke-width="2" rx="5"/>
  <text x="1432" y="2084" font-size="12" font-weight="bold" fill="#333333" text-anchor="middle">Ora</text>
  <rect x="1332" y="1766" width="200" height="100" fill="#e1f5fe" stroke="#01579b" stroke-width="2" rx="5"/>
  <text x="1432" y="1784" font-size="12" font-weight="bold" fill="#333333" text-anchor="middle">import___home_yale_work_archguard_src_cli_progress___Stage</text>
  <rect x="1332" y="1916" width="200" height="100" fill="#e1f5fe" stroke="#01579b" stroke-width="2" rx="5"/>
  <text x="1432" y="1934" font-size="12" font-weight="bold" fill="#333333" text-anchor="middle">import___home_yale_work_archguard_src_cli_progress___ProgressSummary</text>
  <rect x="1052" y="1344" width="200" height="100" fill="#e1f5fe" stroke="#01579b" stroke-width="2" rx="5"/>
  <text x="1152" y="1362" font-size="12" font-weight="bold" fill="#333333" text-anchor="middle">DiagramConfig</text>
  <rect x="1072" y="2581" width="200" height="100" fill="#e1f5fe" stroke="#01579b" stroke-width="2" rx="5"/>
  <text x="1172" y="2599" font-size="12" font-weight="bold" fill="#333333" text-anchor="middle">GlobalConfig</text>
  <rect x="1012" y="894" width="200" height="100" fill="#e1f5fe" stroke="#01579b" stroke-width="2" rx="5"/>
  <text x="1112" y="912" font-size="12" font-weight="bold" fill="#333333" text-anchor="middle">ArchJSONAggregator</text>
  <rect x="1072" y="1494" width="200" height="100" fill="#e1f5fe" stroke="#01579b" stroke-width="2" rx="5"/>
  <text x="1172" y="1512" font-size="12" font-weight="bold" fill="#333333" text-anchor="middle">import___home_yale_work_archguard_src_cli_processors_diagram_processor___DiagramProcessorOptions</text>
  <rect x="1022" y="1044" width="200" height="100" fill="#e1f5fe" stroke="#01579b" stroke-width="2" rx="5"/>
  <text x="1122" y="1062" font-size="12" font-weight="bold" fill="#333333" text-anchor="middle">import___home_yale_work_archguard_src_cli_processors_diagram_processor___DiagramResult</text>
  <rect x="1032" y="1194" width="200" height="100" fill="#e1f5fe" stroke="#01579b" stroke-width="2" rx="5"/>
  <text x="1132" y="1212" font-size="12" font-weight="bold" fill="#333333" text-anchor="middle">ArchJSON</text>
  <rect x="1072" y="1644" width="200" height="100" fill="#e1f5fe" stroke="#01579b" stroke-width="2" rx="5"/>
  <text x="1172" y="1662" font-size="12" font-weight="bold" fill="#333333" text-anchor="middle">__paths____json__string__mmd__string__png__string__svg__string______</text>
  <rect x="1032" y="2431" width="200" height="100" fill="#e1f5fe" stroke="#01579b" stroke-width="2" rx="5"/>
  <text x="1132" y="2449" font-size="12" font-weight="bold" fill="#333333" text-anchor="middle">OutputFormat</text>
  <rect x="1032" y="2281" width="200" height="100" fill="#e1f5fe" stroke="#01579b" stroke-width="2" rx="5"/>
  <text x="1132" y="2299" font-size="12" font-weight="bold" fill="#333333" text-anchor="middle">DetailLevel</text>
  <rect x="1312" y="2366" width="200" height="100" fill="#e1f5fe" stroke="#01579b" stroke-width="2" rx="5"/>
  <text x="1412" y="2384" font-size="12" font-weight="bold" fill="#333333" text-anchor="middle">import___home_yale_work_archguard_src_cli_utils_file_discovery_service___FileDiscoveryOptions</text>
  <rect x="1322" y="2216" width="200" height="100" fill="#e1f5fe" stroke="#01579b" stroke-width="2" rx="5"/>
  <text x="1422" y="2234" font-size="12" font-weight="bold" fill="#333333" text-anchor="middle">__source__string__exclude__string____skipMissing__boolean___</text>
  <rect x="2232" y="174" width="200" height="100" fill="#e1f5fe" stroke="#01579b" stroke-width="2" rx="5"/>
  <text x="2332" y="192" font-size="12" font-weight="bold" fill="#333333" text-anchor="middle">__outputDir__string__output___string___</text>
  <rect x="2242" y="324" width="200" height="100" fill="#e1f5fe" stroke="#01579b" stroke-width="2" rx="5"/>
  <text x="2342" y="342" font-size="12" font-weight="bold" fill="#333333" text-anchor="middle">import___home_yale_work_archguard_src_cli_utils_output_path_resolver___PathResolution</text>
  <rect x="2292" y="474" width="200" height="100" fill="#e1f5fe" stroke="#01579b" stroke-width="2" rx="5"/>
  <text x="2392" y="492" font-size="12" font-weight="bold" fill="#333333" text-anchor="middle">import___home_yale_work_archguard_src_cli_utils_output_path_resolver___ResolveOptions</text>
  <rect x="2242" y="624" width="200" height="100" fill="#e1f5fe" stroke="#01579b" stroke-width="2" rx="5"/>
  <text x="2342" y="642" font-size="12" font-weight="bold" fill="#333333" text-anchor="middle">__outputDir__string__fileName__string___</text>
  <rect x="2232" y="774" width="200" height="100" fill="#e1f5fe" stroke="#01579b" stroke-width="2" rx="5"/>
  <text x="2332" y="792" font-size="12" font-weight="bold" fill="#333333" text-anchor="middle">__dir__string__baseName__string___</text>
</svg>