<svg xmlns="http://www.w3.org/2000/svg" width="3585.492307692308" height="2249" viewBox="0 0 3585.492307692308 2249">
  <rect width="100%" height="100%" fill="#ffffff"/>
  <line x1="316.75" y1="554.5" x2="778.4" y2="836" stroke="#666666" stroke-width="2" marker-end="url(#arrowhead)"/>
  <line x1="316.75" y1="554.5" x2="1122.8" y2="836" stroke="#666666" stroke-width="2" marker-end="url(#arrowhead)"/>
  <line x1="316.75" y1="554.5" x2="253.00000000000003" y2="836" stroke="#666666" stroke-width="2" marker-end="url(#arrowhead)"/>
  <line x1="316.75" y1="554.5" x2="778.4" y2="836" stroke="#666666" stroke-width="2" marker-end="url(#arrowhead)"/>
  <line x1="2156.125" y1="107.5" x2="2103" y2="333" stroke="#666666" stroke-width="2" marker-end="url(#arrowhead)"/>
  <line x1="2156.125" y1="107.5" x2="2273" y2="333" stroke="#666666" stroke-width="2" marker-end="url(#arrowhead)"/>
  <line x1="2156.125" y1="107.5" x2="2449.1" y2="333" stroke="#666666" stroke-width="2" marker-end="url(#arrowhead)"/>
  <line x1="348.6928571428572" y1="992.5" x2="272.8" y2="1209" stroke="#666666" stroke-width="2" marker-end="url(#arrowhead)"/>
  <line x1="348.6928571428572" y1="992.5" x2="660.85" y2="1209" stroke="#666666" stroke-width="2" marker-end="url(#arrowhead)"/>
  <line x1="348.6928571428572" y1="992.5" x2="923.35" y2="1209" stroke="#666666" stroke-width="2" marker-end="url(#arrowhead)"/>
  <line x1="348.6928571428572" y1="992.5" x2="1185.85" y2="1209" stroke="#666666" stroke-width="2" marker-end="url(#arrowhead)"/>
  <line x1="348.6928571428572" y1="992.5" x2="1448.35" y2="1209" stroke="#666666" stroke-width="2" marker-end="url(#arrowhead)"/>
  <line x1="348.6928571428572" y1="992.5" x2="923.35" y2="1389" stroke="#666666" stroke-width="2" marker-end="url(#arrowhead)"/>
  <line x1="660.85" y1="1209" x2="923.35" y2="1389" stroke="#666666" stroke-width="2" marker-end="url(#arrowhead)"/>
  <line x1="923.35" y1="1209" x2="923.35" y2="1389" stroke="#666666" stroke-width="2" marker-end="url(#arrowhead)"/>
  <line x1="1185.85" y1="1209" x2="923.35" y2="1389" stroke="#666666" stroke-width="2" marker-end="url(#arrowhead)"/>
  <line x1="1448.35" y1="1209" x2="923.35" y2="1389" stroke="#666666" stroke-width="2" marker-end="url(#arrowhead)"/>
  <line x1="1448.35" y1="1209" x2="1483.7666666666667" y2="1389" stroke="#666666" stroke-width="2" marker-end="url(#arrowhead)"/>
  <line x1="1954.65" y1="1913.5" x2="1221.1999999999998" y2="2187" stroke="#666666" stroke-width="2" marker-end="url(#arrowhead)"/>
  <line x1="1954.65" y1="1913.5" x2="1532.6000000000001" y2="2187" stroke="#666666" stroke-width="2" marker-end="url(#arrowhead)"/>
  <line x1="1954.65" y1="1913.5" x2="1532.6000000000001" y2="2187" stroke="#666666" stroke-width="2" marker-end="url(#arrowhead)"/>
  <line x1="1954.65" y1="1913.5" x2="2018.4" y2="2187" stroke="#666666" stroke-width="2" marker-end="url(#arrowhead)"/>
  <line x1="3211.242307692308" y1="1554.5" x2="930.8000000000002" y2="1820" stroke="#666666" stroke-width="2" marker-end="url(#arrowhead)"/>
  <line x1="3211.242307692308" y1="1554.5" x2="3325.8" y2="1820" stroke="#666666" stroke-width="2" marker-end="url(#arrowhead)"/>
  <line x1="3211.242307692308" y1="1554.5" x2="1954.65" y2="1913.5" stroke="#666666" stroke-width="2" marker-end="url(#arrowhead)"/>
  <line x1="3211.242307692308" y1="1554.5" x2="3109.55" y2="1944.6666666666665" stroke="#666666" stroke-width="2" marker-end="url(#arrowhead)"/>
  <line x1="3211.242307692308" y1="1554.5" x2="2883.9" y2="1820" stroke="#666666" stroke-width="2" marker-end="url(#arrowhead)"/>
  <line x1="3211.242307692308" y1="1554.5" x2="2437.7000000000003" y2="1820" stroke="#666666" stroke-width="2" marker-end="url(#arrowhead)"/>
  <line x1="3211.242307692308" y1="1554.5" x2="1334.6000000000001" y2="1820" stroke="#666666" stroke-width="2" marker-end="url(#arrowhead)"/>
  <line x1="3211.242307692308" y1="1554.5" x2="930.8000000000002" y2="1820" stroke="#666666" stroke-width="2" marker-end="url(#arrowhead)"/>
  <line x1="3211.242307692308" y1="1554.5" x2="760.8000000000002" y2="1820" stroke="#666666" stroke-width="2" marker-end="url(#arrowhead)"/>
  <line x1="3211.242307692308" y1="1554.5" x2="246.4" y2="1820" stroke="#666666" stroke-width="2" marker-end="url(#arrowhead)"/>
  <line x1="3211.242307692308" y1="1554.5" x2="1738.4" y2="1820" stroke="#666666" stroke-width="2" marker-end="url(#arrowhead)"/>
  <line x1="3211.242307692308" y1="1554.5" x2="590.8000000000002" y2="1820" stroke="#666666" stroke-width="2" marker-end="url(#arrowhead)"/>
  <line x1="3479.242307692308" y1="1579.5" x2="3325.8" y2="1820" stroke="#666666" stroke-width="2" marker-end="url(#arrowhead)"/>
  <line x1="3479.242307692308" y1="1579.5" x2="3514.6589743589743" y2="1820" stroke="#666666" stroke-width="2" marker-end="url(#arrowhead)"/>
  <line x1="3109.55" y1="1944.6666666666665" x2="3144.9666666666667" y2="2187" stroke="#666666" stroke-width="2" marker-end="url(#arrowhead)"/>
  <line x1="3109.55" y1="1944.6666666666665" x2="2570.0666666666666" y2="2187" stroke="#666666" stroke-width="2" marker-end="url(#arrowhead)"/>
  <line x1="1412.3333333333333" y1="481.5" x2="1341.5" y2="690" stroke="#666666" stroke-width="2" marker-end="url(#arrowhead)"/>
  <line x1="1412.3333333333333" y1="481.5" x2="1820.7" y2="690" stroke="#666666" stroke-width="2" marker-end="url(#arrowhead)"/>
  <line x1="1412.3333333333333" y1="481.5" x2="2451.7" y2="690" stroke="#666666" stroke-width="2" marker-end="url(#arrowhead)"/>
  <line x1="1412.3333333333333" y1="481.5" x2="2934.2" y2="690" stroke="#666666" stroke-width="2" marker-end="url(#arrowhead)"/>
  <line x1="1412.3333333333333" y1="481.5" x2="3248.3999999999996" y2="690" stroke="#666666" stroke-width="2" marker-end="url(#arrowhead)"/>
  <line x1="1956.8999999999999" y1="62" x2="1956.8999999999999" y2="242" stroke="#666666" stroke-width="2" marker-end="url(#arrowhead)"/>
  <line x1="1808.55" y1="62" x2="1808.55" y2="242" stroke="#666666" stroke-width="2" marker-end="url(#arrowhead)"/>
  <defs>
    <marker id="arrowhead" markerWidth="10" markerHeight="10" refX="10" refY="3" orient="auto">
      <polygon points="0 0, 10 3, 0 6" fill="#666666"/>
    </marker>
  </defs>
  <rect x="210.50000000000003" y="403" width="212.5" height="303" fill="#e1f5fe" stroke="#01579b" stroke-width="2" rx="5"/>
  <text x="316.75" y="421" font-size="12" font-weight="bold" fill="#333333" text-anchor="middle">CacheManager</text>
  <line x1="215.50000000000003" y1="438" x2="418" y2="438" stroke="#01579b" stroke-width="1"/>
  <text x="218.50000000000003" y="441" font-size="10" fill="#666666">+ cacheDir: string</text>
  <text x="218.50000000000003" y="457" font-size="10" fill="#666666">- stats: any</text>
  <text x="218.50000000000003" y="473" font-size="10" fill="#666666">- defaultTTL: number</text>
  <line x1="215.50000000000003" y1="489" x2="418" y2="489" stroke="#01579b" stroke-width="1"/>
  <text x="218.50000000000003" y="492" font-size="10" fill="#666666">+ computeFileHash(filePath: stri...</text>
  <text x="218.50000000000003" y="508" font-size="10" fill="#666666">+ get(filePath: string, hash: st...</text>
  <text x="218.50000000000003" y="524" font-size="10" fill="#666666">+ set(filePath: string, hash: st...</text>
  <text x="218.50000000000003" y="540" font-size="10" fill="#666666">+ clear(): Promise</text>
  <text x="218.50000000000003" y="556" font-size="10" fill="#666666">+ getStats(): any</text>
  <text x="218.50000000000003" y="572" font-size="10" fill="#666666">+ getCacheSize(): Promise</text>
  <text x="218.50000000000003" y="588" font-size="10" fill="#666666">- getAllCacheFiles(): Promise</text>
  <text x="218.50000000000003" y="604" font-size="10" fill="#666666">- getCacheKey(filePath: string, ...</text>
  <text x="218.50000000000003" y="620" font-size="10" fill="#666666">- getCachePath(cacheKey: string)...</text>
  <text x="218.50000000000003" y="636" font-size="10" fill="#666666">- updateHitRate()</text>
  <text x="218.50000000000003" y="652" font-size="10" fill="#666666">+ setDefaultTTL(ttl: number)</text>
  <text x="218.50000000000003" y="668" font-size="10" fill="#666666">+ getDefaultTTL(): number</text>
  <text x="218.50000000000003" y="684" font-size="10" fill="#666666">+ constructor(cacheDir?: string)</text>
  <rect x="716.5" y="12" width="124.5" height="110" fill="#e1f5fe" stroke="#01579b" stroke-width="2" rx="5"/>
  <text x="778.75" y="30" font-size="12" font-weight="bold" fill="#333333" text-anchor="middle">CacheStats</text>
  <line x1="721.5" y1="47" x2="836" y2="47" stroke="#01579b" stroke-width="1"/>
  <text x="724.5" y="50" font-size="10" fill="#666666">+ hits: number</text>
  <text x="724.5" y="66" font-size="10" fill="#666666">+ misses: number</text>
  <text x="724.5" y="82" font-size="10" fill="#666666">+ hitRate: number</text>
  <text x="724.5" y="98" font-size="10" fill="#666666">+ totalSize: number</text>
  <rect x="12" y="12" width="120" height="100" fill="#e1f5fe" stroke="#01579b" stroke-width="2" rx="5"/>
  <text x="72" y="30" font-size="12" font-weight="bold" fill="#333333" text-anchor="middle">CacheOptions</text>
  <rect x="572" y="12" width="124.5" height="100" fill="#e1f5fe" stroke="#01579b" stroke-width="2" rx="5"/>
  <text x="634.25" y="30" font-size="12" font-weight="bold" fill="#333333" text-anchor="middle">CacheEntry</text>
  <line x1="577" y1="47" x2="691.5" y2="47" stroke="#01579b" stroke-width="1"/>
  <text x="580" y="50" font-size="10" fill="#666666">+ data: T</text>
  <text x="580" y="66" font-size="10" fill="#666666">+ timestamp: number</text>
  <text x="580" y="82" font-size="10" fill="#666666">+ ttl: number</text>
  <rect x="242.44285714285715" y="906" width="212.5" height="173" fill="#e1f5fe" stroke="#01579b" stroke-width="2" rx="5"/>
  <text x="348.6928571428572" y="924" font-size="12" font-weight="bold" fill="#333333" text-anchor="middle">ErrorHandler</text>
  <line x1="247.44285714285715" y1="941" x2="449.9428571428572" y2="941" stroke="#01579b" stroke-width="1"/>
  <text x="250.44285714285715" y="944" font-size="10" fill="#666666">+ format(error: unknown, options...</text>
  <text x="250.44285714285715" y="960" font-size="10" fill="#666666">- formatParseError(error: ParseE...</text>
  <text x="250.44285714285715" y="976" font-size="10" fill="#666666">- formatAPIError(error: APIError...</text>
  <text x="250.44285714285715" y="992" font-size="10" fill="#666666">- formatValidationError(error: V...</text>
  <text x="250.44285714285715" y="1008" font-size="10" fill="#666666">- formatFileError(error: FileErr...</text>
  <text x="250.44285714285715" y="1024" font-size="10" fill="#666666">- formatGenericError(error: Erro...</text>
  <text x="250.44285714285715" y="1040" font-size="10" fill="#666666">- formatStringError(error: strin...</text>
  <text x="250.44285714285715" y="1056" font-size="10" fill="#666666">- formatUnknownError(useColor: b...</text>
  <rect x="861" y="12" width="138.8" height="100" fill="#e1f5fe" stroke="#01579b" stroke-width="2" rx="5"/>
  <text x="930.4" y="30" font-size="12" font-weight="bold" fill="#333333" text-anchor="middle">ErrorFormatOptions</text>
  <rect x="1848.4" y="1770" width="212.5" height="287" fill="#e1f5fe" stroke="#01579b" stroke-width="2" rx="5"/>
  <text x="1954.65" y="1788" font-size="12" font-weight="bold" fill="#333333" text-anchor="middle">ProgressReporter</text>
  <line x1="1853.4" y1="1805" x2="2055.9" y2="1805" stroke="#01579b" stroke-width="1"/>
  <text x="1856.4" y="1808" font-size="10" fill="#666666">- spinner: Ora</text>
  <text x="1856.4" y="1824" font-size="10" fill="#666666">- stages: any</text>
  <text x="1856.4" y="1840" font-size="10" fill="#666666">- currentStage: any</text>
  <line x1="1853.4" y1="1856" x2="2055.9" y2="1856" stroke="#01579b" stroke-width="1"/>
  <text x="1856.4" y="1859" font-size="10" fill="#666666">+ start(message: string)</text>
  <text x="1856.4" y="1875" font-size="10" fill="#666666">+ update(completed: number, tota...</text>
  <text x="1856.4" y="1891" font-size="10" fill="#666666">+ succeed(message: string)</text>
  <text x="1856.4" y="1907" font-size="10" fill="#666666">+ fail(message: string)</text>
  <text x="1856.4" y="1923" font-size="10" fill="#666666">+ warn(message: string)</text>
  <text x="1856.4" y="1939" font-size="10" fill="#666666">+ info(message: string)</text>
  <text x="1856.4" y="1955" font-size="10" fill="#666666">+ getStages(): any</text>
  <text x="1856.4" y="1971" font-size="10" fill="#666666">+ getCurrentStage(): any</text>
  <text x="1856.4" y="1987" font-size="10" fill="#666666">+ getSummary(): any</text>
  <text x="1856.4" y="2003" font-size="10" fill="#666666">+ printSummary()</text>
  <text x="1856.4" y="2019" font-size="10" fill="#666666">+ stop()</text>
  <text x="1856.4" y="2035" font-size="10" fill="#666666">+ constructor()</text>
  <rect x="152" y="12" width="120" height="100" fill="#e1f5fe" stroke="#01579b" stroke-width="2" rx="5"/>
  <text x="212" y="30" font-size="12" font-weight="bold" fill="#333333" text-anchor="middle">Stage</text>
  <line x1="157" y1="47" x2="267" y2="47" stroke="#01579b" stroke-width="1"/>
  <text x="160" y="50" font-size="10" fill="#666666">+ name: string</text>
  <text x="160" y="66" font-size="10" fill="#666666">+ status: any</text>
  <rect x="1530.3" y="12" width="196" height="126" fill="#e1f5fe" stroke="#01579b" stroke-width="2" rx="5"/>
  <text x="1628.3" y="30" font-size="12" font-weight="bold" fill="#333333" text-anchor="middle">ProgressSummary</text>
  <line x1="1535.3" y1="47" x2="1721.3" y2="47" stroke="#01579b" stroke-width="1"/>
  <text x="1538.3" y="50" font-size="10" fill="#666666">+ totalDuration: number</text>
  <text x="1538.3" y="66" font-size="10" fill="#666666">+ totalDurationFormatted: string</text>
  <text x="1538.3" y="82" font-size="10" fill="#666666">+ successCount: number</text>
  <text x="1538.3" y="98" font-size="10" fill="#666666">+ failureCount: number</text>
  <text x="1538.3" y="114" font-size="10" fill="#666666">+ warningCount: number</text>
  <rect x="554.6" y="1159" width="212.5" height="100" fill="#e1f5fe" stroke="#01579b" stroke-width="2" rx="5"/>
  <text x="660.85" y="1177" font-size="12" font-weight="bold" fill="#333333" text-anchor="middle">ParseError</text>
  <line x1="559.6" y1="1194" x2="762.1" y2="1194" stroke="#01579b" stroke-width="1"/>
  <text x="562.6" y="1197" font-size="10" fill="#666666">+ constructor(message: string, f...</text>
  <rect x="817.1" y="1159" width="212.5" height="100" fill="#e1f5fe" stroke="#01579b" stroke-width="2" rx="5"/>
  <text x="923.35" y="1177" font-size="12" font-weight="bold" fill="#333333" text-anchor="middle">APIError</text>
  <line x1="822.1" y1="1194" x2="1024.6" y2="1194" stroke="#01579b" stroke-width="1"/>
  <text x="825.1" y="1197" font-size="10" fill="#666666">+ constructor(message: string, s...</text>
  <rect x="1079.6" y="1159" width="212.5" height="100" fill="#e1f5fe" stroke="#01579b" stroke-width="2" rx="5"/>
  <text x="1185.85" y="1177" font-size="12" font-weight="bold" fill="#333333" text-anchor="middle">ValidationError</text>
  <line x1="1084.6" y1="1194" x2="1287.1" y2="1194" stroke="#01579b" stroke-width="1"/>
  <text x="1087.6" y="1197" font-size="10" fill="#666666">+ constructor(message: string, s...</text>
  <rect x="1342.1" y="1159" width="212.5" height="100" fill="#e1f5fe" stroke="#01579b" stroke-width="2" rx="5"/>
  <text x="1448.35" y="1177" font-size="12" font-weight="bold" fill="#333333" text-anchor="middle">FileError</text>
  <line x1="1347.1" y1="1194" x2="1549.6" y2="1194" stroke="#01579b" stroke-width="1"/>
  <text x="1350.1" y="1197" font-size="10" fill="#666666">+ constructor(message: string, f...</text>
  <rect x="2049.875" y="12" width="212.5" height="191" fill="#e1f5fe" stroke="#01579b" stroke-width="2" rx="5"/>
  <text x="2156.125" y="30" font-size="12" font-weight="bold" fill="#333333" text-anchor="middle">ConfigLoader</text>
  <line x1="2054.875" y1="47" x2="2257.375" y2="47" stroke="#01579b" stroke-width="1"/>
  <text x="2057.875" y="50" font-size="10" fill="#666666">- configDir: string</text>
  <line x1="2054.875" y1="66" x2="2257.375" y2="66" stroke="#01579b" stroke-width="1"/>
  <text x="2057.875" y="69" font-size="10" fill="#666666">+ load(cliOptions?: z.infer~any,...</text>
  <text x="2057.875" y="85" font-size="10" fill="#666666">- normalizeConfig(config: FileCo...</text>
  <text x="2057.875" y="101" font-size="10" fill="#666666">- deepMerge(target: FileConfig, ...</text>
  <text x="2057.875" y="117" font-size="10" fill="#666666">- isObject(item: unknown): boolean</text>
  <text x="2057.875" y="133" font-size="10" fill="#666666">- loadFromFile(configPath?: stri...</text>
  <text x="2057.875" y="149" font-size="10" fill="#666666">+ init(options?: object): Promise</text>
  <text x="2057.875" y="165" font-size="10" fill="#666666">+ getConfigPath(): Promise</text>
  <text x="2057.875" y="181" font-size="10" fill="#666666">+ constructor(configDir?: string)</text>
  <rect x="2213" y="283" width="120" height="100" fill="#e1f5fe" stroke="#01579b" stroke-width="2" rx="5"/>
  <text x="2273" y="301" font-size="12" font-weight="bold" fill="#333333" text-anchor="middle">FileConfig</text>
  <rect x="292" y="12" width="120" height="100" fill="#e1f5fe" stroke="#01579b" stroke-width="2" rx="5"/>
  <text x="352" y="30" font-size="12" font-weight="bold" fill="#333333" text-anchor="middle">CLIConfig</text>
  <line x1="297" y1="47" x2="407" y2="47" stroke="#01579b" stroke-width="1"/>
  <text x="300" y="50" font-size="10" fill="#666666">+ command: string</text>
  <text x="300" y="66" font-size="10" fill="#666666">+ args: Array</text>
  <text x="300" y="82" font-size="10" fill="#666666">+ timeout: number</text>
  <rect x="1385.8" y="12" width="124.5" height="142" fill="#e1f5fe" stroke="#01579b" stroke-width="2" rx="5"/>
  <text x="1448.05" y="30" font-size="12" font-weight="bold" fill="#333333" text-anchor="middle">Config</text>
  <line x1="1390.8" y1="47" x2="1505.3" y2="47" stroke="#01579b" stroke-width="1"/>
  <text x="1393.8" y="50" font-size="10" fill="#666666">+ source: any</text>
  <text x="1393.8" y="66" font-size="10" fill="#666666">+ outputDir: string</text>
  <text x="1393.8" y="82" font-size="10" fill="#666666">+ format: any</text>
  <text x="1393.8" y="98" font-size="10" fill="#666666">+ exclude: Array</text>
  <text x="1393.8" y="114" font-size="10" fill="#666666">+ cli: any</text>
  <text x="1393.8" y="130" font-size="10" fill="#666666">+ cache: object</text>
  <rect x="432" y="12" width="120" height="100" fill="#e1f5fe" stroke="#01579b" stroke-width="2" rx="5"/>
  <text x="492" y="30" font-size="12" font-weight="bold" fill="#333333" text-anchor="middle">AnalyzeOptions</text>
  <line x1="437" y1="47" x2="547" y2="47" stroke="#01579b" stroke-width="1"/>
  <text x="440" y="50" font-size="10" fill="#666666">+ source: any</text>
  <text x="440" y="66" font-size="10" fill="#666666">+ format: any</text>
  <text x="440" y="82" font-size="10" fill="#666666">+ cache: boolean</text>
  <rect x="3099.492307692308" y="1459" width="223.5" height="191" fill="#e1f5fe" stroke="#01579b" stroke-width="2" rx="5"/>
  <text x="3211.242307692308" y="1477" font-size="12" font-weight="bold" fill="#333333" text-anchor="middle">DiagramProcessor</text>
  <line x1="3104.492307692308" y1="1494" x2="3317.992307692308" y2="1494" stroke="#01579b" stroke-width="1"/>
  <text x="3107.492307692308" y="1497" font-size="10" fill="#666666">- diagrams: Array</text>
  <text x="3107.492307692308" y="1513" font-size="10" fill="#666666">- globalConfig: GlobalConfig</text>
  <text x="3107.492307692308" y="1529" font-size="10" fill="#666666">- progress: ProgressReporter</text>
  <text x="3107.492307692308" y="1545" font-size="10" fill="#666666">- fileDiscovery: FileDiscoveryService</text>
  <text x="3107.492307692308" y="1561" font-size="10" fill="#666666">- aggregator: ArchJSONAggregator</text>
  <line x1="3104.492307692308" y1="1577" x2="3317.992307692308" y2="1577" stroke="#01579b" stroke-width="1"/>
  <text x="3107.492307692308" y="1580" font-size="10" fill="#666666">+ processAll(): Promise</text>
  <text x="3107.492307692308" y="1596" font-size="10" fill="#666666">- processDiagram(diagram: Diagra...</text>
  <text x="3107.492307692308" y="1612" font-size="10" fill="#666666">- generateOutput(archJSON: ArchJ...</text>
  <text x="3107.492307692308" y="1628" font-size="10" fill="#666666">+ constructor(options: any)</text>
  <rect x="1191.8" y="12" width="174" height="100" fill="#e1f5fe" stroke="#01579b" stroke-width="2" rx="5"/>
  <text x="1278.8" y="30" font-size="12" font-weight="bold" fill="#333333" text-anchor="middle">DiagramProcessorOptions</text>
  <line x1="1196.8" y1="47" x2="1360.8" y2="47" stroke="#01579b" stroke-width="1"/>
  <text x="1199.8" y="50" font-size="10" fill="#666666">+ diagrams: Array</text>
  <text x="1199.8" y="66" font-size="10" fill="#666666">+ globalConfig: GlobalConfig</text>
  <text x="1199.8" y="82" font-size="10" fill="#666666">+ progress: ProgressReporter</text>
  <rect x="3454.6589743589743" y="1770" width="120" height="100" fill="#e1f5fe" stroke="#01579b" stroke-width="2" rx="5"/>
  <text x="3514.6589743589743" y="1788" font-size="12" font-weight="bold" fill="#333333" text-anchor="middle">DiagramResult</text>
  <line x1="3459.6589743589743" y1="1805" x2="3569.6589743589743" y2="1805" stroke="#01579b" stroke-width="1"/>
  <text x="3462.6589743589743" y="1808" font-size="10" fill="#666666">+ name: string</text>
  <text x="3462.6589743589743" y="1824" font-size="10" fill="#666666">+ success: boolean</text>
  <rect x="3372.992307692308" y="1509" width="212.5" height="141" fill="#e1f5fe" stroke="#01579b" stroke-width="2" rx="5"/>
  <text x="3479.242307692308" y="1527" font-size="12" font-weight="bold" fill="#333333" text-anchor="middle">DiagramIndexGenerator</text>
  <line x1="3377.992307692308" y1="1544" x2="3580.492307692308" y2="1544" stroke="#01579b" stroke-width="1"/>
  <text x="3380.992307692308" y="1547" font-size="10" fill="#666666">+ generate(results: Array): Promise</text>
  <text x="3380.992307692308" y="1563" font-size="10" fill="#666666">- buildIndexContent(results: Arr...</text>
  <text x="3380.992307692308" y="1579" font-size="10" fill="#666666">- buildDiagramSection(result: Di...</text>
  <text x="3380.992307692308" y="1595" font-size="10" fill="#666666">- buildSummarySection(successful...</text>
  <text x="3380.992307692308" y="1611" font-size="10" fill="#666666">- buildFailedSection(failed: Arr...</text>
  <text x="3380.992307692308" y="1627" font-size="10" fill="#666666">+ constructor(globalConfig: Glob...</text>
  <rect x="3003.3" y="1894.6666666666665" width="212.5" height="100" fill="#e1f5fe" stroke="#01579b" stroke-width="2" rx="5"/>
  <text x="3109.55" y="1912.6666666666665" font-size="12" font-weight="bold" fill="#333333" text-anchor="middle">FileDiscoveryService</text>
  <line x1="3008.3" y1="1929.6666666666665" x2="3210.8" y2="1929.6666666666665" stroke="#01579b" stroke-width="1"/>
  <text x="3011.3" y="1932.6666666666665" font-size="10" fill="#666666">+ discoverFiles(options?: any): ...</text>
  <text x="3011.3" y="1948.6666666666665" font-size="10" fill="#666666">- discoverFromGlob(options: obje...</text>
  <rect x="1019.8" y="12" width="152" height="100" fill="#e1f5fe" stroke="#01579b" stroke-width="2" rx="5"/>
  <text x="1095.8" y="30" font-size="12" font-weight="bold" fill="#333333" text-anchor="middle">FileDiscoveryOptions</text>
  <rect x="1306.0833333333333" y="403" width="212.5" height="157" fill="#e1f5fe" stroke="#01579b" stroke-width="2" rx="5"/>
  <text x="1412.3333333333333" y="421" font-size="12" font-weight="bold" fill="#333333" text-anchor="middle">OutputPathResolver</text>
  <line x1="1311.0833333333333" y1="438" x2="1513.5833333333333" y2="438" stroke="#01579b" stroke-width="1"/>
  <text x="1314.0833333333333" y="441" font-size="10" fill="#666666">+ resolve(options?: any): any</text>
  <text x="1314.0833333333333" y="457" font-size="10" fill="#666666">+ ensureDirectory(options?: any)...</text>
  <text x="1314.0833333333333" y="473" font-size="10" fill="#666666">- buildPathResolution(outputDir:...</text>
  <text x="1314.0833333333333" y="489" font-size="10" fill="#666666">- parseCustomName(customName: st...</text>
  <text x="1314.0833333333333" y="505" font-size="10" fill="#666666">- determineBasePath(options: any...</text>
  <text x="1314.0833333333333" y="521" font-size="10" fill="#666666">- parseBasePath(basePath: string...</text>
  <text x="1314.0833333333333" y="537" font-size="10" fill="#666666">+ constructor(config: object)</text>
  <rect x="1746.3" y="192" width="124.5" height="100" fill="#e1f5fe" stroke="#01579b" stroke-width="2" rx="5"/>
  <text x="1808.55" y="210" font-size="12" font-weight="bold" fill="#333333" text-anchor="middle">PathResolution</text>
  <line x1="1751.3" y1="227" x2="1865.8" y2="227" stroke="#01579b" stroke-width="1"/>
  <text x="1754.3" y="230" font-size="10" fill="#666666">+ outputDir: string</text>
  <text x="1754.3" y="246" font-size="10" fill="#666666">+ baseName: string</text>
  <text x="1754.3" y="262" font-size="10" fill="#666666">+ paths: object</text>
  <rect x="1896.8999999999999" y="192" width="120" height="100" fill="#e1f5fe" stroke="#01579b" stroke-width="2" rx="5"/>
  <text x="1956.8999999999999" y="210" font-size="12" font-weight="bold" fill="#333333" text-anchor="middle">ResolveOptions</text>
  <rect x="1890.8" y="12" width="132.2" height="100" fill="#e1f5fe" stroke="#01579b" stroke-width="2" rx="5"/>
  <text x="1956.8999999999999" y="30" font-size="12" font-weight="bold" fill="#333333" text-anchor="middle">OutputPathOptions</text>
  <rect x="1748.55" y="12" width="120" height="100" fill="#e1f5fe" stroke="#01579b" stroke-width="2" rx="5"/>
  <text x="1808.55" y="30" font-size="12" font-weight="bold" fill="#333333" text-anchor="middle">ResolvedPaths</text>
  <line x1="1753.55" y1="47" x2="1863.55" y2="47" stroke="#01579b" stroke-width="1"/>
  <text x="1756.55" y="50" font-size="10" fill="#666666">+ dir: string</text>
  <rect x="544" y="786" width="468.8" height="100" fill="#e1f5fe" stroke="#01579b" stroke-width="2" rx="5"/>
  <text x="778.4" y="804" font-size="12" font-weight="bold" fill="#333333" text-anchor="middle">import___home_yale_work_archguard_src_cli_cache_manager___CacheStats</text>
  <rect x="1062.8" y="786" width="120" height="100" fill="#e1f5fe" stroke="#01579b" stroke-width="2" rx="5"/>
  <text x="1122.8" y="804" font-size="12" font-weight="bold" fill="#333333" text-anchor="middle">T</text>
  <rect x="12" y="786" width="482.00000000000006" height="100" fill="#e1f5fe" stroke="#01579b" stroke-width="2" rx="5"/>
  <text x="253.00000000000003" y="804" font-size="12" font-weight="bold" fill="#333333" text-anchor="middle">import___home_yale_work_archguard_src_cli_cache_manager___CacheOptions</text>
  <rect x="2043" y="283" width="120" height="100" fill="#e1f5fe" stroke="#01579b" stroke-width="2" rx="5"/>
  <text x="2103" y="301" font-size="12" font-weight="bold" fill="#333333" text-anchor="middle">z_infer</text>
  <rect x="2383" y="283" width="132.2" height="100" fill="#e1f5fe" stroke="#01579b" stroke-width="2" rx="5"/>
  <text x="2449.1" y="301" font-size="12" font-weight="bold" fill="#333333" text-anchor="middle">__format____json_</text>
  <rect x="12" y="1159" width="521.6" height="100" fill="#e1f5fe" stroke="#01579b" stroke-width="2" rx="5"/>
  <text x="272.8" y="1177" font-size="12" font-weight="bold" fill="#333333" text-anchor="middle">import___home_yale_work_archguard_src_cli_error_handler___ErrorFormatOptions</text>
  <rect x="863.35" y="1339" width="120" height="100" fill="#e1f5fe" stroke="#01579b" stroke-width="2" rx="5"/>
  <text x="923.35" y="1357" font-size="12" font-weight="bold" fill="#333333" text-anchor="middle">Error</text>
  <rect x="1423.7666666666667" y="1339" width="120" height="100" fill="#e1f5fe" stroke="#01579b" stroke-width="2" rx="5"/>
  <text x="1483.7666666666667" y="1357" font-size="12" font-weight="bold" fill="#333333" text-anchor="middle">_read_</text>
  <rect x="1161.1999999999998" y="2137" width="120" height="100" fill="#e1f5fe" stroke="#01579b" stroke-width="2" rx="5"/>
  <text x="1221.1999999999998" y="2155" font-size="12" font-weight="bold" fill="#333333" text-anchor="middle">Ora</text>
  <rect x="1331.2" y="2137" width="402.8" height="100" fill="#e1f5fe" stroke="#01579b" stroke-width="2" rx="5"/>
  <text x="1532.6000000000001" y="2155" font-size="12" font-weight="bold" fill="#333333" text-anchor="middle">import___home_yale_work_archguard_src_cli_progress___Stage</text>
  <rect x="1784" y="2137" width="468.8" height="100" fill="#e1f5fe" stroke="#01579b" stroke-width="2" rx="5"/>
  <text x="2018.4" y="2155" font-size="12" font-weight="bold" fill="#333333" text-anchor="middle">import___home_yale_work_archguard_src_cli_progress___ProgressSummary</text>
  <rect x="870.8000000000002" y="1770" width="120" height="100" fill="#e1f5fe" stroke="#01579b" stroke-width="2" rx="5"/>
  <text x="930.8000000000002" y="1788" font-size="12" font-weight="bold" fill="#333333" text-anchor="middle">DiagramConfig</text>
  <rect x="3265.8" y="1770" width="120" height="100" fill="#e1f5fe" stroke="#01579b" stroke-width="2" rx="5"/>
  <text x="3325.8" y="1788" font-size="12" font-weight="bold" fill="#333333" text-anchor="middle">GlobalConfig</text>
  <rect x="2814.5" y="1770" width="138.8" height="100" fill="#e1f5fe" stroke="#01579b" stroke-width="2" rx="5"/>
  <text x="2883.9" y="1788" font-size="12" font-weight="bold" fill="#333333" text-anchor="middle">ArchJSONAggregator</text>
  <rect x="2110.9" y="1770" width="653.6" height="100" fill="#e1f5fe" stroke="#01579b" stroke-width="2" rx="5"/>
  <text x="2437.7000000000003" y="1788" font-size="12" font-weight="bold" fill="#333333" text-anchor="middle">import___home_yale_work_archguard_src_cli_processors_diagram_processor___DiagramProcessorOptions</text>
  <rect x="1040.8000000000002" y="1770" width="587.6" height="100" fill="#e1f5fe" stroke="#01579b" stroke-width="2" rx="5"/>
  <text x="1334.6000000000001" y="1788" font-size="12" font-weight="bold" fill="#333333" text-anchor="middle">import___home_yale_work_archguard_src_cli_processors_diagram_processor___DiagramResult</text>
  <rect x="700.8000000000002" y="1770" width="120" height="100" fill="#e1f5fe" stroke="#01579b" stroke-width="2" rx="5"/>
  <text x="760.8000000000002" y="1788" font-size="12" font-weight="bold" fill="#333333" text-anchor="middle">ArchJSON</text>
  <rect x="12" y="1770" width="468.8" height="100" fill="#e1f5fe" stroke="#01579b" stroke-width="2" rx="5"/>
  <text x="246.4" y="1788" font-size="12" font-weight="bold" fill="#333333" text-anchor="middle">__paths____json__string__mmd__string__png__string__svg__string______</text>
  <rect x="1678.4" y="1770" width="120" height="100" fill="#e1f5fe" stroke="#01579b" stroke-width="2" rx="5"/>
  <text x="1738.4" y="1788" font-size="12" font-weight="bold" fill="#333333" text-anchor="middle">OutputFormat</text>
  <rect x="530.8000000000002" y="1770" width="120" height="100" fill="#e1f5fe" stroke="#01579b" stroke-width="2" rx="5"/>
  <text x="590.8000000000002" y="1788" font-size="12" font-weight="bold" fill="#333333" text-anchor="middle">DetailLevel</text>
  <rect x="2828.0666666666666" y="2137" width="633.8000000000001" height="100" fill="#e1f5fe" stroke="#01579b" stroke-width="2" rx="5"/>
  <text x="3144.9666666666667" y="2155" font-size="12" font-weight="bold" fill="#333333" text-anchor="middle">import___home_yale_work_archguard_src_cli_utils_file_discovery_service___FileDiscoveryOptions</text>
  <rect x="2362.0666666666666" y="2137" width="416.00000000000006" height="100" fill="#e1f5fe" stroke="#01579b" stroke-width="2" rx="5"/>
  <text x="2570.0666666666666" y="2155" font-size="12" font-weight="bold" fill="#333333" text-anchor="middle">__source__string__exclude__string____skipMissing__boolean___</text>
  <rect x="1202.8" y="640" width="277.40000000000003" height="100" fill="#e1f5fe" stroke="#01579b" stroke-width="2" rx="5"/>
  <text x="1341.5" y="658" font-size="12" font-weight="bold" fill="#333333" text-anchor="middle">__outputDir__string__output___string___</text>
  <rect x="1530.2" y="640" width="581" height="100" fill="#e1f5fe" stroke="#01579b" stroke-width="2" rx="5"/>
  <text x="1820.7" y="658" font-size="12" font-weight="bold" fill="#333333" text-anchor="middle">import___home_yale_work_archguard_src_cli_utils_output_path_resolver___PathResolution</text>
  <rect x="2161.2" y="640" width="581" height="100" fill="#e1f5fe" stroke="#01579b" stroke-width="2" rx="5"/>
  <text x="2451.7" y="658" font-size="12" font-weight="bold" fill="#333333" text-anchor="middle">import___home_yale_work_archguard_src_cli_utils_output_path_resolver___ResolveOptions</text>
  <rect x="2792.2" y="640" width="284" height="100" fill="#e1f5fe" stroke="#01579b" stroke-width="2" rx="5"/>
  <text x="2934.2" y="658" font-size="12" font-weight="bold" fill="#333333" text-anchor="middle">__outputDir__string__fileName__string___</text>
  <rect x="3126.2" y="640" width="244.4" height="100" fill="#e1f5fe" stroke="#01579b" stroke-width="2" rx="5"/>
  <text x="3248.3999999999996" y="658" font-size="12" font-weight="bold" fill="#333333" text-anchor="middle">__dir__string__baseName__string___</text>
</svg>